SplineFontDB: 3.2
FontName: Garuda-Bold
FullName: Garuda Bold
FamilyName: Garuda
Weight: Bold
Copyright: Generated by NECTEC for Public Domain\n\nModified under GNU General Public License by TLWG
Version: 004.002
ItalicAngle: 0
UnderlinePosition: -27
UnderlineWidth: 20
Ascent: 872
Descent: 128
InvalidEm: 0
LayerCount: 3
Layer: 0 0 "Back" 1
Layer: 1 0 "Fore" 0
Layer: 2 1 "Quad" 0
FSType: 0
OS2Version: 4
OS2_WeightWidthSlopeOnly: 0
OS2_UseTypoMetrics: 1
CreationTime: 1153661448
ModificationTime: 1587792226
PfmFamily: 33
TTFWeight: 700
TTFWidth: 5
LineGap: 0
VLineGap: 0
Panose: 2 11 7 4 2 2 2 2 2 4
OS2TypoAscent: 1284
OS2TypoAOffset: 0
OS2TypoDescent: -591
OS2TypoDOffset: 0
OS2TypoLinegap: 0
OS2WinAscent: 1284
OS2WinAOffset: 0
OS2WinDescent: 591
OS2WinDOffset: 0
HheadAscent: 1284
HheadAOffset: 0
HheadDescent: -591
HheadDOffset: 0
OS2Vendor: 'PfEd'
Lookup: 6 0 0 "'ccmp' Thai Tone Tilde Reordering" { "'ccmp' Thai Tone Tilde Reordering"  } ['ccmp' ('DFLT' <'dflt' > 'latn' <'dflt' > 'thai' <'KUY ' 'MLY ' 'PAL ' 'SAN ' 'THA ' 'dflt' > ) ]
Lookup: 6 0 0 "'ccmp' Thai Tone Macron Reordering" { "'ccmp' Thai Tone Macron Reordering"  } ['ccmp' ('DFLT' <'dflt' > 'latn' <'dflt' > 'thai' <'KUY ' 'MLY ' 'PAL ' 'SAN ' 'THA ' 'dflt' > ) ]
Lookup: 6 0 0 "'ccmp' Thai Below Vowel Macron Reordering" { "'ccmp' Thai Below Vowel Macron Reordering"  } ['ccmp' ('DFLT' <'dflt' > 'latn' <'dflt' > 'thai' <'KUY ' 'MLY ' 'PAL ' 'SAN ' 'THA ' 'dflt' > ) ]
Lookup: 4 0 0 "'ccmp' Patani Malay Ligatures" { "'ccmp' Patani Malay Ligatures"  } ['ccmp' ('DFLT' <'dflt' > 'thai' <'KUY ' 'MLY ' 'PAL ' 'SAN ' 'THA ' 'dflt' > ) ]
Lookup: 6 0 0 "'ccmp' Thai Conditional Descender Removal" { "'ccmp' Thai Conditional Descender Removal"  } ['ccmp' ('DFLT' <'dflt' > 'thai' <'KUY ' 'MLY ' 'THA ' 'dflt' > ) ]
Lookup: 1 0 0 "'ccmp' Pali-Sanskrit Descender Removal" { "'ccmp' Pali-Sanskrit Descender Removal" ("descless") } ['ccmp' ('thai' <'PAL ' 'SAN ' > ) ]

StartChar: .notdef
Encoding: 65536 -1 0
Width: 766
VWidth: 2048
Flags: W
HStem: 0 95<192 575> 1242 95<192 575>
VStem: 95 97<95 1242> 575 96<95 1242>
LayerCount: 3
Fore
SplineSet
95 0 m 1
 95 1337 l 1
 671 1337 l 1
 671 0 l 1
 95 0 l 1
192 95 m 1
 575 95 l 1
 575 1242 l 1
 192 1242 l 1
 192 95 l 1
EndSplineSet
Validated: 1
Layer: 2
SplineSet
95 0 m 1,0,-1
 95 1337 l 1,1,-1
 671 1337 l 1,2,-1
 671 0 l 1,3,-1
 95 0 l 1,0,-1
192 95 m 1,4,-1
 575 95 l 1,5,-1
 575 1242 l 1,6,-1
 192 1242 l 1,7,-1
 192 95 l 1,4,-1
EndSplineSet
EndChar

StartChar: exclam
Encoding: 33 33 2
Width: 308
Flags: W
HStem: 2 145<112.38 209.167> 680 20G<102 220>
VStem: 94 133<19.5198 129.864> 102 118<212 700>
LayerCount: 3
Back
SplineSet
221 212 m 1
 98 212 l 1
 98 697 l 1
 221 697 l 1
 221 212 l 1
227 75 m 0
 227 41 207 2 161 2 c 0
 115 2 94 41 94 75 c 0
 94 109 115 147 161 147 c 0
 207 147 227 109 227 75 c 0
EndSplineSet
Fore
SplineSet
220 212 m 1xd0
 102 212 l 1
 102 700 l 1
 220 700 l 1
 220 212 l 1xd0
227 75 m 3xe0
 227 41 207 2 161 2 c 3
 115 2 94 41 94 75 c 3
 94 109 115 147 161 147 c 3
 207 147 227 109 227 75 c 3xe0
EndSplineSet
Layer: 2
SplineSet
220 212 m 1,0,-1
 102 212 l 1,1,-1
 102 700 l 1,2,-1
 220 700 l 1,3,-1
 220 212 l 1,0,-1
227 75 m 259,4,5
 227 46 227 46 210 24 c 128,-1,6
 193 2 193 2 161 2 c 259,7,8
 129 2 129 2 111.5 24 c 128,-1,9
 94 46 94 46 94 75 c 259,10,11
 94 103 94 103 111.5 125 c 128,-1,12
 129 147 129 147 161 147 c 259,13,14
 193 147 193 147 210 125.5 c 128,-1,15
 227 104 227 104 227 75 c 259,4,5
EndSplineSet
EndChar

StartChar: quotedbl
Encoding: 34 34 3
Width: 458
Flags: W
HStem: 455 242<98 124 334 360>
VStem: 61 101<555.342 697> 296 101<555.342 697>
LayerCount: 3
Back
SplineSet
360 455 m 1
 334 455 l 1
 296 578 l 1
 296 697 l 1
 397 697 l 1
 397 578 l 1
 360 455 l 1
124 455 m 1
 98 455 l 1
 61 578 l 1
 61 697 l 1
 162 697 l 1
 162 578 l 1
 124 455 l 1
EndSplineSet
Fore
SplineSet
360 455 m 1
 334 455 l 1
 296 578 l 1
 296 697 l 1
 397 697 l 1
 397 578 l 1
 360 455 l 1
124 455 m 1
 98 455 l 1
 61 578 l 1
 61 697 l 1
 162 697 l 1
 162 578 l 1
 124 455 l 1
EndSplineSet
Validated: 1
Layer: 2
SplineSet
360 455 m 1,0,-1
 334 455 l 1,1,-1
 296 578 l 1,2,-1
 296 697 l 1,3,-1
 397 697 l 1,4,-1
 397 578 l 1,5,-1
 360 455 l 1,0,-1
124 455 m 1,6,-1
 98 455 l 1,7,-1
 61 578 l 1,8,-1
 61 697 l 1,9,-1
 162 697 l 1,10,-1
 162 578 l 1,11,-1
 124 455 l 1,6,-1
EndSplineSet
EndChar

StartChar: numbersign
Encoding: 35 35 4
Width: 597
Flags: W
HStem: 0 21G<86 188.096 290 390.337> 166 99<31 120 238 325 441 540> 412 103<72 166 282 374 484 567> 680 20G<212.324 316 421.892 521>
VStem: 86 98<0 98> 216 100<600 700> 290 96<0 96> 426 95<605 700>
DStem2: 86 0 184 0 0.185306 0.982681<18.1599 169.425 288.577 419.689 542.401 711.966> 290 0 386 0 0.19072 0.981645<18.3091 169.628 288.934 420.458 542.547 713.089>
LayerCount: 3
Fore
SplineSet
441 265 m 1xfd
 540 265 l 1
 540 166 l 1
 422 166 l 1
 386 0 l 1
 290 0 l 1xfb
 325 166 l 1
 218 166 l 1
 184 0 l 1
 86 0 l 1
 120 166 l 1
 31 166 l 1
 31 265 l 1
 139 265 l 1
 166 412 l 1
 72 412 l 1
 72 515 l 1
 182 515 l 1
 216 700 l 1
 316 700 l 1
 282 515 l 1
 388 515 l 1
 426 700 l 1
 521 700 l 1
 484 515 l 1
 567 515 l 1
 567 412 l 1
 469 412 l 1
 441 265 l 1xfd
238 265 m 1
 343 265 l 1
 374 412 l 1
 264 412 l 1
 238 265 l 1
EndSplineSet
Validated: 1
Layer: 2
SplineSet
441 265 m 1,0,-1
 540 265 l 1,1,-1
 540 166 l 1,2,-1
 422 166 l 1,3,-1
 386 0 l 1,4,-1
 290 0 l 1,5,-1
 325 166 l 1,6,-1
 218 166 l 1,7,-1
 184 0 l 1,8,-1
 86 0 l 1,9,-1
 120 166 l 1,10,-1
 31 166 l 1,11,-1
 31 265 l 1,12,-1
 139 265 l 1,13,-1
 166 412 l 1,14,-1
 72 412 l 1,15,-1
 72 515 l 1,16,-1
 182 515 l 1,17,-1
 216 700 l 1,18,-1
 316 700 l 1,19,-1
 282 515 l 1,20,-1
 388 515 l 1,21,-1
 426 700 l 1,22,-1
 521 700 l 1,23,-1
 484 515 l 1,24,-1
 567 515 l 1,25,-1
 567 412 l 1,26,-1
 469 412 l 1,27,-1
 441 265 l 1,0,-1
238 265 m 1,28,-1
 343 265 l 1,29,-1
 374 412 l 1,30,-1
 264 412 l 1,31,-1
 238 265 l 1,28,-1
EndSplineSet
EndChar

StartChar: dollar
Encoding: 36 36 5
Width: 574
Flags: W
HStem: 535 101<224.531 264 359 387.934> 680 20G<264 359>
VStem: 92 110<129.905 210 423.377 515.459> 264 95<-75 2 106 264 400 532 636 700> 406 112<434 517.629> 414 114<122.143 241.945>
LayerCount: 3
Fore
SplineSet
92 457 m 3xf4
 92 558 167 636 264 636 c 1
 264 700 l 1
 359 700 l 1
 359 636 l 1
 452 624 518 554 518 474 c 3
 518 447 511 434 497 434 c 2
 426 434 l 2
 414 434 406 443 406 454 c 3xf8
 406 496 391 522 359 532 c 1
 359 377 l 1
 477 337 528 280 528 185 c 3
 528 85 459 6 359 2 c 1
 359 -75 l 1
 264 -75 l 1
 264 2 l 1
 164 2 93 85 93 183 c 3
 93 201 100 210 113 210 c 2
 182 210 l 2
 194 210 204 197 204 184 c 3
 204 141 222 118 264 106 c 1
 264 285 l 1
 142 311 92 366 92 457 c 3xf4
265 400 m 1
 265 535 l 1
 225 528 202 500 202 461 c 3
 202 437 228 410 265 400 c 1
359 264 m 1
 359 104 l 1
 395 112 414 140 414 186 c 3xf4
 414 222 396 248 359 264 c 1
EndSplineSet
Layer: 2
SplineSet
92 457 m 259,0,1
 92 533 92 533 141.5 584.5 c 128,-1,2
 191 636 191 636 264 636 c 1,3,-1
 264 700 l 1,4,-1
 359 700 l 1,5,-1
 359 636 l 1,6,7
 428 627 428 627 473 580.5 c 128,-1,8
 518 534 518 534 518 474 c 259,9,10
 518 434 518 434 497 434 c 2,11,-1
 426 434 l 2,12,13
 417 434 417 434 411.5 440 c 128,-1,14
 406 446 406 446 406 454 c 259,15,16
 406 517 406 517 359 532 c 1,17,-1
 359 377 l 1,18,19
 448 347 448 347 488 301.5 c 128,-1,20
 528 256 528 256 528 185 c 259,21,22
 528 109 528 109 480.5 57 c 128,-1,23
 433 5 433 5 359 2 c 1,24,-1
 359 -75 l 1,25,-1
 264 -75 l 1,26,-1
 264 2 l 1,27,28
 190 2 190 2 141.5 55 c 128,-1,29
 93 108 93 108 93 183 c 259,30,31
 93 210 93 210 113 210 c 2,32,-1
 182 210 l 2,33,34
 191 210 191 210 197.5 202 c 128,-1,35
 204 194 204 194 204 184 c 259,36,37
 204 123 204 123 264 106 c 1,38,-1
 264 285 l 1,39,40
 174 304 174 304 133 346 c 128,-1,41
 92 388 92 388 92 457 c 259,0,1
265 400 m 1,42,-1
 265 535 l 1,43,44
 235 530 235 530 218.5 510 c 128,-1,45
 202 490 202 490 202 461 c 259,46,47
 202 443 202 443 220 425 c 128,-1,48
 238 407 238 407 265 400 c 1,42,-1
359 264 m 1,49,-1
 359 104 l 1,50,51
 414 116 414 116 414 186 c 259,52,53
 414 240 414 240 359 264 c 1,49,-1
EndSplineSet
EndChar

StartChar: percent
Encoding: 37 37 6
Width: 697
Flags: W
HStem: -8 61<509.936 578.064> 0 21G<95 226.686> 308 61<509.936 578.064> 322 61<145.936 214.064> 638 61<145.936 214.064>
VStem: 41 86<399.649 620.125> 95 120<0 120> 233 86<399.525 620.125> 405 86<69.6489 290.125> 507 117<583 700> 597 86<69.5248 290.125>
DStem2: 95 0 215 0 0.507235 0.861808<60.8682 812.246>
LayerCount: 3
Back
SplineSet
41 510 m 0x1f80
 41 607 81 699 178 699 c 0
 276 699 317 607 317 510 c 0
 317 415 277 322 178 322 c 0
 81 322 41 417 41 510 c 0x1f80
231 507 m 0
 231 565 234 642 178 642 c 0
 123 642 126 549 126 510 c 0
 126 477 124 383 178 383 c 0
 235 383 231 469 231 507 c 0
406 182 m 0
 406 276 446 369 544 369 c 0
 642 369 684 279 684 182 c 0
 684 86 642 -8 544 -8 c 0xaf80
 446 -8 406 87 406 182 c 0
544 311 m 0
 489 311 492 219 492 182 c 0
 492 147 490 54 544 54 c 0
 599 54 598 139 598 176 c 0
 598 215 602 311 544 311 c 0
507 700 m 1
 624 700 l 1
 215 0 l 1
 95 0 l 1x4f80
 507 700 l 1
EndSplineSet
Fore
SplineSet
405 180 m 3xa9a0
 405 295 459 369 544 369 c 3
 629 369 683 295 683 180 c 3
 683 65 629 -8 544 -8 c 3
 459 -8 405 65 405 180 c 3xa9a0
597 180 m 3
 597 265 579 308 544 308 c 3
 509 308 491 265 491 180 c 3
 491 95 509 53 544 53 c 3
 579 53 597 94 597 180 c 3
41 510 m 3x1d80
 41 625 95 699 180 699 c 3
 265 699 319 625 319 510 c 3
 319 395 265 322 180 322 c 3
 95 322 41 395 41 510 c 3x1d80
233 510 m 3
 233 595 215 638 180 638 c 3
 145 638 127 595 127 510 c 3
 127 425 145 383 180 383 c 3
 215 383 233 424 233 510 c 3
507 700 m 1x4bc0
 624 700 l 1
 215 0 l 1
 95 0 l 1
 507 700 l 1x4bc0
EndSplineSet
Layer: 2
SplineSet
405 180 m 259,0,1
 405 266 405 266 442.5 317.5 c 128,-1,2
 480 369 480 369 544 369 c 259,3,4
 608 369 608 369 645.5 317.5 c 128,-1,5
 683 266 683 266 683 180 c 259,6,7
 683 94 683 94 645.5 43 c 128,-1,8
 608 -8 608 -8 544 -8 c 259,9,10
 480 -8 480 -8 442.5 43 c 128,-1,11
 405 94 405 94 405 180 c 259,0,1
597 180 m 259,12,13
 597 308 597 308 544 308 c 259,14,15
 491 308 491 308 491 180 c 259,16,17
 491 53 491 53 544 53 c 259,18,19
 597 53 597 53 597 180 c 259,12,13
41 510 m 259,20,21
 41 596 41 596 78.5 647.5 c 128,-1,22
 116 699 116 699 180 699 c 259,23,24
 244 699 244 699 281.5 647.5 c 128,-1,25
 319 596 319 596 319 510 c 259,26,27
 319 424 319 424 281.5 373 c 128,-1,28
 244 322 244 322 180 322 c 259,29,30
 116 322 116 322 78.5 373 c 128,-1,31
 41 424 41 424 41 510 c 259,20,21
233 510 m 259,32,33
 233 638 233 638 180 638 c 259,34,35
 127 638 127 638 127 510 c 259,36,37
 127 383 127 383 180 383 c 259,38,39
 233 383 233 383 233 510 c 259,32,33
507 700 m 1,40,-1
 624 700 l 1,41,-1
 215 0 l 1,42,-1
 95 0 l 1,43,-1
 507 700 l 1,40,-1
EndSplineSet
EndChar

StartChar: ampersand
Encoding: 38 38 7
Width: 717
Flags: W
HStem: -5 100<216.016 381.875 602.444 683.392> 616 100<272.891 380.398>
VStem: 31 118<160.093 277.001> 134 118<492.022 595.04> 410 118<487.264 586.817> 573 106<319.679 374.991>
DStem2: 371 372 270 326 0.672881 -0.739751<0 188.147>
LayerCount: 3
Back
SplineSet
212 394 m 1xb6
 174 443 136 492 136 552 c 0
 136 659 228 707 328 707 c 0
 432 707 512 651 512 540 c 0
 512 460 466 412 371 372 c 1
 500 235 l 1
 544 288 563 342 573 389 c 1
 679 374 l 1
 661 299 622 228 566 155 c 1
 599 117 614 100 661 100 c 0
 668 100 684 101 684 101 c 1
 684 8 l 1
 667 3 651 0 635 0 c 0x6e
 576 0 535 18 489 81 c 1
 412 14 353 -8 271 -8 c 0
 213 -8 153 3 107 38 c 0
 60 75 31 152 31 219 c 0
 31 314 101 351 212 394 c 1xb6
331 635 m 0
 296 635 250 612 250 556 c 0
 250 500 303 466 330 429 c 1
 377 449 426 478 426 540 c 0
 426 601 380 635 331 635 c 0
162 226 m 0xb6
 162 153 217 87 291 87 c 0
 336 87 380 107 431 149 c 1
 270 326 l 1
 204 315 162 279 162 226 c 0xb6
EndSplineSet
Fore
SplineSet
200 409 m 1xec
 150 476 134 510 134 552 c 3xdc
 134 649 214 716 328 716 c 3
 442 716 528 644 528 540 c 3
 528 469 483 419 371 372 c 1
 500 235 l 1
 538 280 561 332 573 389 c 1
 679 374 l 1
 661 299 622 228 566 155 c 1
 607 106 623 95 661 95 c 3
 668 95 675 95 684 96 c 1
 684 3 l 1
 667 -2 651 -5 635 -5 c 3
 576 -5 535 18 489 81 c 1
 417 18 359 -5 271 -5 c 3
 114 -5 31 76 31 219 c 3
 31 308 80 362 200 409 c 1xec
331 616 m 3
 286 616 252 586 252 547 c 3
 252 518 267 493 318 444 c 1
 379 470 410 500 410 531 c 3
 410 576 372 616 331 616 c 3
149 226 m 3xec
 149 153 217 95 291 95 c 3
 341 95 388 113 431 149 c 1
 270 326 l 1
 197 314 149 275 149 226 c 3xec
EndSplineSet
Layer: 2
SplineSet
200 409 m 1,0,1
 162 459 162 459 148 490 c 128,-1,2
 134 521 134 521 134 552 c 259,3,4
 134 625 134 625 188 670.5 c 128,-1,5
 242 716 242 716 328 716 c 259,6,7
 414 716 414 716 471 666.5 c 128,-1,8
 528 617 528 617 528 540 c 259,9,10
 528 486 528 486 491 446.5 c 128,-1,11
 454 407 454 407 371 372 c 1,12,-1
 500 235 l 1,13,14
 554 299 554 299 573 389 c 1,15,-1
 679 374 l 1,16,17
 654 270 654 270 566 155 c 1,18,19
 597 118 597 118 615 106.5 c 128,-1,20
 633 95 633 95 661 95 c 259,21,22
 675 95 675 95 684 96 c 1,23,-1
 684 3 l 1,24,25
 657 -5 657 -5 635 -5 c 259,26,27
 590 -5 590 -5 556.5 14.5 c 128,-1,28
 523 34 523 34 489 81 c 1,29,30
 435 34 435 34 386 14.5 c 128,-1,31
 337 -5 337 -5 271 -5 c 259,32,33
 154 -5 154 -5 92.5 53 c 128,-1,34
 31 111 31 111 31 219 c 259,35,36
 31 286 31 286 70.5 330 c 128,-1,37
 110 374 110 374 200 409 c 1,0,1
331 616 m 259,38,39
 297 616 297 616 274.5 596 c 128,-1,40
 252 576 252 576 252 547 c 259,41,42
 252 525 252 525 266 502.5 c 128,-1,43
 280 480 280 480 318 444 c 1,44,45
 410 483 410 483 410 531 c 259,46,47
 410 565 410 565 386 590.5 c 128,-1,48
 362 616 362 616 331 616 c 259,38,39
149 226 m 259,49,50
 149 172 149 172 192 133.5 c 128,-1,51
 235 95 235 95 291 95 c 259,52,53
 366 95 366 95 431 149 c 1,54,-1
 270 326 l 1,55,56
 215 317 215 317 182 290 c 128,-1,57
 149 263 149 263 149 226 c 259,49,50
EndSplineSet
EndChar

StartChar: quotesingle
Encoding: 39 39 8
Width: 298
Flags: W
HStem: 489 242<136 162>
VStem: 100 99<588.73 731>
LayerCount: 3
Fore
SplineSet
162 489 m 1
 136 489 l 1
 100 612 l 1
 100 731 l 1
 199 731 l 1
 199 612 l 1
 162 489 l 1
EndSplineSet
Validated: 1
Layer: 2
SplineSet
162 489 m 1,0,-1
 136 489 l 1,1,-1
 100 612 l 1,2,-1
 100 731 l 1,3,-1
 199 731 l 1,4,-1
 199 612 l 1,5,-1
 162 489 l 1,0,-1
EndSplineSet
EndChar

StartChar: parenleft
Encoding: 40 40 9
Width: 378
Flags: W
VStem: 57 107<96.2531 469.592>
LayerCount: 3
Back
SplineSet
157 276 m 0
 157 124 193 -34 259 -167 c 1
 190 -167 l 1
 107 -37 57 120 57 281 c 0
 57 441 104 604 193 731 c 1
 262 731 l 1
 190 592 157 435 157 276 c 0
EndSplineSet
Fore
SplineSet
164 276 m 3
 164 124 200 -34 266 -167 c 1
 190 -167 l 1
 107 -37 57 120 57 281 c 3
 57 450 104 604 193 731 c 1
 269 731 l 1
 197 592 164 435 164 276 c 3
EndSplineSet
Layer: 2
SplineSet
164 276 m 259,0,1
 164 39 164 39 266 -167 c 1,2,-1
 190 -167 l 1,3,4
 57 41 57 41 57 281 c 259,5,6
 57 537 57 537 193 731 c 1,7,-1
 269 731 l 1,8,9
 164 528 164 528 164 276 c 259,0,1
EndSplineSet
EndChar

StartChar: parenright
Encoding: 41 41 10
Width: 378
Flags: W
VStem: 172 107<99.8758 469.592>
LayerCount: 3
Back
SplineSet
146 -167 m 1
 78 -167 l 1
 144 -34 179 124 179 276 c 0
 179 435 147 592 75 731 c 1
 143 731 l 1
 231 604 279 441 279 281 c 0
 279 120 228 -37 146 -167 c 1
EndSplineSet
Fore
SplineSet
146 -167 m 1
 71 -167 l 1
 137 -34 172 124 172 276 c 3
 172 435 140 592 68 731 c 1
 143 731 l 1
 231 604 279 450 279 281 c 3
 279 120 228 -37 146 -167 c 1
EndSplineSet
Layer: 2
SplineSet
146 -167 m 1,0,-1
 71 -167 l 1,1,2
 172 37 172 37 172 276 c 259,3,4
 172 530 172 530 68 731 c 1,5,-1
 143 731 l 1,6,7
 279 535 279 535 279 281 c 259,8,9
 279 44 279 44 146 -167 c 1,0,-1
EndSplineSet
EndChar

StartChar: asterisk
Encoding: 42 42 11
Width: 597
Flags: W
VStem: 261 76<590 752>
LayerCount: 3
Back
SplineSet
325 524 m 1xa0
 422 386 l 1
 388 359 l 1
 299 504 l 1
 210 359 l 1
 176 386 l 1
 276 524 l 1
 121 572 l 1
 135 616 l 1
 284 558 l 1xa0
 277 731 l 1
 320 731 l 1xc0
 314 558 l 1
 463 618 l 1
 477 572 l 1
 325 524 l 1xa0
EndSplineSet
Fore
SplineSet
359 512 m 1
 451 382 l 1
 382 327 l 1
 299 463 l 1
 216 327 l 1
 147 382 l 1
 241 512 l 1
 94 558 l 1
 121 644 l 1
 261 590 l 1
 255 752 l 1
 342 752 l 1
 337 590 l 1
 477 647 l 1
 504 558 l 1
 359 512 l 1
EndSplineSet
Validated: 1
Layer: 2
SplineSet
359 512 m 1,0,-1
 451 382 l 1,1,-1
 382 327 l 1,2,-1
 299 463 l 1,3,-1
 216 327 l 1,4,-1
 147 382 l 1,5,-1
 241 512 l 1,6,-1
 94 558 l 1,7,-1
 121 644 l 1,8,-1
 261 590 l 1,9,-1
 255 752 l 1,10,-1
 342 752 l 1,11,-1
 337 590 l 1,12,-1
 477 647 l 1,13,-1
 504 558 l 1,14,-1
 359 512 l 1,0,-1
EndSplineSet
EndChar

StartChar: plus
Encoding: 43 43 12
Width: 565
Flags: W
HStem: 259 100<66 235 342 510>
VStem: 235 107<64 259 359 553>
LayerCount: 3
Back
SplineSet
330 264 m 1
 330 64 l 1
 247 64 l 1
 247 264 l 1
 66 264 l 1
 66 354 l 1
 247 354 l 1
 247 553 l 1
 330 553 l 1
 330 354 l 1
 510 354 l 1
 510 264 l 1
 330 264 l 1
EndSplineSet
Fore
SplineSet
342 259 m 1
 342 64 l 1
 235 64 l 1
 235 259 l 1
 66 259 l 1
 66 359 l 1
 235 359 l 1
 235 553 l 1
 342 553 l 1
 342 359 l 1
 510 359 l 1
 510 259 l 1
 342 259 l 1
EndSplineSet
Validated: 1
Layer: 2
SplineSet
342 259 m 1,0,-1
 342 64 l 1,1,-1
 235 64 l 1,2,-1
 235 259 l 1,3,-1
 66 259 l 1,4,-1
 66 359 l 1,5,-1
 235 359 l 1,6,-1
 235 553 l 1,7,-1
 342 553 l 1,8,-1
 342 359 l 1,9,-1
 510 359 l 1,10,-1
 510 259 l 1,11,-1
 342 259 l 1,0,-1
EndSplineSet
EndChar

StartChar: comma
Encoding: 44 44 13
Width: 252
Flags: W
HStem: -161 51<52 103> 0 159<69.625 132.249>
VStem: 52 154<17.4556 127.033> 133 73<-60.2413 46.6637>
LayerCount: 3
Fore
SplineSet
52 -110 m 1xe0
 107 -103 133 -74 133 -23 c 3xd0
 133 -16 133 -10 132 0 c 1
 79 0 47 30 47 79 c 3
 47 125 78 159 120 159 c 3
 174 159 206 116 206 47 c 3
 206 -64 150 -146 52 -161 c 1
 52 -110 l 1xe0
EndSplineSet
Layer: 2
SplineSet
52 -110 m 1,0,1
 95 -105 95 -105 114 -82 c 128,-1,2
 133 -59 133 -59 133 -23 c 259,3,4
 133 -10 133 -10 132 0 c 1,5,6
 92 0 92 0 69.5 21 c 128,-1,7
 47 42 47 42 47 79 c 259,8,9
 47 114 47 114 68 136.5 c 128,-1,10
 89 159 89 159 120 159 c 259,11,12
 160 159 160 159 183 129 c 128,-1,13
 206 99 206 99 206 47 c 259,14,15
 206 -37 206 -37 165.5 -93.5 c 128,-1,16
 125 -150 125 -150 52 -161 c 1,17,-1
 52 -110 l 1,0,1
EndSplineSet
EndChar

StartChar: hyphen
Encoding: 45 45 14
AltUni2: 002010.ffffffff.0
Width: 455
Flags: W
HStem: 232 100<40 412>
LayerCount: 3
Back
SplineSet
40 241 m 1
 40 322 l 1
 412 322 l 1
 412 241 l 1
 40 241 l 1
EndSplineSet
Fore
SplineSet
40 232 m 1
 40 332 l 1
 412 332 l 1
 412 232 l 1
 40 232 l 1
EndSplineSet
Validated: 1
Layer: 2
SplineSet
40 232 m 1,0,-1
 40 332 l 1,1,-1
 412 332 l 1,2,-1
 412 232 l 1,3,-1
 40 232 l 1,0,-1
EndSplineSet
EndChar

StartChar: period
Encoding: 46 46 15
Width: 217
Flags: W
HStem: 0 147<70.4958 165.504>
VStem: 51 134<18.2873 129.864>
LayerCount: 3
Fore
SplineSet
185 75 m 3
 185 41 164 0 118 0 c 3
 72 0 51 41 51 75 c 3
 51 109 72 147 118 147 c 3
 164 147 185 109 185 75 c 3
EndSplineSet
Layer: 2
SplineSet
185 75 m 259,0,1
 185 46 185 46 167.5 23 c 128,-1,2
 150 0 150 0 118 0 c 259,3,4
 86 0 86 0 68.5 23 c 128,-1,5
 51 46 51 46 51 75 c 259,6,7
 51 103 51 103 68.5 125 c 128,-1,8
 86 147 86 147 118 147 c 259,9,10
 150 147 150 147 167.5 125 c 128,-1,11
 185 103 185 103 185 75 c 259,0,1
EndSplineSet
EndChar

StartChar: slash
Encoding: 47 47 16
Width: 597
Flags: W
HStem: 0 21G<32 172.686> 680 20G<433.2 570>
VStem: 32 129<0 129> 445 125<575 700>
DStem2: 32 0 161 0 0.508149 0.861269<65.5512 812.754>
LayerCount: 3
Fore
SplineSet
445 700 m 1
 570 700 l 1
 161 0 l 1
 32 0 l 1
 445 700 l 1
EndSplineSet
Validated: 1
Layer: 2
SplineSet
445 700 m 1,0,-1
 570 700 l 1,1,-1
 161 0 l 1,2,-1
 32 0 l 1,3,-1
 445 700 l 1,0,-1
EndSplineSet
EndChar

StartChar: zero
Encoding: 48 48 17
Width: 697
Flags: W
HStem: 0 86<294.114 443.886> 614 86<289.86 448.14>
VStem: 81 118<204.481 496.035> 539 118<204.481 496.035>
LayerCount: 3
Back
SplineSet
662 353 m 0
 662 181 613 0 369 0 c 0
 155 0 81 173 81 351 c 0
 81 512 155 700 369 700 c 0
 601 700 662 517 662 353 c 0
374 619 m 0
 242 619 205 468 205 351 c 0
 205 241 236 77 372 77 c 0
 510 77 536 233 536 349 c 0
 536 466 517 619 374 619 c 0
EndSplineSet
Fore
SplineSet
657 351 m 3
 657 137 556 0 369 0 c 3
 182 0 81 137 81 351 c 3
 81 560 188 700 369 700 c 3
 550 700 657 560 657 351 c 3
369 614 m 3
 263 614 199 521 199 351 c 3
 199 181 261 86 369 86 c 3
 477 86 539 181 539 351 c 3
 539 521 475 614 369 614 c 3
EndSplineSet
Layer: 2
SplineSet
657 351 m 259,0,1
 657 188 657 188 582 94 c 128,-1,2
 507 0 507 0 369 0 c 259,3,4
 231 0 231 0 156 94 c 128,-1,5
 81 188 81 188 81 351 c 259,6,7
 81 510 81 510 158 605 c 128,-1,8
 235 700 235 700 369 700 c 259,9,10
 503 700 503 700 580 605 c 128,-1,11
 657 510 657 510 657 351 c 259,0,1
369 614 m 259,12,13
 289 614 289 614 244 545.5 c 128,-1,14
 199 477 199 477 199 351 c 259,15,16
 199 224 199 224 243.5 155 c 128,-1,17
 288 86 288 86 369 86 c 259,18,19
 450 86 450 86 494.5 155 c 128,-1,20
 539 224 539 224 539 351 c 259,21,22
 539 477 539 477 494 545.5 c 128,-1,23
 449 614 449 614 369 614 c 259,12,13
EndSplineSet
EndChar

StartChar: one
Encoding: 49 49 18
Width: 697
Flags: W
HStem: 0 21G<376 494> 680 20G<327 494>
VStem: 376 118<0 622>
LayerCount: 3
Back
SplineSet
376 622 m 1
 339 580 288 528 219 479 c 1
 162 538 l 1
 210 571 308 654 346 700 c 1
 504 700 l 5
 504 0 l 5
 376 0 l 1
 376 622 l 1
EndSplineSet
Fore
SplineSet
376 622 m 1
 339 580 288 528 219 479 c 1
 162 538 l 1
 210 571 308 654 346 700 c 1
 494 700 l 1
 494 0 l 1
 376 0 l 1
 376 622 l 1
EndSplineSet
Validated: 1
Layer: 2
SplineSet
376 622 m 1,0,1
 302 538 302 538 219 479 c 1,2,-1
 162 538 l 1,3,4
 201 565 201 565 260 616 c 128,-1,5
 319 667 319 667 346 700 c 1,6,-1
 494 700 l 1,7,-1
 494 0 l 1,8,-1
 376 0 l 1,9,-1
 376 622 l 1,0,1
EndSplineSet
EndChar

StartChar: two
Encoding: 50 50 19
Width: 697
Flags: W
HStem: 0 86<267 668> 628 86<291.267 479.228>
VStem: 105 118<434.426 566.512> 554 118<461.527 567.937>
LayerCount: 3
Back
SplineSet
394 714 m 0
 580 714 672 602 672 511 c 0
 672 436 612 378 575 354 c 0
 526 322 489 297 452 276 c 0
 395 244 336 205 284 144 c 0
 271 130 267 116 267 98 c 1
 668 98 l 1
 668 0 l 1
 116 0 l 1
 116 83 124 155 182 216 c 0
 250 290 323 328 409 372 c 0
 513 424 552 474 552 517 c 0
 552 580 465 625 382 625 c 0
 290 625 233 572 233 509 c 0
 233 489 239 469 251 445 c 1
 135 400 l 1
 112 434 105 466 105 499 c 0
 105 628 232 714 394 714 c 0
EndSplineSet
Fore
SplineSet
394 714 m 3
 553 714 672 626 672 511 c 3
 672 427 614 369 452 276 c 0
 383 236 324 191 284 144 c 0
 272 129 267 118 267 86 c 1
 668 86 l 1
 668 0 l 1
 116 0 l 1
 116 101 133 163 182 216 c 0
 234 272 305 319 409 372 c 0
 508 422 554 468 554 517 c 3
 554 580 465 628 382 628 c 3
 290 628 223 572 223 509 c 3
 223 489 229 465 241 441 c 1
 135 400 l 1
 112 434 105 466 105 499 c 3
 105 626 226 714 394 714 c 3
EndSplineSet
Layer: 2
SplineSet
394 714 m 259,0,1
 513 714 513 714 592.5 655.5 c 128,-1,2
 672 597 672 597 672 511 c 259,3,4
 672 449 672 449 623.5 398 c 128,-1,5
 575 347 575 347 452 276 c 256,6,7
 342 212 342 212 284 144 c 0,8,9
 267 123 267 123 267 86 c 1,10,-1
 668 86 l 1,11,-1
 668 0 l 1,12,-1
 116 0 l 1,13,14
 116 77 116 77 131 127 c 128,-1,15
 146 177 146 177 182 216 c 0,16,17
 253 293 253 293 409 372 c 256,18,19
 554 445 554 445 554 517 c 259,20,21
 554 563 554 563 500.5 595.5 c 128,-1,22
 447 628 447 628 382 628 c 259,23,24
 314 628 314 628 268.5 592.5 c 128,-1,25
 223 557 223 557 223 509 c 259,26,27
 223 477 223 477 241 441 c 1,28,-1
 135 400 l 1,29,30
 105 444 105 444 105 499 c 259,31,32
 105 594 105 594 186.5 654 c 128,-1,33
 268 714 268 714 394 714 c 259,0,1
EndSplineSet
EndChar

StartChar: three
Encoding: 51 51 20
Width: 697
Flags: W
HStem: -8 86<287.44 490.807> 326 82<322 477.817> 620 86<308.961 491.025>
VStem: 101 118<139.71 212> 126 118<501 561.641> 538 118<456.105 575.331> 561 118<139.63 272.28>
LayerCount: 3
Back
SplineSet
679 195 m 0xe2
 679 51 535 -8 392 -8 c 0
 241 -8 101 51 101 212 c 1
 227 212 l 1
 227 108 310 76 389 76 c 0
 468 76 547 114 547 205 c 0xf2
 547 314 442 326 354 326 c 2
 322 326 l 1
 322 412 l 1
 343 412 361 408 377 408 c 0
 398 408 539 416 539 510 c 0
 539 551 518 618 396 618 c 0
 292 618 248 552 248 501 c 1
 126 501 l 1
 126 644 263 706 407 706 c 0
 589 706 656 596 656 515 c 0xec
 656 432 584 393 524 377 c 1
 524 368 l 1
 593 358 679 299 679 195 c 0xe2
EndSplineSet
Fore
SplineSet
679 195 m 3xe2
 679 73 567 -8 392 -8 c 3
 210 -8 101 72 101 212 c 1
 219 212 l 1
 219 127 281 78 389 78 c 3
 490 78 561 127 561 205 c 3xf2
 561 287 496 326 354 326 c 2
 322 326 l 1
 322 412 l 1
 343 410 364 408 377 408 c 3
 473 408 538 451 538 510 c 3
 538 582 486 620 396 620 c 3
 311 620 244 570 244 501 c 1
 126 501 l 1
 126 627 235 706 407 706 c 3
 555 706 656 627 656 515 c 3xec
 656 450 611 400 524 377 c 1
 524 368 l 1
 610 356 679 285 679 195 c 3xe2
EndSplineSet
Layer: 2
SplineSet
679 195 m 259,0,1
 679 103 679 103 601 47.5 c 128,-1,2
 523 -8 523 -8 392 -8 c 259,3,4
 255 -8 255 -8 178 49.5 c 128,-1,5
 101 107 101 107 101 212 c 1,6,-1
 219 212 l 1,7,8
 219 148 219 148 263.5 113 c 128,-1,9
 308 78 308 78 389 78 c 259,10,11
 466 78 466 78 513.5 112.5 c 128,-1,12
 561 147 561 147 561 205 c 259,13,14
 561 267 561 267 510.5 296.5 c 128,-1,15
 460 326 460 326 354 326 c 2,16,-1
 322 326 l 1,17,-1
 322 412 l 1,18,19
 364 408 364 408 377 408 c 259,20,21
 448 408 448 408 493 436.5 c 128,-1,22
 538 465 538 465 538 510 c 259,23,24
 538 564 538 564 501 592 c 128,-1,25
 464 620 464 620 396 620 c 259,26,27
 332 620 332 620 288 586 c 128,-1,28
 244 552 244 552 244 501 c 1,29,-1
 126 501 l 1,30,31
 126 595 126 595 202 650.5 c 128,-1,32
 278 706 278 706 407 706 c 259,33,34
 518 706 518 706 587 652.5 c 128,-1,35
 656 599 656 599 656 515 c 259,36,37
 656 466 656 466 622.5 430 c 128,-1,38
 589 394 589 394 524 377 c 1,39,-1
 524 368 l 1,40,41
 590 359 590 359 634.5 310 c 128,-1,42
 679 261 679 261 679 195 c 259,0,1
EndSplineSet
EndChar

StartChar: four
Encoding: 52 52 21
Width: 697
Flags: W
HStem: 0 21G<463 581> 175 86<189 462 581 700> 680 20G<406.497 580>
VStem: 462 118<0 175 261 607>
LayerCount: 3
Back
SplineSet
587 178 m 1
 587 0 l 1
 458 0 l 1
 458 178 l 1
 69 178 l 1
 69 271 l 1
 418 700 l 1
 586 700 l 1
 586 261 l 1
 700 261 l 1
 700 178 l 1
 587 178 l 1
457 607 m 1
 189 261 l 1
 457 261 l 1
 457 607 l 1
EndSplineSet
Fore
SplineSet
581 175 m 1
 581 0 l 1
 463 0 l 1
 463 175 l 1
 69 175 l 1
 69 271 l 1
 423 700 l 1
 580 700 l 1
 580 261 l 1
 700 261 l 1
 700 175 l 1
 581 175 l 1
462 607 m 1
 189 261 l 1
 462 261 l 1
 462 607 l 1
EndSplineSet
Validated: 1
Layer: 2
SplineSet
581 175 m 1,0,-1
 581 0 l 1,1,-1
 463 0 l 1,2,-1
 463 175 l 1,3,-1
 69 175 l 1,4,-1
 69 271 l 1,5,-1
 423 700 l 1,6,-1
 580 700 l 1,7,-1
 580 261 l 1,8,-1
 700 261 l 1,9,-1
 700 175 l 1,10,-1
 581 175 l 1,0,-1
462 607 m 1,11,-1
 189 261 l 1,12,-1
 462 261 l 1,13,-1
 462 607 l 1,11,-1
EndSplineSet
EndChar

StartChar: five
Encoding: 53 53 22
Width: 697
Flags: W
HStem: -12 86<299.37 490.874> 404 86<318.493 483.741> 614 86<275 638>
VStem: 118 123<64 187> 564 118<146.658 325.086>
DStem2: 121 317 248 432 0.142145 0.989846<131.885 315.875>
LayerCount: 3
Back
SplineSet
441 499 m 0
 614 499 688 379 688 226 c 0
 688 84 604 -12 403 -12 c 0
 150 -12 130 124 118 187 c 1
 247 187 l 1
 259 106 313 77 394 77 c 0
 530 77 564 161 564 243 c 0
 564 344 487 396 403 396 c 0
 343 396 280 370 239 317 c 1
 121 317 l 1
 176 700 l 1
 638 700 l 1
 651 604 l 1
 281 604 l 1
 248 432 l 1
 289 454 329 499 441 499 c 0
EndSplineSet
Fore
SplineSet
441 490 m 3
 595 490 682 394 682 226 c 3
 682 76 589 -12 403 -12 c 3
 226 -12 138 51 118 187 c 1
 241 187 l 1
 252 113 301 74 394 74 c 3
 508 74 564 134 564 243 c 3
 564 335 496 404 403 404 c 3
 343 404 280 370 239 317 c 1
 121 317 l 1
 176 700 l 1
 638 700 l 1
 651 614 l 1
 275 614 l 1
 248 432 l 1
 333 481 364 490 441 490 c 3
EndSplineSet
Layer: 2
SplineSet
441 490 m 259,0,1
 556 490 556 490 619 421 c 128,-1,2
 682 352 682 352 682 226 c 259,3,4
 682 112 682 112 611.5 50 c 128,-1,5
 541 -12 541 -12 403 -12 c 259,6,7
 271 -12 271 -12 202 36.5 c 128,-1,8
 133 85 133 85 118 187 c 1,9,-1
 241 187 l 1,10,11
 249 133 249 133 286 103.5 c 128,-1,12
 323 74 323 74 394 74 c 259,13,14
 478 74 478 74 521 117 c 128,-1,15
 564 160 564 160 564 243 c 259,16,17
 564 312 564 312 518.5 358 c 128,-1,18
 473 404 473 404 403 404 c 259,19,20
 358 404 358 404 314 380.5 c 128,-1,21
 270 357 270 357 239 317 c 1,22,-1
 121 317 l 1,23,-1
 176 700 l 1,24,-1
 638 700 l 1,25,-1
 651 614 l 1,26,-1
 275 614 l 1,27,-1
 248 432 l 1,28,29
 312 469 312 469 347.5 479.5 c 128,-1,30
 383 490 383 490 441 490 c 259,0,1
EndSplineSet
EndChar

StartChar: six
Encoding: 54 54 23
Width: 697
Flags: W
HStem: -12 86<311.182 486.902> 379 86<319.453 485.692> 627 86<319.68 502.493>
VStem: 110 135<174.567 412.391> 110 118<385 492.781> 556 118<139.136 310.72>
LayerCount: 3
Back
SplineSet
413 -12 m 0
 167 -12 108 157 108 332 c 0
 108 647 292 713 415 713 c 0
 532 713 628 672 664 553 c 1
 550 553 l 1
 522 610 475 631 408 631 c 0
 340 631 239 592 239 385 c 1
 286 427 335 461 424 461 c 0
 584 461 676 367 676 227 c 0
 676 99 595 -12 413 -12 c 0
402 383 m 0
 306 383 245 319 245 230 c 0
 245 142 292 74 399 74 c 0
 507 74 556 142 556 224 c 0
 556 333 480 383 402 383 c 0
EndSplineSet
Fore
SplineSet
413 -12 m 3xec
 213 -12 110 105 110 332 c 3xf4
 110 572 219 713 410 713 c 3
 546 713 632 660 664 553 c 1
 550 553 l 1
 522 610 470 627 403 627 c 3
 291 627 228 540 228 385 c 1
 288 439 354 465 424 465 c 3
 577 465 674 375 674 227 c 3
 674 82 578 -12 413 -12 c 3xec
402 379 m 3
 306 379 245 319 245 230 c 3
 245 130 304 74 399 74 c 3
 497 74 556 131 556 224 c 3
 556 319 497 379 402 379 c 3
EndSplineSet
Layer: 2
SplineSet
413 -12 m 259,0,1
 263 -12 263 -12 186.5 75 c 128,-1,2
 110 162 110 162 110 332 c 259,3,4
 110 512 110 512 188.5 612.5 c 128,-1,5
 267 713 267 713 410 713 c 259,6,7
 616 713 616 713 664 553 c 1,8,-1
 550 553 l 1,9,10
 514 627 514 627 403 627 c 259,11,12
 319 627 319 627 273.5 564 c 128,-1,13
 228 501 228 501 228 385 c 1,14,15
 317 465 317 465 424 465 c 259,16,17
 539 465 539 465 606.5 401.5 c 128,-1,18
 674 338 674 338 674 227 c 259,19,20
 674 117 674 117 605 52.5 c 128,-1,21
 536 -12 536 -12 413 -12 c 259,0,1
402 379 m 259,22,23
 330 379 330 379 287.5 338 c 128,-1,24
 245 297 245 297 245 230 c 259,25,26
 245 156 245 156 286 115 c 128,-1,27
 327 74 327 74 399 74 c 259,28,29
 472 74 472 74 514 114 c 128,-1,30
 556 154 556 154 556 224 c 259,31,32
 556 295 556 295 514.5 337 c 128,-1,33
 473 379 473 379 402 379 c 259,22,23
EndSplineSet
EndChar

StartChar: seven
Encoding: 55 55 24
Width: 697
Flags: W
HStem: 0 21G<231 376> 614 86<132 549>
VStem: 231 145<0 136.053>
LayerCount: 3
Back
SplineSet
423 253 m 0
 388 158 376 92.5 376 0 c 1
 231 0 l 1
 231 97.5 273 224 337 339 c 0
 391 435 466 530 552 615 c 1
 132 615 l 1
 132 700 l 1
 661 700 l 1
 661 607 l 1
 559 513 471 376 423 253 c 0
EndSplineSet
Fore
SplineSet
376 0 m 1
 231 0 l 1
 231 98 273 224 337 339 c 0
 391 435 463 529 549 614 c 1
 132 614 l 1
 132 700 l 1
 661 700 l 1
 661 607 l 1
 570 523 490 406 440 294 c 0
 398 201 376 102 376 0 c 1
EndSplineSet
Layer: 2
SplineSet
376 0 m 1,0,-1
 231 0 l 1,1,2
 231 149 231 149 337 339 c 0,3,4
 420 486 420 486 549 614 c 1,5,-1
 132 614 l 1,6,-1
 132 700 l 1,7,-1
 661 700 l 1,8,-1
 661 607 l 1,9,10
 523 479 523 479 440 294 c 0,11,12
 376 152 376 152 376 0 c 1,0,-1
EndSplineSet
EndChar

StartChar: eight
Encoding: 56 56 25
Width: 697
Flags: W
HStem: -6 86<298.051 480.143> 349 86<305.714 472.538> 619 86<304.925 473.075>
VStem: 110 118<145.57 289.068> 142 118<475.577 577.879> 518 118<475.577 577.879> 551 118<145.57 289.068>
LayerCount: 3
Back
SplineSet
389 705 m 0xe8
 515 705 636 665 636 544 c 0xec
 636 465 584 421 510 408 c 1
 512 385 l 1
 552 377 665 344 665 212 c 0
 665 90 580 -6 397 -6 c 0
 164 -6 110 128 110 217 c 0xf2
 110 348 244 380 277 385 c 1
 277 408 l 1
 202 417 142 463 142 543 c 0
 142 673 291 705 389 705 c 0xe8
547 207 m 0xf2
 547 265 516 348 388 348 c 0
 258 348 228 263 228 211 c 0
 228 140 288 67 394 67 c 0
 495 67 547 137 547 207 c 0xf2
518 537 m 0xec
 518 619 453 639 389 639 c 0
 333 639 260 618 260 536 c 0
 260 478 309 435 386 435 c 0
 478 435 518 476 518 537 c 0xec
EndSplineSet
Fore
SplineSet
389 705 m 3xe8
 537 705 636 638 636 543 c 3xec
 636 474 593 423 501 392 c 1
 615 357 669 301 669 217 c 3
 669 83 565 -6 389 -6 c 3
 213 -6 110 83 110 217 c 3xf2
 110 301 163 357 277 392 c 1
 185 423 142 474 142 543 c 3
 142 638 241 705 389 705 c 3xe8
551 217 m 3xf2
 551 301 485 349 389 349 c 3
 293 349 228 301 228 217 c 3
 228 138 291 80 389 80 c 3
 487 80 551 138 551 217 c 3xf2
518 527 m 3xec
 518 578 466 619 389 619 c 3
 312 619 260 578 260 527 c 3
 260 476 312 435 389 435 c 3
 466 435 518 476 518 527 c 3xec
EndSplineSet
Layer: 2
SplineSet
389 705 m 259,0,1
 499 705 499 705 567.5 660 c 128,-1,2
 636 615 636 615 636 543 c 259,3,4
 636 437 636 437 501 392 c 1,5,6
 669 340 669 340 669 217 c 259,7,8
 669 115 669 115 594.5 54.5 c 128,-1,9
 520 -6 520 -6 389 -6 c 259,10,11
 258 -6 258 -6 184 54.5 c 128,-1,12
 110 115 110 115 110 217 c 259,13,14
 110 341 110 341 277 392 c 1,15,16
 142 437 142 437 142 543 c 259,17,18
 142 615 142 615 210.5 660 c 128,-1,19
 279 705 279 705 389 705 c 259,0,1
551 217 m 259,20,21
 551 279 551 279 506.5 314 c 128,-1,22
 462 349 462 349 389 349 c 259,23,24
 316 349 316 349 272 314 c 128,-1,25
 228 279 228 279 228 217 c 259,26,27
 228 157 228 157 272 118.5 c 128,-1,28
 316 80 316 80 389 80 c 259,29,30
 462 80 462 80 506.5 118.5 c 128,-1,31
 551 157 551 157 551 217 c 259,20,21
518 527 m 259,32,33
 518 566 518 566 482 592.5 c 128,-1,34
 446 619 446 619 389 619 c 259,35,36
 332 619 332 619 296 592.5 c 128,-1,37
 260 566 260 566 260 527 c 259,38,39
 260 488 260 488 296 461.5 c 128,-1,40
 332 435 332 435 389 435 c 259,41,42
 446 435 446 435 482 461.5 c 128,-1,43
 518 488 518 488 518 527 c 259,32,33
EndSplineSet
EndChar

StartChar: nine
Encoding: 57 57 26
Width: 697
Flags: W
HStem: -8 86<283.426 454.138> 246 86<297.576 472.238> 624 86<295.115 473.763>
VStem: 113 118<397.218 561.192> 538 135<302.117 534.037> 555 118<220.234 337>
LayerCount: 3
Back
SplineSet
673 384 m 0xf8
 673 205 605 -8 371 -8 c 0
 179 -8 139 103 126 144 c 1
 233 144 l 1
 260 87 309 66 375 66 c 0
 486 66 558 185 558 337 c 1xf4
 541 315 495 248 366 248 c 0
 208 248 113 336 113 475 c 0
 113 600 193 710 370 710 c 0
 612 710 673 558 673 384 c 0xf8
540 473 m 0xf8
 540 538 510 628 388 628 c 0
 277 628 230 559 230 478 c 0
 230 377 307 328 384 328 c 0
 462 328 540 378 540 473 c 0xf8
EndSplineSet
Fore
SplineSet
673 384 m 3xf8
 673 141 561 -8 371 -8 c 3
 244 -8 161 46 126 156 c 1
 233 156 l 1
 260 99 309 78 375 78 c 3
 486 78 555 185 555 337 c 1xf4
 504 271 451 246 366 246 c 3
 208 246 113 336 113 475 c 3
 113 620 212 710 370 710 c 3
 575 710 673 600 673 384 c 3xf8
538 475 m 3xf8
 538 569 483 624 385 624 c 3
 287 624 231 569 231 475 c 3
 231 389 292 332 385 332 c 3
 478 332 538 389 538 475 c 3xf8
EndSplineSet
Layer: 2
SplineSet
673 384 m 259,0,1
 673 201 673 201 593 96.5 c 128,-1,2
 513 -8 513 -8 371 -8 c 259,3,4
 178 -8 178 -8 126 156 c 1,5,-1
 233 156 l 1,6,7
 270 78 270 78 375 78 c 259,8,9
 457 78 457 78 506 150 c 128,-1,10
 555 222 555 222 555 337 c 1,11,12
 517 288 517 288 473.5 267 c 128,-1,13
 430 246 430 246 366 246 c 259,14,15
 248 246 248 246 180.5 308 c 128,-1,16
 113 370 113 370 113 475 c 259,17,18
 113 584 113 584 182 647 c 128,-1,19
 251 710 251 710 370 710 c 259,20,21
 521 710 521 710 597 629 c 128,-1,22
 673 548 673 548 673 384 c 259,0,1
538 475 m 259,23,24
 538 546 538 546 498 585 c 128,-1,25
 458 624 458 624 385 624 c 259,26,27
 312 624 312 624 271.5 585 c 128,-1,28
 231 546 231 546 231 475 c 259,29,30
 231 410 231 410 273 371 c 128,-1,31
 315 332 315 332 385 332 c 259,32,33
 455 332 455 332 496.5 371 c 128,-1,34
 538 410 538 410 538 475 c 259,23,24
EndSplineSet
EndChar

StartChar: colon
Encoding: 58 58 27
Width: 294
Flags: W
HStem: 2 145<93.9268 190.714> 383 146<93.9268 190.714>
VStem: 75 133<20.71 128.697 401.626 509.883>
LayerCount: 3
Fore
SplineSet
208 455 m 3
 208 422 189 383 143 383 c 3
 97 383 75 422 75 455 c 3
 75 489 97 529 143 529 c 3
 189 529 208 489 208 455 c 3
208 75 m 3
 208 41 189 2 143 2 c 3
 97 2 75 41 75 75 c 3
 75 109 97 147 143 147 c 3
 189 147 208 109 208 75 c 3
EndSplineSet
Layer: 2
SplineSet
208 455 m 259,0,1
 208 427 208 427 191.5 405 c 128,-1,2
 175 383 175 383 143 383 c 259,3,4
 111 383 111 383 93 405 c 128,-1,5
 75 427 75 427 75 455 c 259,6,7
 75 484 75 484 93 506.5 c 128,-1,8
 111 529 111 529 143 529 c 259,9,10
 175 529 175 529 191.5 506.5 c 128,-1,11
 208 484 208 484 208 455 c 259,0,1
208 75 m 259,12,13
 208 46 208 46 191.5 24 c 128,-1,14
 175 2 175 2 143 2 c 259,15,16
 111 2 111 2 93 24.5 c 128,-1,17
 75 47 75 47 75 75 c 259,18,19
 75 103 75 103 93 125 c 128,-1,20
 111 147 111 147 143 147 c 259,21,22
 175 147 175 147 191.5 125.5 c 128,-1,23
 208 104 208 104 208 75 c 259,12,13
EndSplineSet
EndChar

StartChar: semicolon
Encoding: 59 59 28
Width: 320
Flags: W
HStem: -161 51<79 130> 0 159<96.625 159.249> 379 145<98.38 196.073>
VStem: 80 135<397.303 504.967> 160 73<-60.2413 46.6637>
LayerCount: 3
Fore
SplineSet
79 -110 m 1xe8
 134 -103 160 -74 160 -23 c 3
 160 -16 160 -10 159 0 c 1
 106 0 74 30 74 79 c 3
 74 125 105 159 147 159 c 3
 201 159 233 116 233 47 c 3
 233 -64 177 -146 79 -161 c 1
 79 -110 l 1xe8
215 451 m 3xf0
 215 417 193 379 147 379 c 3
 101 379 80 417 80 451 c 3
 80 484 101 524 147 524 c 3
 193 524 215 484 215 451 c 3xf0
EndSplineSet
Layer: 2
SplineSet
79 -110 m 1,0,1
 122 -105 122 -105 141 -82 c 128,-1,2
 160 -59 160 -59 160 -23 c 259,3,4
 160 -10 160 -10 159 0 c 1,5,6
 119 0 119 0 96.5 21 c 128,-1,7
 74 42 74 42 74 79 c 259,8,9
 74 114 74 114 95 136.5 c 128,-1,10
 116 159 116 159 147 159 c 259,11,12
 187 159 187 159 210 129 c 128,-1,13
 233 99 233 99 233 47 c 259,14,15
 233 -37 233 -37 192.5 -93.5 c 128,-1,16
 152 -150 152 -150 79 -161 c 1,17,-1
 79 -110 l 1,0,1
215 451 m 259,18,19
 215 423 215 423 197 401 c 128,-1,20
 179 379 179 379 147 379 c 259,21,22
 115 379 115 379 97.5 401 c 128,-1,23
 80 423 80 423 80 451 c 259,24,25
 80 479 80 479 97.5 501.5 c 128,-1,26
 115 524 115 524 147 524 c 259,27,28
 179 524 179 524 197 501.5 c 128,-1,29
 215 479 215 479 215 451 c 259,18,19
EndSplineSet
EndChar

StartChar: less
Encoding: 60 60 29
Width: 597
Flags: W
DStem2: 74 351 173 299 0.927049 0.37494<72.281 448.667> 173 299 74 247 0.925612 -0.378473<0 377.119>
LayerCount: 3
Fore
SplineSet
74 247 m 1
 74 351 l 1
 524 533 l 1
 524 435 l 1
 173 299 l 1
 524 161 l 1
 524 63 l 1
 74 247 l 1
EndSplineSet
Validated: 1
Layer: 2
SplineSet
74 247 m 1,0,-1
 74 351 l 1,1,-1
 524 533 l 1,2,-1
 524 435 l 1,3,-1
 173 299 l 1,4,-1
 524 161 l 1,5,-1
 524 63 l 1,6,-1
 74 247 l 1,0,-1
EndSplineSet
EndChar

StartChar: equal
Encoding: 61 61 30
Width: 544
Flags: W
HStem: 138 92<66 497> 402 90<66 497>
LayerCount: 3
Fore
SplineSet
66 402 m 1
 66 492 l 1
 497 492 l 1
 497 402 l 1
 66 402 l 1
66 138 m 1
 66 230 l 1
 497 230 l 1
 497 138 l 1
 66 138 l 1
EndSplineSet
Validated: 1
Layer: 2
SplineSet
66 402 m 1,0,-1
 66 492 l 1,1,-1
 497 492 l 1,2,-1
 497 402 l 1,3,-1
 66 402 l 1,0,-1
66 138 m 1,4,-1
 66 230 l 1,5,-1
 497 230 l 1,6,-1
 497 138 l 1,7,-1
 66 138 l 1,4,-1
EndSplineSet
EndChar

StartChar: greater
Encoding: 62 62 31
Width: 597
Flags: W
DStem2: 74 533 74 435 0.927049 -0.37494<36.7441 411.276> 74 161 74 63 0.925612 0.378473<0 375.268>
LayerCount: 3
Fore
SplineSet
74 63 m 1
 74 161 l 1
 423 299 l 1
 74 435 l 1
 74 533 l 1
 524 351 l 1
 524 247 l 1
 74 63 l 1
EndSplineSet
Validated: 1
Layer: 2
SplineSet
74 63 m 1,0,-1
 74 161 l 1,1,-1
 423 299 l 1,2,-1
 74 435 l 1,3,-1
 74 533 l 1,4,-1
 524 351 l 1,5,-1
 524 247 l 1,6,-1
 74 63 l 1,0,-1
EndSplineSet
EndChar

StartChar: question
Encoding: 63 63 32
Width: 538
Flags: W
HStem: -2 115<222.703 313.867> 369 147<147.935 236.25> 626 81<186.465 317.775>
VStem: 62 81<500.49 583.595> 211 115<9.54661 101.513> 222 81<141 238.699> 365 118<431.323 579.315>
LayerCount: 3
Back
SplineSet
271 707 m 0xf6
 344 707 481 668 481 512 c 0
 481 449 456 381 403 325 c 0
 359 279 305 244 305 173 c 0
 305 167 303 162 303 141 c 1
 222 141 l 1
 222 226 228 234 261 305 c 0
 295 379 368 418 368 511 c 0
 368 585 310 626 252 626 c 0
 182 626 143 570 143 522 c 0
 143 515 144 507 147 500 c 1
 167 511 184 516 199 516 c 0
 239 516 260 481 260 446 c 0
 260 393 213 369 178 369 c 0
 132 369 62 408 62 508 c 0
 62 632 158 707 271 707 c 0xf6
268 113 m 0
 306 113 326 84 326 56 c 0
 326 27 306 -2 268 -2 c 0
 230 -2 211 27 211 56 c 0xfa
 211 84 230 113 268 113 c 0
EndSplineSet
Fore
SplineSet
271 707 m 3xf6
 398 707 483 628 483 512 c 3
 483 445 448 364 403 325 c 0
 333 264 305 221 305 173 c 3
 305 167 305 162 303 141 c 1
 222 141 l 1
 222 239 251 303 300 367 c 0
 351 435 365 464 365 511 c 3
 365 577 318 626 252 626 c 3
 193 626 143 581 143 522 c 3
 143 515 144 507 147 500 c 1
 167 511 184 516 199 516 c 3
 235 516 260 486 260 446 c 3
 260 401 224 369 178 369 c 3
 111 369 62 429 62 508 c 3
 62 626 151 707 271 707 c 3xf6
268 113 m 3
 306 113 326 84 326 56 c 3
 326 27 306 -2 268 -2 c 3
 230 -2 211 27 211 56 c 3xfa
 211 84 230 113 268 113 c 3
EndSplineSet
Layer: 2
SplineSet
271 707 m 259,0,1
 366 707 366 707 424.5 653 c 128,-1,2
 483 599 483 599 483 512 c 259,3,4
 483 462 483 462 460 408 c 128,-1,5
 437 354 437 354 403 325 c 0,6,7
 350 279 350 279 327.5 244 c 128,-1,8
 305 209 305 209 305 173 c 259,9,10
 305 162 305 162 303 141 c 1,11,-1
 222 141 l 1,12,13
 222 265 222 265 300 367 c 0,14,15
 339 419 339 419 352 447.5 c 128,-1,16
 365 476 365 476 365 511 c 259,17,18
 365 561 365 561 333 593.5 c 128,-1,19
 301 626 301 626 252 626 c 259,20,21
 207 626 207 626 175 596 c 128,-1,22
 143 566 143 566 143 522 c 259,23,24
 143 509 143 509 147 500 c 1,25,26
 176 516 176 516 199 516 c 259,27,28
 226 516 226 516 243 496 c 128,-1,29
 260 476 260 476 260 446 c 259,30,31
 260 413 260 413 236.5 391 c 128,-1,32
 213 369 213 369 178 369 c 259,33,34
 128 369 128 369 95 409 c 128,-1,35
 62 449 62 449 62 508 c 259,36,37
 62 596 62 596 121 651.5 c 128,-1,38
 180 707 180 707 271 707 c 259,0,1
268 113 m 259,39,40
 295 113 295 113 310.5 96 c 128,-1,41
 326 79 326 79 326 56 c 259,42,43
 326 33 326 33 310.5 15.5 c 128,-1,44
 295 -2 295 -2 268 -2 c 259,45,46
 241 -2 241 -2 226 15 c 128,-1,47
 211 32 211 32 211 56 c 259,48,49
 211 79 211 79 226 96 c 128,-1,50
 241 113 241 113 268 113 c 259,39,40
EndSplineSet
EndChar

StartChar: at
Encoding: 64 64 33
Width: 784
Flags: W
HStem: -26 80<310.616 522.75> 135 64<487 592.387> 138 95<323.457 403.312> 440 96<338.549 442.307> 644 79<302.632 512.018>
VStem: 56 84<228.793 467.808> 195 104<258.243 396.638> 466 72<216 351> 644 84<273.864 504.341>
LayerCount: 3
Back
SplineSet
512 135 m 0xdf80
 480 135 451 153 451 195 c 1
 411 152 383 138 356 138 c 0xbf80
 274 138 204 215 204 310 c 0
 204 428 276 536 388 536 c 0
 429 536 461 523 501 472 c 1
 510 530 l 1
 590 530 l 1
 562 323 547 245 547 216 c 0
 547 199 552 199 563 199 c 0
 602 199 653 277 653 388 c 0
 653 556 546 644 406 644 c 0
 251 644 149 520 149 349 c 0
 149 167 265 54 422 54 c 0
 487 54 546 80 595 121 c 1
 679 121 l 1
 607 32 535 -26 414 -26 c 0
 198 -26 57 130 57 346 c 0
 57 558 205 723 408 723 c 0
 586 723 728 590 728 420 c 0
 728 340 720 282 677 222 c 0
 630 156 599 135 512 135 c 0xdf80
308 326 m 0
 308 276 334 233 380 233 c 0
 438 233 475 288 475 351 c 0
 475 403 446 440 400 440 c 0
 346 440 308 383 308 326 c 0
EndSplineSet
Fore
SplineSet
503 135 m 3xdf80
 471 135 442 153 442 195 c 1
 402 152 374 138 347 138 c 3xbf80
 265 138 195 215 195 310 c 3
 195 428 267 536 379 536 c 3
 420 536 452 523 492 472 c 1
 501 530 l 1
 581 530 l 1
 542 259 l 2
 539 238 538 225 538 216 c 3
 538 199 543 199 554 199 c 3
 599 199 644 289 644 388 c 3
 644 556 546 644 406 644 c 3
 251 644 140 520 140 349 c 3
 140 167 265 54 422 54 c 3
 487 54 546 80 595 121 c 1
 679 121 l 1
 594 16 522 -26 414 -26 c 3
 198 -26 56 130 56 346 c 3
 56 558 205 723 408 723 c 3
 586 723 728 590 728 420 c 3
 728 240 656 135 503 135 c 3xdf80
299 326 m 3
 299 276 325 233 371 233 c 3
 429 233 466 288 466 351 c 3
 466 403 437 440 391 440 c 3
 337 440 299 383 299 326 c 3
EndSplineSet
Layer: 2
SplineSet
503 135 m 259,0,1
 477 135 477 135 459.5 150 c 128,-1,2
 442 165 442 165 442 195 c 1,3,4
 389 138 389 138 347 138 c 259,5,6
 285 138 285 138 240 188.5 c 128,-1,7
 195 239 195 239 195 310 c 259,8,9
 195 402 195 402 246.5 469 c 128,-1,10
 298 536 298 536 379 536 c 259,11,12
 412 536 412 536 437.5 522.5 c 128,-1,13
 463 509 463 509 492 472 c 1,14,-1
 501 530 l 1,15,-1
 581 530 l 1,16,-1
 542 259 l 2,17,18
 538 231 538 231 538 216 c 259,19,20
 538 204 538 204 541 201.5 c 128,-1,21
 544 199 544 199 554 199 c 259,22,23
 588 199 588 199 616 256.5 c 128,-1,24
 644 314 644 314 644 388 c 259,25,26
 644 511 644 511 579 577.5 c 128,-1,27
 514 644 514 644 406 644 c 259,28,29
 290 644 290 644 215 560.5 c 128,-1,30
 140 477 140 477 140 349 c 259,31,32
 140 216 140 216 220.5 135 c 128,-1,33
 301 54 301 54 422 54 c 259,34,35
 515 54 515 54 595 121 c 1,36,-1
 679 121 l 1,37,38
 615 42 615 42 554.5 8 c 128,-1,39
 494 -26 494 -26 414 -26 c 259,40,41
 253 -26 253 -26 154.5 78 c 128,-1,42
 56 182 56 182 56 346 c 259,43,44
 56 506 56 506 156.5 614.5 c 128,-1,45
 257 723 257 723 408 723 c 259,46,47
 542 723 542 723 635 635 c 128,-1,48
 728 547 728 547 728 420 c 259,49,50
 728 282 728 282 672 208.5 c 128,-1,51
 616 135 616 135 503 135 c 259,0,1
299 326 m 259,52,53
 299 287 299 287 318.5 260 c 128,-1,54
 338 233 338 233 371 233 c 259,55,56
 413 233 413 233 439.5 267.5 c 128,-1,57
 466 302 466 302 466 351 c 259,58,59
 466 390 466 390 445.5 415 c 128,-1,60
 425 440 425 440 391 440 c 259,61,62
 352 440 352 440 325.5 405.5 c 128,-1,63
 299 371 299 371 299 326 c 259,52,53
EndSplineSet
EndChar

StartChar: A
Encoding: 65 65 34
Width: 628
Flags: W
HStem: 0 21G<25 146.733 454.667 584> 150 100<210 392> 680 20G<212.486 396.514>
VStem: 25 116<0 116> 460 124<0 124>
DStem2: 25 0 141 0 0.265797 0.964029<30.8324 186.866 290.18 644.597> 391 700 303 592 0.265797 -0.964029<80.725 434.079 537.924 693.16>
LayerCount: 3
Back
SplineSet
460 0 m 1
 418 152 l 1
 184 152 l 1
 141 0 l 1
 25 0 l 1
 230 700 l 1
 391 700 l 1
 590 0 l 1
 460 0 l 1
303 592 m 1
 210 248 l 1
 392 248 l 1
 303 592 l 1
EndSplineSet
Fore
SplineSet
460 0 m 1
 420 150 l 1
 184 150 l 1
 141 0 l 1
 25 0 l 1
 218 700 l 1
 391 700 l 1
 584 0 l 1
 460 0 l 1
303 592 m 1
 210 250 l 1
 392 250 l 1
 303 592 l 1
EndSplineSet
Validated: 1
Layer: 2
SplineSet
460 0 m 1,0,-1
 420 150 l 1,1,-1
 184 150 l 1,2,-1
 141 0 l 1,3,-1
 25 0 l 1,4,-1
 218 700 l 1,5,-1
 391 700 l 1,6,-1
 584 0 l 1,7,-1
 460 0 l 1,0,-1
303 592 m 1,8,-1
 210 250 l 1,9,-1
 392 250 l 1,10,-1
 303 592 l 1,8,-1
EndSplineSet
EndChar

StartChar: B
Encoding: 66 66 35
Width: 646
Flags: W
HStem: 0 100<201 428.151> 311 100<201 419.663> 600 100<201 424.896>
VStem: 83 118<100 311 411 600> 458 118<446.728 567.988> 472 118<141.157 271.571>
LayerCount: 3
Back
SplineSet
527 37 m 0xf4
 483 2 425 0 365 0 c 2
 83 0 l 1
 83 700 l 1
 365 700 l 2
 414 700 466 701 510 670 c 0
 558 637 582 589 582 526 c 0xf8
 582 454 535 389 457 366 c 1
 455 357 l 1
 544 337 601 265 601 179 c 0
 601 123 570 72 527 37 c 0xf4
415 595 m 0
 388 612 346 608 316 608 c 2
 202 608 l 1
 202 406 l 1
 328 406 l 2
 360 406 394 405 422 428 c 0
 446 448 458 480 458 512 c 0
 458 544 445 577 415 595 c 0
425 299 m 0
 400 316 365 316 337 316 c 2
 202 316 l 1
 202 97 l 1
 330 97 l 2
 363 97 400 97 429 117 c 0
 457 136 472 173 472 210 c 0xf4
 472 245 454 281 425 299 c 0
EndSplineSet
Fore
SplineSet
365 0 m 2xf4
 83 0 l 1
 83 700 l 1
 365 700 l 2
 503 700 576 640 576 526 c 3xf8
 576 454 535 389 457 366 c 1
 455 357 l 1
 544 337 590 265 590 179 c 3
 590 63 510 0 365 0 c 2xf4
316 600 m 2
 201 600 l 1
 201 411 l 1
 328 411 l 2
 416 411 458 445 458 511 c 3
 458 573 418 600 316 600 c 2
337 311 m 2
 201 311 l 1
 201 100 l 1
 330 100 l 2
 426 100 472 134 472 209 c 3xf4
 472 279 430 311 337 311 c 2
EndSplineSet
Layer: 2
SplineSet
365 0 m 2,0,-1
 83 0 l 1,1,-1
 83 700 l 1,2,-1
 365 700 l 2,3,4
 469 700 469 700 522.5 655.5 c 128,-1,5
 576 611 576 611 576 526 c 259,6,7
 576 470 576 470 545 426.5 c 128,-1,8
 514 383 514 383 457 366 c 1,9,-1
 455 357 l 1,10,11
 520 342 520 342 555 294 c 128,-1,12
 590 246 590 246 590 179 c 259,13,14
 590 92 590 92 532 46 c 128,-1,15
 474 0 474 0 365 0 c 2,0,-1
316 600 m 2,16,-1
 201 600 l 1,17,-1
 201 411 l 1,18,-1
 328 411 l 2,19,20
 399 411 399 411 428.5 438 c 128,-1,21
 458 465 458 465 458 511 c 259,22,23
 458 558 458 558 425 579 c 128,-1,24
 392 600 392 600 316 600 c 2,16,-1
337 311 m 2,25,-1
 201 311 l 1,26,-1
 201 100 l 1,27,-1
 330 100 l 2,28,29
 404 100 404 100 438 127 c 128,-1,30
 472 154 472 154 472 209 c 259,31,32
 472 262 472 262 439.5 286.5 c 128,-1,33
 407 311 407 311 337 311 c 2,25,-1
EndSplineSet
EndChar

StartChar: C
Encoding: 67 67 36
Width: 646
Flags: W
HStem: -5 100<269.535 406.479> 616 100<269.044 400.916>
VStem: 51 118<221.925 480.93> 478 117<176.549 227.479>
LayerCount: 3
Back
SplineSet
339 -3 m 0
 152 -3 51 161 51 357 c 0
 51 555 155 716 343 716 c 0
 495 716 573 627 595 471 c 1
 469 461 l 1
 464 538 432 615 339 615 c 0
 225 615 189 446 189 349 c 0
 189 238 232 97 346 97 c 0
 428 97 466 167 478 235 c 1
 595 227 l 1
 573 80 478 -3 339 -3 c 0
EndSplineSet
Fore
SplineSet
329 -5 m 3
 161 -5 51 132 51 357 c 3
 51 576 160 716 333 716 c 3
 485 716 573 627 595 471 c 1
 469 461 l 1
 463 555 411 616 329 616 c 3
 241 616 169 496 169 349 c 3
 169 206 242 95 336 95 c 3
 406 95 463 150 478 235 c 1
 595 227 l 1
 574 86 473 -5 329 -5 c 3
EndSplineSet
Layer: 2
SplineSet
329 -5 m 259,0,1
 202 -5 202 -5 126.5 92 c 128,-1,2
 51 189 51 189 51 357 c 259,3,4
 51 521 51 521 127 618.5 c 128,-1,5
 203 716 203 716 333 716 c 259,6,7
 446 716 446 716 512 652.5 c 128,-1,8
 578 589 578 589 595 471 c 1,9,-1
 469 461 l 1,10,11
 464 532 464 532 427 574 c 128,-1,12
 390 616 390 616 329 616 c 259,13,14
 263 616 263 616 216 537.5 c 128,-1,15
 169 459 169 459 169 349 c 259,16,17
 169 242 169 242 217 168.5 c 128,-1,18
 265 95 265 95 336 95 c 259,19,20
 389 95 389 95 428 133.5 c 128,-1,21
 467 172 467 172 478 235 c 1,22,-1
 595 227 l 1,23,24
 579 121 579 121 507.5 58 c 128,-1,25
 436 -5 436 -5 329 -5 c 259,0,1
EndSplineSet
EndChar

StartChar: D
Encoding: 68 68 37
Width: 646
Flags: W
HStem: 0 100<173 362.649> 600 100<173 367.879>
VStem: 55 118<100 600> 475 118<220.684 489.209>
LayerCount: 3
Back
SplineSet
510 97 m 0
 449 22 351 0 259 0 c 2
 55 0 l 1
 55 700 l 1
 233 700 l 2
 330 700 429 692 497 621 c 0
 564 551 593 455 593 353 c 0
 593 258 567 166 510 97 c 0
415 536 m 0
 374 595 305 592 248 592 c 2
 176 592 l 1
 176 106 l 1
 247 106 l 2
 316 106 388 115 428 187 c 0
 457 239 469 299 469 357 c 0
 469 420 452 485 415 536 c 0
EndSplineSet
Fore
SplineSet
259 0 m 2
 55 0 l 1
 55 700 l 1
 233 700 l 2
 482 700 593 584 593 353 c 3
 593 132 478 0 259 0 c 2
248 600 m 2
 173 600 l 1
 173 100 l 1
 247 100 l 2
 402 100 475 182 475 358 c 3
 475 530 406 600 248 600 c 2
EndSplineSet
Layer: 2
SplineSet
259 0 m 2,0,-1
 55 0 l 1,1,-1
 55 700 l 1,2,-1
 233 700 l 2,3,4
 418 700 418 700 505.5 614 c 128,-1,5
 593 528 593 528 593 353 c 259,6,7
 593 185 593 185 507 92.5 c 128,-1,8
 421 0 421 0 259 0 c 2,0,-1
248 600 m 2,9,-1
 173 600 l 1,10,-1
 173 100 l 1,11,-1
 247 100 l 2,12,13
 363 100 363 100 419 163 c 128,-1,14
 475 226 475 226 475 358 c 259,15,16
 475 486 475 486 421 543 c 128,-1,17
 367 600 367 600 248 600 c 2,9,-1
EndSplineSet
EndChar

StartChar: E
Encoding: 69 69 38
Width: 568
Flags: W
HStem: 0 100<198 523> 293 100<198 454> 600 100<198 523>
VStem: 80 118<100 293 393 600>
LayerCount: 3
Back
SplineSet
80 0 m 1
 80 700 l 1
 523 700 l 1
 523 599 l 1
 199 599 l 1
 199 392 l 1
 454 392 l 1
 454 294 l 1
 199 294 l 1
 199 93 l 1
 523 93 l 1
 523 0 l 1
 80 0 l 1
EndSplineSet
Fore
SplineSet
80 0 m 1
 80 700 l 1
 523 700 l 1
 523 600 l 1
 198 600 l 1
 198 393 l 1
 454 393 l 1
 454 293 l 1
 198 293 l 1
 198 100 l 1
 523 100 l 1
 523 0 l 1
 80 0 l 1
EndSplineSet
Validated: 1
Layer: 2
SplineSet
80 0 m 1,0,-1
 80 700 l 1,1,-1
 523 700 l 1,2,-1
 523 600 l 1,3,-1
 198 600 l 1,4,-1
 198 393 l 1,5,-1
 454 393 l 1,6,-1
 454 293 l 1,7,-1
 198 293 l 1,8,-1
 198 100 l 1,9,-1
 523 100 l 1,10,-1
 523 0 l 1,11,-1
 80 0 l 1,0,-1
EndSplineSet
EndChar

StartChar: F
Encoding: 70 70 39
Width: 530
Flags: W
HStem: 0 21G<80 198> 293 100<198 454> 600 100<198 520>
VStem: 80 118<0 293 393 600>
LayerCount: 3
Back
SplineSet
198 595 m 1
 198 392 l 1
 454 392 l 1
 454 288 l 1
 198 288 l 1
 198 0 l 1
 78 0 l 1
 78 700 l 1
 520 700 l 1
 520 595 l 1
 198 595 l 1
EndSplineSet
Fore
SplineSet
198 600 m 1
 198 393 l 1
 454 393 l 1
 454 293 l 1
 198 293 l 1
 198 0 l 1
 80 0 l 1
 80 700 l 1
 520 700 l 1
 520 600 l 1
 198 600 l 1
EndSplineSet
Validated: 1
Layer: 2
SplineSet
198 600 m 1,0,-1
 198 393 l 1,1,-1
 454 393 l 1,2,-1
 454 293 l 1,3,-1
 198 293 l 1,4,-1
 198 0 l 1,5,-1
 80 0 l 1,6,-1
 80 700 l 1,7,-1
 520 700 l 1,8,-1
 520 600 l 1,9,-1
 198 600 l 1,0,-1
EndSplineSet
EndChar

StartChar: G
Encoding: 71 71 40
Width: 646
Flags: W
HStem: -5 100<277.975 426.963> 261 100<356 481> 616 100<273.645 414.415>
VStem: 37 118<234.883 466.735> 481 118<0 55 156.062 261 495.938 550.836>
LayerCount: 3
Back
SplineSet
495 0 m 1xf4
 495 75 l 1xf4
 469 5 406 -6 334 -6 c 0
 152 -6 31 155 31 346 c 0
 31 541 135 711 349 711 c 0
 480 711 575 632 599 497 c 1
 487 480 l 1
 475 552 423 615 345 615 c 0
 213 615 155 445 155 342 c 0
 155 250 222 92 353 92 c 0
 434 92 481 149 481 261 c 1xf8
 356 261 l 1
 356 357 l 1
 595 357 l 1
 595 0 l 1
 495 0 l 1xf4
EndSplineSet
Fore
SplineSet
481 0 m 1
 481 55 l 1
 452 12 416 -5 334 -5 c 3
 164 -5 37 136 37 346 c 3
 37 576 164 716 349 716 c 3
 480 716 575 632 599 497 c 1
 487 480 l 1
 475 552 423 616 345 616 c 3
 244 616 155 496 155 342 c 3
 155 216 244 95 353 95 c 3
 434 95 481 149 481 261 c 1
 356 261 l 1
 356 361 l 1
 599 361 l 1
 599 0 l 1
 481 0 l 1
EndSplineSet
Layer: 2
SplineSet
481 0 m 1,0,-1
 481 55 l 1,1,2
 459 22 459 22 426.5 8.5 c 128,-1,3
 394 -5 394 -5 334 -5 c 259,4,5
 205 -5 205 -5 121 92.5 c 128,-1,6
 37 190 37 190 37 346 c 259,7,8
 37 517 37 517 123 616.5 c 128,-1,9
 209 716 209 716 349 716 c 259,10,11
 447 716 447 716 514 657 c 128,-1,12
 581 598 581 598 599 497 c 1,13,-1
 487 480 l 1,14,15
 477 537 477 537 439 576.5 c 128,-1,16
 401 616 401 616 345 616 c 259,17,18
 268 616 268 616 211.5 536 c 128,-1,19
 155 456 155 456 155 342 c 259,20,21
 155 246 155 246 214 170.5 c 128,-1,22
 273 95 273 95 353 95 c 259,23,24
 481 95 481 95 481 261 c 1,25,-1
 356 261 l 1,26,-1
 356 361 l 1,27,-1
 599 361 l 1,28,-1
 599 0 l 1,29,-1
 481 0 l 1,0,-1
EndSplineSet
EndChar

StartChar: H
Encoding: 72 72 41
Width: 657
Flags: W
HStem: 0 21G<60 178 487 605> 305 100<178 487> 680 20G<60 178 487 605>
VStem: 60 118<0 305 405 700> 487 118<0 305 405 700>
LayerCount: 3
Back
SplineSet
480 0 m 1
 480 305 l 1
 181 305 l 5
 181 0 l 5
 60 0 l 1
 60 700 l 1
 181 700 l 5
 181 412 l 5
 480 412 l 1
 480 700 l 1
 605 700 l 1
 605 0 l 1
 480 0 l 1
EndSplineSet
Fore
SplineSet
487 0 m 1
 487 305 l 1
 178 305 l 1
 178 0 l 1
 60 0 l 1
 60 700 l 1
 178 700 l 1
 178 405 l 1
 487 405 l 1
 487 700 l 1
 605 700 l 1
 605 0 l 1
 487 0 l 1
EndSplineSet
Validated: 1
Layer: 2
SplineSet
487 0 m 1,0,-1
 487 305 l 1,1,-1
 178 305 l 1,2,-1
 178 0 l 1,3,-1
 60 0 l 1,4,-1
 60 700 l 1,5,-1
 178 700 l 1,6,-1
 178 405 l 1,7,-1
 487 405 l 1,8,-1
 487 700 l 1,9,-1
 605 700 l 1,10,-1
 605 0 l 1,11,-1
 487 0 l 1,0,-1
EndSplineSet
EndChar

StartChar: I
Encoding: 73 73 42
Width: 294
Flags: W
HStem: 0 21G<84 202> 680 20G<84 202>
VStem: 84 118<0 700>
LayerCount: 3
Back
SplineSet
83 0 m 1
 83 700 l 1
 202 700 l 1
 202 0 l 1
 83 0 l 1
EndSplineSet
Fore
SplineSet
84 0 m 1
 84 700 l 1
 202 700 l 1
 202 0 l 1
 84 0 l 1
EndSplineSet
Validated: 1
Layer: 2
SplineSet
84 0 m 1,0,-1
 84 700 l 1,1,-1
 202 700 l 1,2,-1
 202 0 l 1,3,-1
 84 0 l 1,0,-1
EndSplineSet
EndChar

StartChar: J
Encoding: 74 74 43
Width: 482
Flags: W
HStem: -5 100<179.022 287.373> 680 20G<327 445>
VStem: 29 118<129.548 274> 327 118<135.693 700>
LayerCount: 3
Back
SplineSet
445 210 m 2
 445 124 387 -3 237 -3 c 0
 82 -3 29 110 29 187 c 2
 29 274 l 1
 146 274 l 1
 146 190 l 2
 146 136 187 106 230 106 c 0
 287 106 326 150 326 231 c 2
 326 700 l 1
 445 700 l 1
 445 210 l 2
EndSplineSet
Fore
SplineSet
445 210 m 2
 445 88 357 -5 237 -5 c 3
 109 -5 29 80 29 187 c 2
 29 274 l 1
 147 274 l 1
 147 187 l 2
 147 133 188 95 231 95 c 3
 290 95 327 144 327 222 c 2
 327 700 l 1
 445 700 l 1
 445 210 l 2
EndSplineSet
Layer: 2
SplineSet
445 210 m 2,0,1
 445 118 445 118 386 56.5 c 128,-1,2
 327 -5 327 -5 237 -5 c 259,3,4
 143 -5 143 -5 86 50 c 128,-1,5
 29 105 29 105 29 187 c 2,6,-1
 29 274 l 1,7,-1
 147 274 l 1,8,-1
 147 187 l 2,9,10
 147 148 147 148 172.5 121.5 c 128,-1,11
 198 95 198 95 231 95 c 259,12,13
 275 95 275 95 301 129 c 128,-1,14
 327 163 327 163 327 222 c 2,15,-1
 327 700 l 1,16,-1
 445 700 l 1,17,-1
 445 210 l 2,0,1
EndSplineSet
EndChar

StartChar: K
Encoding: 75 75 44
Width: 628
Flags: W
HStem: 0 21G<80 198 449.534 593> 680 20G<80 198 421.676 561>
VStem: 80 118<0 130 317 700> 434 127<573 700>
DStem2: 198 317 320 326 0.537163 0.843479<0 73.1252 213.791 449.823> 406 438 320 326 0.392652 -0.919687<69.2369 423.241>
LayerCount: 3
Back
SplineSet
458 0 m 1
 320 326 l 1
 198 130 l 1
 198 0 l 1
 83 0 l 5
 83 700 l 5
 198 700 l 1
 198 317 l 1
 434 700 l 1
 434 700 541 700 561 700 c 1
 406 438 l 1
 593 0 l 1
 458 0 l 1
EndSplineSet
Fore
SplineSet
458 0 m 1
 320 326 l 1
 198 130 l 1
 198 0 l 1
 80 0 l 1
 80 700 l 1
 198 700 l 1
 198 317 l 1
 434 700 l 1
 561 700 l 1
 406 438 l 1
 593 0 l 1
 458 0 l 1
EndSplineSet
Validated: 1
Layer: 2
SplineSet
458 0 m 1,0,-1
 320 326 l 1,1,-1
 198 130 l 1,2,-1
 198 0 l 1,3,-1
 80 0 l 1,4,-1
 80 700 l 1,5,-1
 198 700 l 1,6,-1
 198 317 l 1,7,-1
 434 700 l 1,8,-1
 561 700 l 1,9,-1
 406 438 l 1,10,-1
 593 0 l 1,11,-1
 458 0 l 1,0,-1
EndSplineSet
EndChar

StartChar: L
Encoding: 76 76 45
Width: 490
Flags: W
HStem: 0 100<193 466> 680 20G<75 193>
VStem: 75 118<100 700>
LayerCount: 3
Back
SplineSet
75 0 m 1
 75 700 l 1
 196 700 l 5
 196 107 l 5
 466 107 l 1
 466 0 l 1
 75 0 l 1
EndSplineSet
Fore
SplineSet
75 0 m 1
 75 700 l 1
 193 700 l 1
 193 100 l 1
 466 100 l 1
 466 0 l 1
 75 0 l 1
EndSplineSet
Validated: 1
Layer: 2
SplineSet
75 0 m 1,0,-1
 75 700 l 1,1,-1
 193 700 l 1,2,-1
 193 100 l 1,3,-1
 466 100 l 1,4,-1
 466 0 l 1,5,-1
 75 0 l 1,0,-1
EndSplineSet
EndChar

StartChar: M
Encoding: 77 77 46
Width: 862
Flags: W
HStem: 0 21G<80 198 380.533 470.567 659 777> 600 100<198 222 632 659>
VStem: 80 118<0 600> 659 118<0 600>
DStem2: 294 700 222 600 0.263662 -0.964615<77.4779 512.288> 426 205 465 0 0.268141 0.96338<0 435.772>
LayerCount: 3
Back
SplineSet
658 0 m 1
 658 603 l 1
 621 603 l 1
 454 0 l 1
 374 0 l 1
 210 603 l 1
 176 603 l 1
 176 0 l 1
 80 0 l 1
 80 700 l 1
 294 700 l 1
 426 205 l 1
 563 700 l 1
 777 700 l 1
 777 0 l 1
 658 0 l 1
EndSplineSet
Fore
SplineSet
659 0 m 1
 659 600 l 1
 632 600 l 1
 465 0 l 1
 386 0 l 1
 222 600 l 1
 198 600 l 1
 198 0 l 1
 80 0 l 1
 80 700 l 1
 294 700 l 1
 426 205 l 1
 563 700 l 1
 777 700 l 1
 777 0 l 1
 659 0 l 1
EndSplineSet
Validated: 1
Layer: 2
SplineSet
659 0 m 1,0,-1
 659 600 l 1,1,-1
 632 600 l 1,2,-1
 465 0 l 1,3,-1
 386 0 l 1,4,-1
 222 600 l 1,5,-1
 198 600 l 1,6,-1
 198 0 l 1,7,-1
 80 0 l 1,8,-1
 80 700 l 1,9,-1
 294 700 l 1,10,-1
 426 205 l 1,11,-1
 563 700 l 1,12,-1
 777 700 l 1,13,-1
 777 0 l 1,14,-1
 659 0 l 1,0,-1
EndSplineSet
EndChar

StartChar: N
Encoding: 78 78 47
Width: 646
Flags: W
HStem: 0 21G<80 198 445.21 561> 680 20G<80 228.593 443 561>
VStem: 80 118<0 525> 443 118<233 700>
DStem2: 219 700 198 525 0.43967 -0.898159<147.945 517.927>
LayerCount: 3
Back
SplineSet
455 0 m 1
 198 525 l 1
 164 525 l 1
 164 0 l 1
 80 0 l 1
 80 700 l 1
 219 700 l 1
 445 233 l 1
 475 233 l 1
 475 700 l 1
 561 700 l 1
 561 0 l 1
 455 0 l 1
EndSplineSet
Fore
SplineSet
455 0 m 1
 198 525 l 1
 198 0 l 1
 80 0 l 1
 80 700 l 1
 219 700 l 1
 443 233 l 1
 443 700 l 1
 561 700 l 1
 561 0 l 1
 455 0 l 1
EndSplineSet
Validated: 1
Layer: 2
SplineSet
455 0 m 1,0,-1
 198 525 l 1,1,-1
 198 0 l 1,2,-1
 80 0 l 1,3,-1
 80 700 l 1,4,-1
 219 700 l 1,5,-1
 443 233 l 1,6,-1
 443 700 l 1,7,-1
 561 700 l 1,8,-1
 561 0 l 1,9,-1
 455 0 l 1,0,-1
EndSplineSet
EndChar

StartChar: O
Encoding: 79 79 48
Width: 646
Flags: W
HStem: -5 100<250.662 385.338> 616 100<249.757 386.243>
VStem: 38 118<225.144 497.403> 480 118<225.144 497.403>
LayerCount: 3
Back
SplineSet
320 -3 m 0
 122 -3 32 175 32 365 c 0
 32 536 125 716 329 716 c 0
 550 716 599 526 599 359 c 0
 599 175 515 -3 320 -3 c 0
325 616 m 0
 210 616 161 470 161 357 c 0
 161 254 204 101 326 101 c 0
 438 101 480 236 480 357 c 0
 480 479 451 616 325 616 c 0
EndSplineSet
Fore
SplineSet
318 -5 m 3
 148 -5 38 136 38 365 c 3
 38 580 154 716 318 716 c 3
 482 716 598 580 598 365 c 3
 598 136 488 -5 318 -5 c 3
318 616 m 3
 220 616 156 516 156 365 c 3
 156 210 220 95 318 95 c 3
 416 95 480 210 480 365 c 3
 480 516 416 616 318 616 c 3
EndSplineSet
Layer: 2
SplineSet
318 -5 m 259,0,1
 190 -5 190 -5 114 94.5 c 128,-1,2
 38 194 38 194 38 365 c 259,3,4
 38 525 38 525 116 620.5 c 128,-1,5
 194 716 194 716 318 716 c 259,6,7
 442 716 442 716 520 620.5 c 128,-1,8
 598 525 598 525 598 365 c 259,9,10
 598 194 598 194 522 94.5 c 128,-1,11
 446 -5 446 -5 318 -5 c 259,0,1
318 616 m 259,12,13
 245 616 245 616 200.5 547 c 128,-1,14
 156 478 156 478 156 365 c 259,15,16
 156 247 156 247 200.5 171 c 128,-1,17
 245 95 245 95 318 95 c 259,18,19
 391 95 391 95 435.5 171 c 128,-1,20
 480 247 480 247 480 365 c 259,21,22
 480 478 480 478 435.5 547 c 128,-1,23
 391 616 391 616 318 616 c 259,12,13
EndSplineSet
EndChar

StartChar: P
Encoding: 80 80 49
Width: 625
Flags: W
HStem: 0 21G<63 181> 272 100<181 398.259> 600 100<181 395.881>
VStem: 63 118<0 272 372 600> 448 118<419.331 552.944>
LayerCount: 3
Back
SplineSet
570 494 m 0
 570 384 515 293 423 280 c 0
 392 273 359 275 325 275 c 2
 182 275 l 1
 182 0 l 1
 63 0 l 1
 63 700 l 1
 320 700 l 2
 380 700 438 699 490 661 c 0
 543 621 570 563 570 494 c 0
408 580 m 0
 379 604 345 604 311 604 c 2
 182 604 l 1
 182 368 l 1
 313 368 l 2
 324 368 384 362 420 407 c 0
 440 430 448 459 448 486 c 0
 448 520 435 557 408 580 c 0
EndSplineSet
Fore
SplineSet
566 493 m 3
 566 338 498 272 325 272 c 2
 181 272 l 1
 181 0 l 1
 63 0 l 1
 63 700 l 1
 320 700 l 2
 480 700 566 627 566 493 c 3
311 600 m 2
 181 600 l 1
 181 372 l 1
 313 372 l 2
 398 372 448 418 448 486 c 3
 448 560 396 600 311 600 c 2
EndSplineSet
Layer: 2
SplineSet
566 493 m 259,0,1
 566 376 566 376 510 324 c 128,-1,2
 454 272 454 272 325 272 c 2,3,-1
 181 272 l 1,4,-1
 181 0 l 1,5,-1
 63 0 l 1,6,-1
 63 700 l 1,7,-1
 320 700 l 2,8,9
 440 700 440 700 503 647 c 128,-1,10
 566 594 566 594 566 493 c 259,0,1
311 600 m 2,11,-1
 181 600 l 1,12,-1
 181 372 l 1,13,-1
 313 372 l 2,14,15
 376 372 376 372 412 403 c 128,-1,16
 448 434 448 434 448 486 c 259,17,18
 448 541 448 541 411.5 570.5 c 128,-1,19
 375 600 375 600 311 600 c 2,11,-1
EndSplineSet
EndChar

StartChar: Q
Encoding: 81 81 50
Width: 646
Flags: W
HStem: -153 100<474.099 573> -5 100<250.662 384.336> 616 100<249.757 386.243>
VStem: 38 118<225.144 497.403> 480 118<223.441 497.403>
LayerCount: 3
Back
SplineSet
304 -9 m 0
 150 -9 46 161 46 353 c 0
 46 544 141 711 326 711 c 0
 543 711 604 519 604 353 c 0
 604 221 555 94 455 28 c 1
 455 -40 487 -60 526 -60 c 2
 573 -57 l 1
 573 -150 l 1
 561 -152 547 -153 536 -153 c 0
 443 -153 400 -124 386 -2 c 1
 386 -2 324 -9 304 -9 c 0
326 612 m 0
 200 612 175 480 175 353 c 0
 175 250 210 95 333 95 c 0
 461 95 477 248 477 353 c 0
 477 446 450 612 326 612 c 0
EndSplineSet
Fore
SplineSet
318 616 m 3
 220 616 156 516 156 365 c 3
 156 210 220 95 318 95 c 3
 416 95 480 210 480 365 c 3
 480 516 416 616 318 616 c 3
536 -153 m 3
 434 -153 394 -108 385 5 c 1
 364 0 342 -5 318 -5 c 3
 148 -5 38 136 38 365 c 3
 38 580 154 716 318 716 c 3
 482 716 598 580 598 365 c 3
 598 210 546 89 455 33 c 1
 455 -20 476 -53 526 -53 c 1
 573 -50 l 1
 573 -150 l 1
 561 -152 547 -153 536 -153 c 3
EndSplineSet
Layer: 2
SplineSet
318 616 m 259,0,1
 245 616 245 616 200.5 547 c 128,-1,2
 156 478 156 478 156 365 c 259,3,4
 156 247 156 247 200.5 171 c 128,-1,5
 245 95 245 95 318 95 c 259,6,7
 391 95 391 95 435.5 171 c 128,-1,8
 480 247 480 247 480 365 c 259,9,10
 480 478 480 478 435.5 547 c 128,-1,11
 391 616 391 616 318 616 c 259,0,1
536 -153 m 259,12,13
 460 -153 460 -153 426 -116.5 c 128,-1,14
 392 -80 392 -80 385 5 c 1,15,16
 343 -5 343 -5 318 -5 c 259,17,18
 190 -5 190 -5 114 94.5 c 128,-1,19
 38 194 38 194 38 365 c 259,20,21
 38 525 38 525 116 620.5 c 128,-1,22
 194 716 194 716 318 716 c 259,23,24
 442 716 442 716 520 620.5 c 128,-1,25
 598 525 598 525 598 365 c 259,26,27
 598 249 598 249 560.5 162 c 128,-1,28
 523 75 523 75 455 33 c 1,29,30
 455 -53 455 -53 526 -53 c 1,31,-1
 573 -50 l 1,32,-1
 573 -150 l 1,33,34
 555 -153 555 -153 536 -153 c 259,12,13
EndSplineSet
EndChar

StartChar: R
Encoding: 82 82 51
Width: 659
Flags: W
HStem: 0 21G<54 172 492.5 630> 291 100<172 449.808> 600 100<172 448.704>
VStem: 54 118<0 291 391 600> 476 118<52.1816 262.764> 487 118<415.875 566.846> 504 126<0 63.402>
LayerCount: 3
Back
SplineSet
374 700 m 2xf8
 499 700 605 664 605 488 c 0xf4
 605 415 577 393 518 345 c 1
 584 299 594 245 594 195 c 2
 594 130 l 2
 594 95 598 63 630 37 c 1
 630 0 l 1
 506 0 l 1
 483 59 478 80 478 134 c 2
 478 177 l 2
 478 238 468 283 380 283 c 2
 170 283 l 1
 170 0 l 1
 54 0 l 1
 54 700 l 1
 374 700 l 2xf8
398 397 m 2
 447 397 486 406 486 498 c 0
 486 583 427 584 376 584 c 2
 170 584 l 1
 170 397 l 1
 398 397 l 2
EndSplineSet
Fore
SplineSet
374 700 m 2xf8
 534 700 605 633 605 488 c 3xf4
 605 426 592 405 518 345 c 1
 566 312 594 261 594 195 c 2
 594 130 l 2xf8
 594 86 606 57 630 37 c 1
 630 0 l 1
 504 0 l 1xf2
 481 59 476 80 476 134 c 2
 476 177 l 2
 476 259 451 291 378 291 c 2
 172 291 l 1
 172 0 l 1
 54 0 l 1
 54 700 l 1
 374 700 l 2xf8
398 391 m 2
 461 391 487 422 487 498 c 3
 487 564 451 600 376 600 c 2
 172 600 l 1
 172 391 l 1
 398 391 l 2
EndSplineSet
Layer: 2
SplineSet
374 700 m 2,0,1
 494 700 494 700 549.5 648.5 c 128,-1,2
 605 597 605 597 605 488 c 259,3,4
 605 442 605 442 589.5 416 c 128,-1,5
 574 390 574 390 518 345 c 1,6,7
 594 293 594 293 594 195 c 2,8,-1
 594 130 l 2,9,10
 594 67 594 67 630 37 c 1,11,-1
 630 0 l 1,12,-1
 504 0 l 1,13,14
 486 45 486 45 481 69.5 c 128,-1,15
 476 94 476 94 476 134 c 2,16,-1
 476 177 l 2,17,18
 476 239 476 239 454 265 c 128,-1,19
 432 291 432 291 378 291 c 2,20,-1
 172 291 l 1,21,-1
 172 0 l 1,22,-1
 54 0 l 1,23,-1
 54 700 l 1,24,-1
 374 700 l 2,0,1
398 391 m 2,25,26
 445 391 445 391 466 416 c 128,-1,27
 487 441 487 441 487 498 c 259,28,29
 487 546 487 546 460.5 573 c 128,-1,30
 434 600 434 600 376 600 c 2,31,-1
 172 600 l 1,32,-1
 172 391 l 1,33,-1
 398 391 l 2,25,26
EndSplineSet
EndChar

StartChar: S
Encoding: 83 83 52
Width: 588
Flags: W
HStem: -5 100<207.011 357.507> 616 100<205.34 347.694>
VStem: 54 118<461.897 583.71> 406 118<138.518 254.514>
LayerCount: 3
Back
SplineSet
54 501 m 0
 54 627 136 713 279 713 c 0
 386 713 471 676 510 572 c 1
 403 535 l 1
 385 579 363 607 288 607 c 0
 236 607 185 588 185 526 c 0
 185 470 204 453 287 435 c 0
 331 425 535 392 535 219 c 0
 535 56 412 -6 274 -6 c 0
 159 -6 60 44 26 162 c 1
 26 162 139 198 147 198 c 1
 172 123 219 104 288 104 c 0
 320 104 406 122 406 189 c 0
 406 270 334 281 279 293 c 0
 158 320 54 357 54 501 c 0
EndSplineSet
Fore
SplineSet
54 502 m 3
 54 636 142 716 279 716 c 3
 398 716 474 668 510 573 c 1
 391 533 l 1
 366 594 334 616 275 616 c 3
 212 616 172 582 172 524 c 3
 172 462 202 439 299 420 c 0
 450 391 524 324 524 220 c 3
 524 74 434 -5 274 -5 c 3
 152 -5 58 52 26 163 c 1
 147 199 l 1
 172 124 219 95 288 95 c 3
 353 95 406 143 406 191 c 3
 406 251 371 286 279 306 c 0
 100 345 54 391 54 502 c 3
EndSplineSet
Layer: 2
SplineSet
54 502 m 259,0,1
 54 602 54 602 115 659 c 128,-1,2
 176 716 176 716 279 716 c 259,3,4
 370 716 370 716 427 679.5 c 128,-1,5
 484 643 484 643 510 573 c 1,6,-1
 391 533 l 1,7,8
 372 579 372 579 345.5 597.5 c 128,-1,9
 319 616 319 616 275 616 c 259,10,11
 227 616 227 616 199.5 591.5 c 128,-1,12
 172 567 172 567 172 524 c 259,13,14
 172 478 172 478 199 456 c 128,-1,15
 226 434 226 434 299 420 c 256,16,17
 418 397 418 397 471 345.5 c 128,-1,18
 524 294 524 294 524 220 c 259,19,20
 524 111 524 111 459 53 c 128,-1,21
 394 -5 394 -5 274 -5 c 259,22,23
 181 -5 181 -5 115.5 38 c 128,-1,24
 50 81 50 81 26 163 c 1,25,-1
 147 199 l 1,26,27
 164 150 164 150 198 122.5 c 128,-1,28
 232 95 232 95 288 95 c 259,29,30
 336 95 336 95 371 124.5 c 128,-1,31
 406 154 406 154 406 191 c 259,32,33
 406 237 406 237 376.5 264 c 128,-1,34
 347 291 347 291 279 306 c 256,35,36
 147 335 147 335 100.5 376.5 c 128,-1,37
 54 418 54 418 54 502 c 259,0,1
EndSplineSet
EndChar

StartChar: T
Encoding: 84 84 53
Width: 530
Flags: W
HStem: 0 21G<203 321> 600 100<31 203 321 490>
VStem: 203 118<0 600>
LayerCount: 3
Back
SplineSet
322 593 m 1
 322 0 l 1
 202 0 l 1
 202 593 l 1
 31 593 l 1
 31 700 l 1
 490 700 l 1
 490 593 l 1
 322 593 l 1
EndSplineSet
Fore
SplineSet
321 600 m 1
 321 0 l 1
 203 0 l 1
 203 600 l 1
 31 600 l 1
 31 700 l 1
 490 700 l 1
 490 600 l 1
 321 600 l 1
EndSplineSet
Validated: 1
Layer: 2
SplineSet
321 600 m 1,0,-1
 321 0 l 1,1,-1
 203 0 l 1,2,-1
 203 600 l 1,3,-1
 31 600 l 1,4,-1
 31 700 l 1,5,-1
 490 700 l 1,6,-1
 490 600 l 1,7,-1
 321 600 l 1,0,-1
EndSplineSet
EndChar

StartChar: U
Encoding: 85 85 54
Width: 646
Flags: W
HStem: -5 100<237.294 417.224> 680 20G<69 187 468 586>
VStem: 69 118<145.218 700> 468 118<148.593 700>
LayerCount: 3
Back
SplineSet
326 -6 m 0
 159.91 -6 69 60.0596 69 232 c 2
 69 700 l 1
 204 700 l 1
 204 244 l 2
 204 126 254 98 337 98 c 0
 420 98 460 126 460 244 c 2
 460 700 l 1
 586 700 l 1
 586 232 l 2
 586 82 481.18 -6 326 -6 c 0
EndSplineSet
Fore
SplineSet
327 -5 m 3
 154 -5 69 72 69 232 c 2
 69 700 l 1
 187 700 l 1
 187 240 l 2
 187 135 232 95 327 95 c 3
 426 95 468 138 468 240 c 2
 468 700 l 1
 586 700 l 1
 586 232 l 2
 586 82 487 -5 327 -5 c 3
EndSplineSet
Layer: 2
SplineSet
327 -5 m 259,0,1
 194 -5 194 -5 131.5 56 c 128,-1,2
 69 117 69 117 69 232 c 2,3,-1
 69 700 l 1,4,-1
 187 700 l 1,5,-1
 187 240 l 2,6,7
 187 162 187 162 220.5 128.5 c 128,-1,8
 254 95 254 95 327 95 c 259,9,10
 401 95 401 95 434.5 129.5 c 128,-1,11
 468 164 468 164 468 240 c 2,12,-1
 468 700 l 1,13,-1
 586 700 l 1,14,-1
 586 232 l 2,15,16
 586 120 586 120 517 57.5 c 128,-1,17
 448 -5 448 -5 327 -5 c 259,0,1
EndSplineSet
EndChar

StartChar: V
Encoding: 86 86 55
Width: 588
Flags: W
HStem: 0 126<222 374> 680 20G<38 160.948 435.052 558>
VStem: 38 118<582 700> 440 118<582 700>
DStem2: 156 700 38 700 0.254221 -0.967146<0 591.241> 298 126 374 0 0.254221 0.967146<0 591.241>
LayerCount: 3
Back
SplineSet
374 0 m 1
 222 0 l 1
 31 700 l 1
 161 700 l 1
 303 126 l 1
 445 700 l 1
 558 700 l 1
 374 0 l 1
EndSplineSet
Fore
SplineSet
374 0 m 1
 222 0 l 1
 38 700 l 1
 156 700 l 1
 298 126 l 1
 440 700 l 1
 558 700 l 1
 374 0 l 1
EndSplineSet
Layer: 2
SplineSet
374 0 m 1,0,-1
 222 0 l 1,1,-1
 38 700 l 1,2,-1
 156 700 l 1,3,-1
 298 126 l 1,4,-1
 440 700 l 1,5,-1
 558 700 l 1,6,-1
 374 0 l 1,0,-1
EndSplineSet
EndChar

StartChar: W
Encoding: 87 87 56
Width: 882
Flags: W
HStem: 0 21G<185.314 329.471 556.529 700.686> 680 20G<26 148.418 378.301 507.699 737.582 860>
VStem: 26 118<582 700> 742 118<582 700>
DStem2: 144 700 26 700 0.228109 -0.973636<0 509.963> 266 202 325 0 0.218168 0.975911<0 329.104> 503 700 449 501 0.218168 -0.975911<182.425 511.529> 632 202 696 0 0.228109 0.973636<0 509.963>
LayerCount: 3
Back
SplineSet
691 0 m 1
 561 0 l 1
 449 501 l 1
 437 501 l 1
 316 0 l 1
 190 0 l 1
 26 700 l 1
 149 700 l 1
 253 202 l 1
 253 202 259 201 268 201 c 1
 383 700 l 1
 503 700 l 1
 619 208 l 1
 632 202 l 1
 745 700 l 1
 852 700 l 1
 691 0 l 1
EndSplineSet
Fore
SplineSet
696 0 m 1
 561 0 l 1
 449 501 l 1
 437 501 l 1
 325 0 l 1
 190 0 l 1
 26 700 l 1
 144 700 l 1
 254 202 l 1
 266 202 l 1
 383 700 l 1
 503 700 l 1
 620 202 l 1
 632 202 l 1
 742 700 l 1
 860 700 l 1
 696 0 l 1
EndSplineSet
Validated: 1
Layer: 2
SplineSet
696 0 m 1,0,-1
 561 0 l 1,1,-1
 449 501 l 1,2,-1
 437 501 l 1,3,-1
 325 0 l 1,4,-1
 190 0 l 1,5,-1
 26 700 l 1,6,-1
 144 700 l 1,7,-1
 254 202 l 1,8,-1
 266 202 l 1,9,-1
 383 700 l 1,10,-1
 503 700 l 1,11,-1
 620 202 l 1,12,-1
 632 202 l 1,13,-1
 742 700 l 1,14,-1
 860 700 l 1,15,-1
 696 0 l 1,0,-1
EndSplineSet
EndChar

StartChar: X
Encoding: 88 88 57
Width: 628
Flags: W
HStem: 0 21G<46 181.129 429.355 579> 680 20G<66 215.711 423.91 559>
DStem2: 46 0 170 0 0.485749 0.874098<60.2329 344.043 559.558 800.825> 205 700 66 700 0.471242 -0.882004<0 239.353 447.204 728.145>
LayerCount: 3
Back
SplineSet
66 700 m 5
 205 700 l 5
 579 0 l 5
 440 0 l 5
 66 700 l 5
559 700 m 5
 170 0 l 5
 46 0 l 5
 435 700 l 5
 559 700 l 5
440 0 m 1xc4
 308 268 l 1
 170 0 l 1
 41 0 l 1xe4
 245 363 l 1
 66 700 l 1
 205 700 l 1
 319 471 l 1
 435 700 l 1
 559 700 l 1xd8
 388 372 l 1
 579 0 l 1
 440 0 l 1xc4
EndSplineSet
Fore
SplineSet
66 700 m 1
 205 700 l 1
 318 489 l 1
 435 700 l 1
 559 700 l 1
 379 375 l 1
 579 0 l 1
 440 0 l 1
 308 248 l 1
 170 0 l 1
 46 0 l 1
 247 361 l 1
 66 700 l 1
EndSplineSet
Validated: 1
Layer: 2
SplineSet
66 700 m 1,0,-1
 205 700 l 1,1,-1
 318 489 l 1,2,-1
 435 700 l 1,3,-1
 559 700 l 1,4,-1
 379 375 l 1,5,-1
 579 0 l 1,6,-1
 440 0 l 1,7,-1
 308 248 l 1,8,-1
 170 0 l 1,9,-1
 46 0 l 1,10,-1
 247 361 l 1,11,-1
 66 700 l 1,0,-1
EndSplineSet
EndChar

StartChar: Y
Encoding: 89 89 58
Width: 588
Flags: W
HStem: 0 21G<236 354> 680 20G<35 185.149 427.638 556>
VStem: 236 118<0 282>
DStem2: 176 700 35 700 0.444558 -0.89575<0 309.95> 305 418 354 282 0.43511 0.900377<0 311.341>
LayerCount: 3
Back
SplineSet
354 282 m 1
 354 0 l 1
 235 0 l 1
 235 297 l 1
 35 700 l 1
 176 700 l 1
 305 418 l 1
 437 700 l 1
 556 700 l 1
 354 282 l 1
EndSplineSet
Fore
SplineSet
354 282 m 1
 354 0 l 1
 236 0 l 1
 236 295 l 1
 35 700 l 1
 176 700 l 1
 305 418 l 1
 437 700 l 1
 556 700 l 1
 354 282 l 1
EndSplineSet
Validated: 1
Layer: 2
SplineSet
354 282 m 1,0,-1
 354 0 l 1,1,-1
 236 0 l 1,2,-1
 236 295 l 1,3,-1
 35 700 l 1,4,-1
 176 700 l 1,5,-1
 305 418 l 1,6,-1
 437 700 l 1,7,-1
 556 700 l 1,8,-1
 354 282 l 1,0,-1
EndSplineSet
EndChar

StartChar: Z
Encoding: 90 90 59
Width: 646
Flags: W
HStem: 0 100<220 593> 600 100<110 446>
DStem2: 86 100 220 100 0.586437 0.809995<78.5825 616.115>
LayerCount: 3
Back
SplineSet
86 0 m 1
 86 100 l 1
 446 600 l 1
 110 600 l 1
 110 700 l 1
 582 700 l 1
 582 600 l 1
 222 102 l 1
 593 102 l 1
 593 0 l 1
 86 0 l 1
EndSplineSet
Fore
SplineSet
86 0 m 1
 86 100 l 1
 446 600 l 1
 110 600 l 1
 110 700 l 1
 582 700 l 1
 582 600 l 1
 220 100 l 1
 593 100 l 1
 593 0 l 1
 86 0 l 1
EndSplineSet
Validated: 1
Layer: 2
SplineSet
86 0 m 1,0,-1
 86 100 l 1,1,-1
 446 600 l 1,2,-1
 110 600 l 1,3,-1
 110 700 l 1,4,-1
 582 700 l 1,5,-1
 582 600 l 1,6,-1
 220 100 l 1,7,-1
 593 100 l 1,8,-1
 593 0 l 1,9,-1
 86 0 l 1,0,-1
EndSplineSet
EndChar

StartChar: bracketleft
Encoding: 91 91 60
Width: 387
Flags: W
HStem: -190 86<205 289> 614 86<205 289>
VStem: 98 191<-190 -104 614 700> 98 107<-104 614>
LayerCount: 3
Back
SplineSet
98 -190 m 1xe0
 98 700 l 1
 274 700 l 1
 274 639 l 1xe0
 176 639 l 1
 176 -130 l 1xd0
 274 -130 l 1
 274 -190 l 1
 98 -190 l 1xe0
EndSplineSet
Fore
SplineSet
98 -190 m 1xe0
 98 700 l 1
 289 700 l 1
 289 614 l 1xe0
 205 614 l 1
 205 -104 l 1xd0
 289 -104 l 1
 289 -190 l 1
 98 -190 l 1xe0
EndSplineSet
Validated: 1
Layer: 2
SplineSet
98 -190 m 1,0,-1
 98 700 l 1,1,-1
 289 700 l 1,2,-1
 289 614 l 1,3,-1
 205 614 l 1,4,-1
 205 -104 l 1,5,-1
 289 -104 l 1,6,-1
 289 -190 l 1,7,-1
 98 -190 l 1,0,-1
EndSplineSet
EndChar

StartChar: backslash
Encoding: 92 92 61
Width: 415
Flags: W
HStem: 0 21G<242.057 360> 680 20G<40 157.943>
VStem: 40 112<588 700> 248 112<0 112>
DStem2: 152 700 40 700 0.284834 -0.958577<0 698.348>
LayerCount: 3
Back
SplineSet
248 0 m 1
 40 700 l 1
 139 700 l 1
 360 0 l 1
 248 0 l 1
EndSplineSet
Fore
SplineSet
248 0 m 1
 40 700 l 1
 152 700 l 1
 360 0 l 1
 248 0 l 1
EndSplineSet
Validated: 1
Layer: 2
SplineSet
248 0 m 1,0,-1
 40 700 l 1,1,-1
 152 700 l 1,2,-1
 360 0 l 1,3,-1
 248 0 l 1,0,-1
EndSplineSet
EndChar

StartChar: bracketright
Encoding: 93 93 62
Width: 387
Flags: W
HStem: -201 86<98 182> 614 86<98 182>
VStem: 98 191<-201 -115 614 700> 182 107<-115 614>
LayerCount: 3
Back
SplineSet
98 -201 m 1xe0
 98 -133 l 1xe0
 196 -133 l 1
 196 633 l 1xd0
 98 633 l 1
 98 700 l 1
 274 700 l 1
 274 -201 l 1
 98 -201 l 1xe0
EndSplineSet
Fore
SplineSet
98 -201 m 1xe0
 98 -115 l 1xe0
 182 -115 l 1
 182 614 l 1xd0
 98 614 l 1
 98 700 l 1
 289 700 l 1
 289 -201 l 1
 98 -201 l 1xe0
EndSplineSet
Validated: 1
Layer: 2
SplineSet
98 -201 m 1,0,-1
 98 -115 l 1,1,-1
 182 -115 l 1,2,-1
 182 614 l 1,3,-1
 98 614 l 1,4,-1
 98 700 l 1,5,-1
 289 700 l 1,6,-1
 289 -201 l 1,7,-1
 98 -201 l 1,0,-1
EndSplineSet
EndChar

StartChar: asciicircum
Encoding: 94 94 63
Width: 588
Flags: W
HStem: 696 20G<219.086 366.053>
DStem2: 77 285 184 285 0.326734 0.945116<34.9605 360.725> 359 716 293 592 0.332591 -0.943071<94.9898 421.43>
LayerCount: 3
Back
SplineSet
422 285 m 1
 293 642 l 1
 166 285 l 1
 95 285 l 1
 244 704 l 1
 340 704 l 1
 492 285 l 1
 422 285 l 1
EndSplineSet
Fore
SplineSet
293 592 m 1
 184 285 l 1
 77 285 l 1
 226 716 l 1
 359 716 l 1
 511 285 l 1
 404 285 l 1
 293 592 l 1
EndSplineSet
Validated: 1
Layer: 2
SplineSet
293 592 m 1,0,-1
 184 285 l 1,1,-1
 77 285 l 1,2,-1
 226 716 l 1,3,-1
 359 716 l 1,4,-1
 511 285 l 1,5,-1
 404 285 l 1,6,-1
 293 592 l 1,0,-1
EndSplineSet
EndChar

StartChar: underscore
Encoding: 95 95 64
Width: 556
VWidth: 2048
Flags: W
HStem: -199 64<-15 569>
LayerCount: 3
Fore
SplineSet
-15 -199 m 1
 -15 -135 l 1
 569 -135 l 1
 569 -199 l 1
 -15 -199 l 1
EndSplineSet
Validated: 1
Layer: 2
SplineSet
-15 -199 m 1,0,-1
 -15 -135 l 1,1,-1
 569 -135 l 1,2,-1
 569 -199 l 1,3,-1
 -15 -199 l 1,0,-1
EndSplineSet
EndChar

StartChar: grave
Encoding: 96 96 65
Width: 372
Flags: W
HStem: 592 206
VStem: 64 246
LayerCount: 3
Back
SplineSet
274 619 m 1
 87 691 l 1
 104 768 l 1
 287 671 l 1
 274 619 l 1
EndSplineSet
Fore
SplineSet
288 592 m 1
 64 679 l 1
 90 798 l 1
 310 681 l 1
 288 592 l 1
EndSplineSet
Validated: 1
Layer: 2
SplineSet
288 592 m 1,0,-1
 64 679 l 1,1,-1
 90 798 l 1,2,-1
 310 681 l 1,3,-1
 288 592 l 1,0,-1
EndSplineSet
EndChar

StartChar: a
Encoding: 97 97 66
Width: 536
Flags: W
HStem: -5 86<174.733 311.689 478.013 523> 238 86<219.126 357> 440 86<194.274 331.364>
VStem: 48 107<100.45 192.536> 66 98<368 409.521> 357 107<127.853 238 321.917 414.614>
LayerCount: 3
Back
SplineSet
48 130 m 0xba
 48 315 280 311 357 319 c 1
 357 340 l 2
 357 371 357 395 339 420 c 0
 322 445 291 452 267 452 c 0
 221 452 175 434 164 380 c 1
 66 380 l 1
 81 487 172 526 282 526 c 0
 359 526 392 510 428 478 c 0
 461 449 464 412 464 369 c 2
 464 124 l 2
 464 63 520 61 523 61 c 1
 523 0 l 1
 505 0 l 2x76
 478 0 428 3 411 26 c 0
 389 54 385 69 385 69 c 1
 350 1 286 -5 227 -5 c 2
 187 -5 l 2
 104 -5 48 40 48 130 c 0xba
357 250 m 1
 274 241 164 236 164 147 c 0
 164 92 192 69 244 69 c 0xba
 281 69 316 92 336 126 c 0
 357 164 357 182 357 225 c 2
 357 250 l 1
EndSplineSet
Fore
SplineSet
48 130 m 3xf4
 48 215 98 271 194 298 c 0
 232 309 310 320 357 324 c 1
 357 345 l 2
 357 408 328 440 267 440 c 3
 208 440 174 416 164 368 c 1
 66 368 l 1xec
 79 474 154 526 282 526 c 3
 407 526 464 477 464 369 c 2
 464 144 l 2
 464 108 489 81 523 81 c 1
 523 -5 l 1
 505 -5 l 2
 435 -5 410 11 385 69 c 1
 358 16 316 -5 227 -5 c 2
 187 -5 l 2
 96 -5 48 46 48 130 c 3xf4
357 238 m 1
 313 234 243 224 219 216 c 0
 176 202 155 179 155 147 c 3xf4
 155 106 189 81 244 81 c 3
 315 81 357 131 357 213 c 2
 357 238 l 1
EndSplineSet
Layer: 2
SplineSet
48 130 m 259,0,1
 48 257 48 257 194 298 c 0,2,3
 253 315 253 315 357 324 c 1,4,-1
 357 345 l 2,5,6
 357 440 357 440 267 440 c 259,7,8
 179 440 179 440 164 368 c 1,9,-1
 66 368 l 1,10,11
 85 526 85 526 282 526 c 259,12,13
 376 526 376 526 420 488 c 128,-1,14
 464 450 464 450 464 369 c 2,15,-1
 464 144 l 2,16,17
 464 117 464 117 481 99 c 128,-1,18
 498 81 498 81 523 81 c 1,19,-1
 523 -5 l 1,20,-1
 505 -5 l 2,21,22
 453 -5 453 -5 428.5 10 c 128,-1,23
 404 25 404 25 385 69 c 1,24,25
 365 29 365 29 329 12 c 128,-1,26
 293 -5 293 -5 227 -5 c 2,27,-1
 187 -5 l 2,28,29
 120 -5 120 -5 84 30.5 c 128,-1,30
 48 66 48 66 48 130 c 259,0,1
357 238 m 1,31,32
 258 229 258 229 219 216 c 0,33,34
 155 195 155 195 155 147 c 259,35,36
 155 116 155 116 179 98.5 c 128,-1,37
 203 81 203 81 244 81 c 259,38,39
 297 81 297 81 327 116 c 128,-1,40
 357 151 357 151 357 213 c 2,41,-1
 357 238 l 1,31,32
EndSplineSet
EndChar

StartChar: b
Encoding: 98 98 67
Width: 541
Flags: W
HStem: -5 86<205.134 328.562> 440 86<210.476 330.194> 680 20G<63 170>
VStem: 63 107<0 39 120.968 395.387 466 700> 399 107<164.807 357.398>
LayerCount: 3
Back
SplineSet
310 -3 m 0xf4
 245 -3 182 6 162 49 c 1
 162 0 l 1
 63 0 l 1xec
 63 700 l 1
 170 700 l 1
 170 468 l 1
 176 466 l 1
 198 515 252 525 303 525 c 0
 452 525 512 392 512 256 c 0
 512 113 443 -3 310 -3 c 0xf4
271 435 m 0
 190 435 172 359 172 290 c 2
 172 212 l 2
 172 125 197.56 66 268 66 c 0
 360 66 399 187 399 256 c 0
 399 325 362 435 271 435 c 0
EndSplineSet
Fore
SplineSet
310 -5 m 3
 238 -5 188 9 170 39 c 1
 170 0 l 1
 63 0 l 1
 63 700 l 1
 170 700 l 1
 170 466 l 1
 188 506 233 526 303 526 c 3
 428 526 506 429 506 256 c 3
 506 96 432 -5 310 -5 c 3
271 440 m 3
 205 440 170 389 170 294 c 2
 170 216 l 2
 170 125 204 81 268 81 c 3
 340 81 399 161 399 260 c 3
 399 358 341 440 271 440 c 3
EndSplineSet
Layer: 2
SplineSet
310 -5 m 259,0,1
 196 -5 196 -5 170 39 c 1,2,-1
 170 0 l 1,3,-1
 63 0 l 1,4,-1
 63 700 l 1,5,-1
 170 700 l 1,6,7
 170 466 l 1,8,9
 197 526 197 526 303 526 c 259,10,11
 398 526 398 526 452 455.5 c 128,-1,12
 506 385 506 385 506 256 c 259,13,14
 506 136 506 136 453.5 65.5 c 128,-1,15
 401 -5 401 -5 310 -5 c 259,0,1
271 440 m 259,16,17
 170 440 170 440 170 294 c 2,18,-1
 170 216 l 2,19,20
 170 81 170 81 268 81 c 259,21,22
 322 81 322 81 360.5 133.5 c 128,-1,23
 399 186 399 186 399 260 c 259,24,25
 399 334 399 334 361 387 c 128,-1,26
 323 440 323 440 271 440 c 259,16,17
EndSplineSet
EndChar

StartChar: c
Encoding: 99 99 68
Width: 530
Flags: W
HStem: -5 86<215.199 334.268> 440 86<213.692 342.202>
VStem: 46 107<156.932 370.495> 383 104<76 180 349 453>
LayerCount: 3
Back
SplineSet
279 -4 m 0
 136.5 -4 46 102 46 254 c 0
 46 413 143 526 287 526 c 0
 408 526 468 453 484 349 c 1
 382 349 l 1
 376 396 349 437 291 437 c 0
 199 437 173 350 173 269 c 0
 173 191 192 86 287 86 c 0
 343 86 374 131 383 180 c 1
 487 178 l 1
 469 68 408 -4 279 -4 c 0
EndSplineSet
Fore
SplineSet
269 -5 m 3
 134 -5 46 95 46 254 c 3
 46 413 133 526 277 526 c 3
 390 526 467 462 484 349 c 1
 382 349 l 1
 375 403 333 440 281 440 c 3
 202 440 153 371 153 269 c 3
 153 154 203 81 277 81 c 3
 327 81 373 126 383 180 c 1
 487 178 l 1
 468 63 391 -5 269 -5 c 3
EndSplineSet
Layer: 2
SplineSet
269 -5 m 259,0,1
 167 -5 167 -5 106.5 65 c 128,-1,2
 46 135 46 135 46 254 c 259,3,4
 46 375 46 375 108.5 450.5 c 128,-1,5
 171 526 171 526 277 526 c 259,6,7
 362 526 362 526 416.5 479.5 c 128,-1,8
 471 433 471 433 484 349 c 1,9,-1
 382 349 l 1,10,11
 377 389 377 389 348.5 414.5 c 128,-1,12
 320 440 320 440 281 440 c 259,13,14
 222 440 222 440 187.5 393 c 128,-1,15
 153 346 153 346 153 269 c 259,16,17
 153 183 153 183 187 132 c 128,-1,18
 221 81 221 81 277 81 c 259,19,20
 314 81 314 81 344.5 110 c 128,-1,21
 375 139 375 139 383 180 c 1,22,-1
 487 178 l 1,23,24
 473 91 473 91 416.5 43 c 128,-1,25
 360 -5 360 -5 269 -5 c 259,0,1
EndSplineSet
EndChar

StartChar: d
Encoding: 100 100 69
Width: 530
Flags: W
HStem: -5 86<220.581 329.21> 440 86<222.041 330.447> 680 20G<377 484>
VStem: 48 107<160.249 361.738> 377 107<0 46 135.97 384.377 461 700>
LayerCount: 3
Back
SplineSet
383 0 m 1
 383 48 l 1
 374 46 l 1
 353 -1 323 -6 230 -6 c 0
 114 -6 48 115 48 251 c 0
 48 383 109 525 233 525 c 0
 306 525 336 516 377 461 c 1
 377 704 l 1
 484 704 l 1
 484 0 l 1
 383 0 l 1
284 72 m 0
 367 72 377 184 377 213 c 2
 377 284 l 2
 377 290 368 422 291 422 c 0
 198 422 162 320 162 247 c 0
 162 178 202 72 284 72 c 0
EndSplineSet
Fore
SplineSet
377 0 m 1
 377 46 l 1
 352 6 318 -5 230 -5 c 3
 122 -5 48 100 48 251 c 3
 48 409 123 526 233 526 c 3
 311 526 340 511 377 461 c 1
 377 700 l 1
 484 700 l 1
 484 0 l 1
 377 0 l 1
277 81 m 3
 333 81 377 147 377 221 c 2
 377 301 l 2
 377 372 332 440 284 440 c 3
 210 440 155 365 155 259 c 3
 155 165 209 81 277 81 c 3
EndSplineSet
Layer: 2
SplineSet
377 0 m 1,0,-1
 377 46 l 1,1,2
 358 16 358 16 327 5.5 c 128,-1,3
 296 -5 296 -5 230 -5 c 259,4,5
 149 -5 149 -5 98.5 66.5 c 128,-1,6
 48 138 48 138 48 251 c 259,7,8
 48 370 48 370 99.5 448 c 128,-1,9
 151 526 151 526 233 526 c 259,10,11
 291 526 291 526 320 512.5 c 128,-1,12
 349 499 349 499 377 461 c 1,13,-1
 377 700 l 1,14,-1
 484 700 l 1,15,-1
 484 0 l 1,16,-1
 377 0 l 1,0,-1
277 81 m 259,17,18
 318 81 318 81 347.5 123 c 128,-1,19
 377 165 377 165 377 221 c 2,20,-1
 377 301 l 2,21,22
 377 354 377 354 348.5 397 c 128,-1,23
 320 440 320 440 284 440 c 259,24,25
 228 440 228 440 191.5 389 c 128,-1,26
 155 338 155 338 155 259 c 259,27,28
 155 188 155 188 191 134.5 c 128,-1,29
 227 81 227 81 277 81 c 259,17,18
EndSplineSet
EndChar

StartChar: e
Encoding: 101 101 70
Width: 530
Flags: W
HStem: -5 86<210.565 343.958> 249 86<166 371> 440 86<201.322 338.619>
VStem: 374 103<112.46 157>
LayerCount: 3
Back
SplineSet
159 259 m 1
 161 214 l 2
 164 139 204 84 279 84 c 0
 325 84 363 106 374 159 c 1
 477 159 l 1
 461 113 425 -3 271 -3 c 4
 132 -3 43 114 43 268 c 0
 43 421 113 526 256 526 c 0
 362 526 423 489 449 434 c 0
 478 368 478 324 478 259 c 1
 159 259 l 1
276 440 m 0
 222 440 173 426 166 337 c 1
 376 337 l 1
 371 418 333 440 276 440 c 0
EndSplineSet
Fore
SplineSet
159 249 m 1
 161 212 l 2
 165 129 210 81 279 81 c 3
 331 81 363 106 374 157 c 1
 477 157 l 1
 437 42 379 -5 271 -5 c 3
 136 -5 43 108 43 268 c 3
 43 428 120 526 256 526 c 3
 421 526 478 455 478 249 c 1
 159 249 l 1
276 440 m 3
 206 440 172 409 166 335 c 1
 371 335 l 1
 367 406 335 440 276 440 c 3
EndSplineSet
Layer: 2
SplineSet
159 249 m 1,0,-1
 161 212 l 2,1,2
 164 150 164 150 195.5 115.5 c 128,-1,3
 227 81 227 81 279 81 c 259,4,5
 323 81 323 81 345 102.5 c 128,-1,6
 367 124 367 124 374 157 c 1,7,-1
 477 157 l 1,8,9
 447 70 447 70 399.5 32.5 c 128,-1,10
 352 -5 352 -5 271 -5 c 259,11,12
 170 -5 170 -5 106.5 71.5 c 128,-1,13
 43 148 43 148 43 268 c 259,14,15
 43 389 43 389 99 457.5 c 128,-1,16
 155 526 155 526 256 526 c 259,17,18
 380 526 380 526 429 464.5 c 128,-1,19
 478 403 478 403 478 249 c 1,20,-1
 159 249 l 1,0,-1
276 440 m 259,21,22
 223 440 223 440 196.5 415 c 128,-1,23
 170 390 170 390 166 335 c 1,24,-1
 371 335 l 1,25,26
 368 388 368 388 344 414 c 128,-1,27
 320 440 320 440 276 440 c 259,21,22
EndSplineSet
EndChar

StartChar: f
Encoding: 102 102 71
Width: 294
Flags: W
HStem: 0 21G<86 193> 435 86<28 86 193 282> 628 86<204.548 294>
VStem: 86 107<0 435 521 616.049>
LayerCount: 3
Back
SplineSet
255 628 m 0
 197 628 193 586 193 529 c 2
 193 498 l 1
 282 498 l 1
 282 415 l 1
 193 415 l 1
 193 0 l 1
 86 0 l 1
 86 415 l 1
 28 415 l 1
 28 498 l 1
 86 498 l 1
 86 543 l 2
 86 586 88 625 106 651 c 4
 132 695 182 714 231 714 c 0
 242 714 294 710 294 710 c 1
 294 627 l 1
 294 627 265 628 255 628 c 0
EndSplineSet
Fore
SplineSet
255 628 m 3
 211 628 193 608 193 552 c 2
 193 521 l 1
 282 521 l 1
 282 435 l 1
 193 435 l 1
 193 0 l 1
 86 0 l 1
 86 435 l 1
 28 435 l 1
 28 521 l 1
 86 521 l 1
 86 566 l 2
 86 664 132 714 231 714 c 3
 242 714 281 711 294 710 c 1
 294 627 l 1
 277 628 265 628 255 628 c 3
EndSplineSet
Layer: 2
SplineSet
255 628 m 3,0,1
 222 628 222 628 207.5 611 c 128,-1,2
 193 594 193 594 193 552 c 2,3,-1
 193 521 l 1,4,-1
 282 521 l 1,5,-1
 282 435 l 1,6,-1
 193 435 l 1,7,-1
 193 0 l 1,8,-1
 86 0 l 1,9,-1
 86 435 l 1,10,-1
 28 435 l 1,11,-1
 28 521 l 1,12,-1
 86 521 l 1,13,-1
 86 566 l 2,14,15
 86 640 86 640 122 677 c 128,-1,16
 158 714 158 714 231 714 c 3,17,18
 242 714 242 714 294 710 c 1,19,-1
 294 627 l 1,20,21
 277 628 277 628 255 628 c 3,0,1
EndSplineSet
EndChar

StartChar: g
Encoding: 103 103 72
Width: 525
Flags: W
HStem: -215 86<168.776 320.306> -5 86<186.631 313.765> 440 86<182.528 304.648>
VStem: 20 107<-89.422 -34 150.17 372.238> 362 107<-73.2624 49 136.292 369.702 460 521>
LayerCount: 3
Back
SplineSet
376 460 m 1xf4
 376 524 l 1
 469 524 l 1
 469 103 l 2
 469 -76 449 -231 246 -231 c 0
 142 -231 37 -177 34 -55 c 1
 132 -55 l 1xec
 134 -122 188 -150 256 -150 c 0
 331 -150 376 -96 376 -31 c 2
 376 49 l 1
 339 19 296 -2 234 -2 c 0
 91 -2 20 118 20 248 c 0
 20 398 102 523 232 523 c 0
 285 523 335 507 376 460 c 1xf4
246 431 m 0
 156 431 116 339 116 252 c 0xf4
 116 151 169 81 251 81 c 0
 341 81 374 165 374 250 c 0
 374 348 325 431 246 431 c 0
EndSplineSet
Fore
SplineSet
362 460 m 1
 362 521 l 1
 469 521 l 1
 469 119 l 2
 469 -124 409 -215 242 -215 c 3
 118 -215 25 -140 25 -34 c 1
 132 -34 l 1
 132 -96 175 -129 250 -129 c 3
 318 -129 362 -87 362 -15 c 2
 362 49 l 1
 320 11 282 -5 234 -5 c 3
 105 -5 20 97 20 248 c 3
 20 409 108 526 232 526 c 3
 285 526 321 507 362 460 c 1
246 440 m 3
 172 440 127 373 127 256 c 3
 127 148 174 81 251 81 c 3
 324 81 362 140 362 254 c 3
 362 367 316 440 246 440 c 3
EndSplineSet
Layer: 2
SplineSet
362 460 m 1,0,-1
 362 521 l 1,1,-1
 469 521 l 1,2,-1
 469 119 l 2,3,4
 469 -64 469 -64 418 -139.5 c 128,-1,5
 367 -215 367 -215 242 -215 c 259,6,7
 148 -215 148 -215 86.5 -164 c 128,-1,8
 25 -113 25 -113 25 -34 c 1,9,-1
 132 -34 l 1,10,11
 132 -80 132 -80 162.5 -104.5 c 128,-1,12
 193 -129 193 -129 250 -129 c 259,13,14
 302 -129 302 -129 332 -98.5 c 128,-1,15
 362 -68 362 -68 362 -15 c 2,16,-1
 362 49 l 1,17,18
 302 -5 302 -5 234 -5 c 259,19,20
 137 -5 137 -5 78.5 64.5 c 128,-1,21
 20 134 20 134 20 248 c 259,22,23
 20 369 20 369 79.5 447.5 c 128,-1,24
 139 526 139 526 232 526 c 259,25,26
 271 526 271 526 301 511 c 128,-1,27
 331 496 331 496 362 460 c 1,0,-1
246 440 m 259,28,29
 190 440 190 440 158.5 391.5 c 128,-1,30
 127 343 127 343 127 256 c 259,31,32
 127 175 127 175 160 128 c 128,-1,33
 193 81 193 81 251 81 c 259,34,35
 307 81 307 81 334.5 124.5 c 128,-1,36
 362 168 362 168 362 254 c 259,37,38
 362 339 362 339 330.5 389.5 c 128,-1,39
 299 440 299 440 246 440 c 259,28,29
EndSplineSet
EndChar

StartChar: h
Encoding: 104 104 73
Width: 530
Flags: W
HStem: 0 21G<64 171 365 472> 440 86<244.343 353.212> 680 20G<64 171>
VStem: 64 107<0 369.15 442 700> 365 107<0 427.219>
LayerCount: 3
Back
SplineSet
365 0 m 1
 365 313 l 2
 365 381.01 361 418 308 418 c 0
 261 418 204 383 189 347 c 0
 173 314 172 275 172 243 c 2
 172 0 l 1
 64 0 l 1
 64 700 l 1
 172 700 l 1
 172 442 l 1
 175 438 l 1
 201 505 293 525 346 525 c 0
 439 525 472 450 472 361 c 2
 472 0 l 1
 365 0 l 1
EndSplineSet
Fore
SplineSet
365 0 m 1
 365 335 l 2
 365 416 354 440 308 440 c 3
 222 440 171 376 171 265 c 2
 171 0 l 1
 64 0 l 1
 64 700 l 1
 171 700 l 1
 171 442 l 1
 174 438 l 1
 189 488 266 526 346 526 c 3
 427 526 472 466 472 361 c 2
 472 0 l 1
 365 0 l 1
EndSplineSet
Layer: 2
SplineSet
365 0 m 1,0,-1
 365 335 l 2,1,2
 365 397 365 397 353.5 418.5 c 128,-1,3
 342 440 342 440 308 440 c 259,4,5
 243 440 243 440 207 394 c 128,-1,6
 171 348 171 348 171 265 c 2,7,-1
 171 0 l 1,8,-1
 64 0 l 1,9,-1
 64 700 l 1,10,-1
 171 700 l 1,11,-1
 171 442 l 1,12,-1
 174 438 l 1,13,14
 185 475 185 475 235.5 500.5 c 128,-1,15
 286 526 286 526 346 526 c 259,16,17
 407 526 407 526 439.5 483 c 128,-1,18
 472 440 472 440 472 361 c 2,19,-1
 472 0 l 1,20,-1
 365 0 l 1,0,-1
EndSplineSet
EndChar

StartChar: i
Encoding: 105 105 74
Width: 254
Flags: W
HStem: 0 21G<72 179> 501 20G<72 179> 595 105<72 179>
VStem: 72 107<0 521 595 700>
LayerCount: 3
Fore
SplineSet
72 595 m 1
 72 700 l 1
 179 700 l 1
 179 595 l 1
 72 595 l 1
72 0 m 1
 72 521 l 1
 179 521 l 1
 179 0 l 1
 72 0 l 1
EndSplineSet
Validated: 1
Layer: 2
SplineSet
72 595 m 1,0,-1
 72 700 l 1,1,-1
 179 700 l 1,2,-1
 179 595 l 1,3,-1
 72 595 l 1,0,-1
72 0 m 1,4,-1
 72 521 l 1,5,-1
 179 521 l 1,6,-1
 179 0 l 1,7,-1
 72 0 l 1,4,-1
EndSplineSet
EndChar

StartChar: j
Encoding: 106 106 75
Width: 254
Flags: W
HStem: -215 86<-23 53.462> 501 20G<72 179> 595 105<72 179>
VStem: 72 107<-109.109 521 595 700>
LayerCount: 3
Back
SplineSet
72 595 m 1
 72 700 l 1
 179 700 l 1
 179 595 l 1
 72 595 l 1
-6 -231 m 0
 -12 -231 -23 -229 -23 -229 c 1
 -23 -143 l 1
 -23 -143 -5 -145 4 -145 c 0
 52 -145 72 -124 72 -16 c 2
 72 521 l 1
 179 521 l 1
 179 -16 l 2
 179 -189 156 -231 -6 -231 c 0
72 594 m 1
 72 700 l 1
 179 700 l 1
 179 594 l 1
 72 594 l 1
-6 -207 m 0
 -12 -207 -23 -205 -23 -205 c 1
 -23 -118 l 1
 -23 -118 -5 -120 4 -120 c 0
 78 -120 72 -56 72 8 c 2
 72 525 l 1
 179 525 l 1
 179 8 l 2
 179 -165 156 -207 -6 -207 c 0
EndSplineSet
Fore
SplineSet
72 595 m 1
 72 700 l 1
 179 700 l 1
 179 595 l 1
 72 595 l 1
-6 -215 m 3
 -12 -215 -16 -215 -23 -213 c 1
 -23 -127 l 1
 -13 -129 -5 -129 4 -129 c 3
 56 -129 72 -100 72 0 c 2
 72 521 l 1
 179 521 l 1
 179 0 l 2
 179 -179 150 -215 -6 -215 c 3
EndSplineSet
Layer: 2
SplineSet
72 595 m 1,0,-1
 72 700 l 1,1,-1
 179 700 l 1,2,-1
 179 595 l 1,3,-1
 72 595 l 1,0,-1
-6 -215 m 259,4,5
 -16 -215 -16 -215 -23 -213 c 1,6,-1
 -23 -127 l 1,7,8
 -13 -129 -13 -129 4 -129 c 259,9,10
 43 -129 43 -129 57.5 -102 c 128,-1,11
 72 -75 72 -75 72 0 c 2,12,-1
 72 521 l 1,13,-1
 179 521 l 1,14,-1
 179 0 l 2,15,16
 179 -135 179 -135 145 -175 c 128,-1,17
 111 -215 111 -215 -6 -215 c 259,4,5
EndSplineSet
EndChar

StartChar: k
Encoding: 107 107 76
Width: 548
Flags: W
HStem: 0 21G<74 181 388.274 517> 501 20G<371.891 503> 680 20G<74 181>
VStem: 74 107<0 121 264 700> 388 115<406 521>
DStem2: 181 264 284 259 0.627278 0.778795<0 60.7157 186.138 329.997> 366 354 284 259 0.392351 -0.919816<55.2097 337.778>
LayerCount: 3
Fore
SplineSet
397 0 m 1
 284 259 l 1
 181 121 l 1
 181 0 l 1
 74 0 l 1
 74 700 l 1
 181 700 l 1
 181 264 l 1
 388 521 l 1
 503 521 l 1
 366 354 l 1
 517 0 l 1
 397 0 l 1
EndSplineSet
Validated: 1
Layer: 2
SplineSet
397 0 m 1,0,-1
 284 259 l 1,1,-1
 181 121 l 1,2,-1
 181 0 l 1,3,-1
 74 0 l 1,4,-1
 74 700 l 1,5,-1
 181 700 l 1,6,-1
 181 264 l 1,7,-1
 388 521 l 1,8,-1
 503 521 l 1,9,-1
 366 354 l 1,10,-1
 517 0 l 1,11,-1
 397 0 l 1,0,-1
EndSplineSet
EndChar

StartChar: l
Encoding: 108 108 77
Width: 254
Flags: W
HStem: 0 21G<72 179> 680 20G<72 179>
VStem: 72 107<0 700>
LayerCount: 3
Fore
SplineSet
72 0 m 1
 72 700 l 1
 179 700 l 1
 179 0 l 1
 72 0 l 1
EndSplineSet
Validated: 1
Layer: 2
SplineSet
72 0 m 1,0,-1
 72 700 l 1,1,-1
 179 700 l 1,2,-1
 179 0 l 1,3,-1
 72 0 l 1,0,-1
EndSplineSet
EndChar

StartChar: m
Encoding: 109 109 78
Width: 804
Flags: W
HStem: 0 21G<66 173 348 455 630 737> 440 86<220.817 327.513 501.305 610.166>
VStem: 66 107<0 378.004 446 521> 348 107<0 386.37> 630 107<0 420.152>
CounterMasks: 1 38
LayerCount: 3
Back
SplineSet
630 0 m 1
 630 354 l 2
 630 410 605 435 549 435 c 0
 504 435 455 374 455 304 c 2
 455 0 l 1
 348 0 l 1
 348 304 l 2
 348 388 341 437 273 437 c 0
 227 437 195 385 182 349 c 0
 173 319 173 282 173 250 c 2
 173 0 l 1
 66 0 l 1
 66 521 l 1
 167 521 l 1
 167 457 l 1
 169 449 l 1
 207 518 254 526 313 526 c 0
 360 526 411 475 422 435 c 1
 466 518 525 526 577 526 c 0
 706 526 737 444 737 372 c 2
 737 0 l 1
 630 0 l 1
EndSplineSet
Fore
SplineSet
630 0 m 1
 630 359 l 2
 630 415 605 440 549 440 c 3
 504 440 455 379 455 309 c 2
 455 0 l 1
 348 0 l 1
 348 309 l 2
 348 409 331 440 273 440 c 3
 212 440 173 370 173 255 c 2
 173 0 l 1
 66 0 l 1
 66 521 l 1
 167 521 l 1
 167 446 l 1
 198 505 237 526 313 526 c 3
 356 526 410 480 422 435 c 1
 457 500 501 526 577 526 c 3
 678 526 737 474 737 372 c 2
 737 0 l 1
 630 0 l 1
EndSplineSet
Layer: 2
SplineSet
630 0 m 1,0,-1
 630 359 l 2,1,2
 630 401 630 401 610.5 420.5 c 128,-1,3
 591 440 591 440 549 440 c 259,4,5
 514 440 514 440 484.5 400 c 128,-1,6
 455 360 455 360 455 309 c 2,7,-1
 455 0 l 1,8,-1
 348 0 l 1,9,-1
 348 309 l 2,10,11
 348 384 348 384 332 412 c 128,-1,12
 316 440 316 440 273 440 c 259,13,14
 227 440 227 440 200 390.5 c 128,-1,15
 173 341 173 341 173 255 c 2,16,-1
 173 0 l 1,17,-1
 66 0 l 1,18,-1
 66 521 l 1,19,-1
 167 521 l 1,20,-1
 167 446 l 1,21,22
 190 490 190 490 223 508 c 128,-1,23
 256 526 256 526 313 526 c 259,24,25
 345 526 345 526 379 497.5 c 128,-1,26
 413 469 413 469 422 435 c 1,27,28
 448 484 448 484 484 505 c 128,-1,29
 520 526 520 526 577 526 c 259,30,31
 654 526 654 526 695.5 487 c 128,-1,32
 737 448 737 448 737 372 c 2,33,-1
 737 0 l 1,34,-1
 630 0 l 1,0,-1
EndSplineSet
EndChar

StartChar: n
Encoding: 110 110 79
Width: 530
Flags: W
HStem: 0 21G<67 174 356 463> 440 86<230.271 333.656>
VStem: 67 107<0 381.009 443 521> 356 107<0 417.641>
LayerCount: 3
Back
SplineSet
356 0 m 1
 356 298 l 2
 356 374 348 430 282 430 c 0
 234 430 174 385 174 267 c 2
 174 0 l 1
 67 0 l 1
 67 521 l 1
 172 521 l 1
 172 443 l 1
 212 504 252 526 301 526 c 0
 420 526 463 485 463 339 c 2
 463 0 l 1
 356 0 l 1
EndSplineSet
Fore
SplineSet
356 0 m 1
 356 308 l 2
 356 405 337 440 282 440 c 3
 218 440 174 375 174 277 c 2
 174 0 l 1
 67 0 l 1
 67 521 l 1
 172 521 l 1
 172 443 l 1
 209 500 251 526 301 526 c 3
 425 526 463 479 463 339 c 2
 463 0 l 1
 356 0 l 1
EndSplineSet
Layer: 2
SplineSet
356 0 m 1,0,-1
 356 308 l 2,1,2
 356 381 356 381 339.5 410.5 c 128,-1,3
 323 440 323 440 282 440 c 259,4,5
 234 440 234 440 204 395 c 128,-1,6
 174 350 174 350 174 277 c 2,7,-1
 174 0 l 1,8,-1
 67 0 l 1,9,-1
 67 521 l 1,10,-1
 172 521 l 1,11,-1
 172 443 l 1,12,13
 226 526 226 526 301 526 c 259,14,15
 393 526 393 526 428 485.5 c 128,-1,16
 463 445 463 445 463 339 c 2,17,-1
 463 0 l 1,18,-1
 356 0 l 1,0,-1
EndSplineSet
EndChar

StartChar: o
Encoding: 111 111 80
Width: 536
Flags: W
HStem: -5 86<205.342 330.658> 440 86<205.342 330.658>
VStem: 40 107<151.193 370.548> 389 107<151.193 370.548>
LayerCount: 3
Back
SplineSet
264 -3 m 0
 123 -3 40 110 40 261 c 0
 40 412 123 526 264 526 c 0
 406 526 495 409 495 256 c 0
 495 109 399 -3 264 -3 c 0
264 443 m 0
 172 443 158 347 158 277 c 0
 158 207 176 75 268 75 c 0
 360 75 377 184 377 254 c 0
 377 324 356 443 264 443 c 0
EndSplineSet
Fore
SplineSet
268 -5 m 3
 130 -5 40 104 40 261 c 3
 40 418 130 526 268 526 c 3
 406 526 496 418 496 261 c 3
 496 104 406 -5 268 -5 c 3
268 440 m 3
 192 440 147 370 147 261 c 3
 147 152 192 81 268 81 c 3
 344 81 389 152 389 261 c 3
 389 370 344 440 268 440 c 3
EndSplineSet
Layer: 2
SplineSet
268 -5 m 259,0,1
 165 -5 165 -5 102.5 69 c 128,-1,2
 40 143 40 143 40 261 c 259,3,4
 40 379 40 379 102.5 452.5 c 128,-1,5
 165 526 165 526 268 526 c 259,6,7
 371 526 371 526 433.5 452.5 c 128,-1,8
 496 379 496 379 496 261 c 259,9,10
 496 143 496 143 433.5 69 c 128,-1,11
 371 -5 371 -5 268 -5 c 259,0,1
268 440 m 259,12,13
 211 440 211 440 179 391.5 c 128,-1,14
 147 343 147 343 147 261 c 259,15,16
 147 179 147 179 179 130 c 128,-1,17
 211 81 211 81 268 81 c 259,18,19
 325 81 325 81 357 130 c 128,-1,20
 389 179 389 179 389 261 c 259,21,22
 389 343 389 343 357 391.5 c 128,-1,23
 325 440 325 440 268 440 c 259,12,13
EndSplineSet
EndChar

StartChar: p
Encoding: 112 112 81
Width: 536
Flags: W
HStem: -199 21G<54 161> -5 86<207.019 321.21> 440 86<217.226 322.679>
VStem: 54 107<-199 38 133.782 387.798 448 521> 388 107<164.933 360.747>
LayerCount: 3
Back
SplineSet
297 -5 m 0xd8
 268 -5 198 -12 175 40 c 1
 161 38 l 1
 161 -179 l 1
 54 -179 l 1xe8
 54 521 l 1
 152 521 l 1
 152 438 l 1
 187 508 250 526 313 526 c 0
 442 526 495 382 495 258 c 0
 495 124 426 -5 297 -5 c 0xd8
264 432 m 0
 212 432 161 387 161 291 c 2
 161 219 l 2
 161 125 208 75 261 75 c 0
 346 75 380 193 380 256 c 0
 380 322 346 432 264 432 c 0
EndSplineSet
Fore
SplineSet
268 -5 m 3
 218 -5 181 8 161 38 c 1
 161 -199 l 1
 54 -199 l 1
 54 521 l 1
 161 521 l 1
 161 448 l 1
 192 501 242 526 313 526 c 3
 419 526 495 419 495 258 c 3
 495 92 417 -5 268 -5 c 3
268 440 m 3
 204 440 161 381 161 299 c 2
 161 225 l 2
 161 140 204 81 265 81 c 3
 329 81 388 161 388 263 c 3
 388 356 334 440 268 440 c 3
EndSplineSet
Layer: 2
SplineSet
268 -5 m 259,0,1
 190 -5 190 -5 161 38 c 1,2,-1
 161 -199 l 1,3,-1
 54 -199 l 1,4,-1
 54 521 l 1,5,-1
 161 521 l 1,6,-1
 161 448 l 1,7,8
 207 526 207 526 313 526 c 259,9,10
 393 526 393 526 444 452 c 128,-1,11
 495 378 495 378 495 258 c 259,12,13
 495 132 495 132 437 63.5 c 128,-1,14
 379 -5 379 -5 268 -5 c 259,0,1
268 440 m 259,15,16
 220 440 220 440 190.5 400.5 c 128,-1,17
 161 361 161 361 161 299 c 2,18,-1
 161 225 l 2,19,20
 161 161 161 161 190 121 c 128,-1,21
 219 81 219 81 265 81 c 259,22,23
 314 81 314 81 351 134.5 c 128,-1,24
 388 188 388 188 388 263 c 259,25,26
 388 334 388 334 352.5 387 c 128,-1,27
 317 440 317 440 268 440 c 259,15,16
EndSplineSet
EndChar

StartChar: q
Encoding: 113 113 82
Width: 530
Flags: W
HStem: -199 21G<374 481> -5 86<195.39 318.571> 440 86<209.541 330.684>
VStem: 34 107<142.741 363.239> 374 107<-199 46 143.611 393.271 464 521>
LayerCount: 3
Back
SplineSet
481 521 m 1
 481 -179 l 1
 374 -179 l 1
 374 46 l 1
 336 -8 288 -5 242 -5 c 0
 109 -5 34 120 34 259 c 0
 34 399 103 523 239 523 c 0
 302 523 353 515 382 454 c 1
 382 521 l 1
 481 521 l 1
377 307 m 2
 377 362 347 435 276 435 c 0
 182 435 149 331 149 259 c 0
 149 159 173 80 264 80 c 0
 335 80 377 163 377 224 c 2
 377 307 l 2
EndSplineSet
Fore
SplineSet
481 521 m 1
 481 -199 l 1
 374 -199 l 1
 374 46 l 1
 348 8 320 -5 256 -5 c 3
 123 -5 34 95 34 259 c 3
 34 421 117 526 239 526 c 3
 313 526 349 508 374 464 c 1
 374 521 l 1
 481 521 l 1
374 312 m 2
 374 388 332 440 272 440 c 3
 196 440 141 365 141 262 c 3
 141 137 184 81 260 81 c 3
 322 81 374 150 374 225 c 2
 374 312 l 2
EndSplineSet
Layer: 2
SplineSet
481 521 m 1,0,-1
 481 -199 l 1,1,-1
 374 -199 l 1,2,-1
 374 46 l 1,3,4
 354 17 354 17 329 6 c 128,-1,5
 304 -5 304 -5 256 -5 c 259,6,7
 155 -5 155 -5 94.5 66 c 128,-1,8
 34 137 34 137 34 259 c 259,9,10
 34 380 34 380 90.5 453 c 128,-1,11
 147 526 147 526 239 526 c 259,12,13
 294 526 294 526 324.5 511.5 c 128,-1,14
 355 497 355 497 374 464 c 1,15,-1
 374 521 l 1,16,-1
 481 521 l 1,0,-1
374 312 m 2,17,18
 374 369 374 369 345.5 404.5 c 128,-1,19
 317 440 317 440 272 440 c 259,20,21
 215 440 215 440 178 389.5 c 128,-1,22
 141 339 141 339 141 262 c 259,23,24
 141 167 141 167 172 124 c 128,-1,25
 203 81 203 81 260 81 c 259,26,27
 306 81 306 81 340 124.5 c 128,-1,28
 374 168 374 168 374 225 c 2,29,-1
 374 312 l 2,17,18
EndSplineSet
EndChar

StartChar: r
Encoding: 114 114 83
Width: 346
Flags: W
HStem: 0 21G<49 156> 426 100<215.068 319>
VStem: 49 107<0 366.112 455 521>
LayerCount: 3
Back
SplineSet
155 455 m 1
 185 498 230 526 264 526 c 2
 319 526 l 1
 319 419 l 1
 291 419 258 416 231 407 c 0
 179 383 155 339 155 254 c 2
 155 0 l 1
 49 0 l 1
 49 521 l 1
 155 521 l 1
 155 455 l 1
EndSplineSet
Fore
SplineSet
299 426 m 2
 198 426 156 367 156 261 c 2
 156 0 l 1
 49 0 l 1
 49 521 l 1
 156 521 l 1
 156 455 l 1
 189 503 225 526 264 526 c 2
 319 526 l 1
 319 426 l 1
 299 426 l 2
EndSplineSet
Layer: 2
SplineSet
299 426 m 2,0,1
 230 426 230 426 193 386.5 c 128,-1,2
 156 347 156 347 156 261 c 2,3,-1
 156 0 l 1,4,-1
 49 0 l 1,5,-1
 49 521 l 1,6,-1
 156 521 l 1,7,-1
 156 455 l 1,8,9
 205 526 205 526 264 526 c 2,10,-1
 319 526 l 1,11,-1
 319 426 l 1,12,-1
 299 426 l 2,0,1
EndSplineSet
EndChar

StartChar: s
Encoding: 115 115 84
Width: 482
Flags: W
HStem: -5 86<172.537 333.932> 440 86<169.412 301.47>
VStem: 32 107<111.266 185> 46 107<351.47 422.564> 327 107<349 415.538> 349 107<96.8629 184.25>
LayerCount: 3
Back
SplineSet
456 159 m 0xd4
 456 113 424.5 -6 265 -6 c 0
 129 -6 35 20 32 184 c 1
 127 184 l 1
 135 94 193 80 268 80 c 0
 309 80 356 94 356 147 c 0xe4
 356 170 348.753 188.176 314 199 c 0
 253 217.999 197.987 238.983 139 265 c 0
 97.5432 283.285 46 300 46 379 c 0
 46 484 136 526 238 526 c 0
 374 526 429 468 434 349 c 1
 336 349 l 1xd8
 334 414 307 435 230 435 c 0
 182 435 152 411 152 385 c 0
 152 298 456 333 456 159 c 0xd4
EndSplineSet
Fore
SplineSet
234 227 m 0xe4
 87 274 46 310 46 379 c 3
 46 470 115 526 238 526 c 3
 370 526 429 472 434 349 c 1
 327 349 l 1
 325 414 298 440 230 440 c 3
 186 440 153 414 153 385 c 3xd8
 153 357 185 337 259 318 c 0
 402 282 456 234 456 160 c 3
 456 64 377 -5 265 -5 c 3
 97 -5 34 47 32 185 c 1
 139 185 l 1
 139 109 173 81 268 81 c 3
 322 81 349 102 349 148 c 3
 349 179 320 199 234 227 c 0xe4
EndSplineSet
Layer: 2
SplineSet
234 227 m 256,0,1
 125 262 125 262 85.5 294.5 c 128,-1,2
 46 327 46 327 46 379 c 259,3,4
 46 448 46 448 96 487 c 128,-1,5
 146 526 146 526 238 526 c 259,6,7
 337 526 337 526 383.5 483.5 c 128,-1,8
 430 441 430 441 434 349 c 1,9,-1
 327 349 l 1,10,11
 325 398 325 398 303 419 c 128,-1,12
 281 440 281 440 230 440 c 259,13,14
 198 440 198 440 175.5 423.5 c 128,-1,15
 153 407 153 407 153 385 c 259,16,17
 153 345 153 345 259 318 c 256,18,19
 365 291 365 291 410.5 253.5 c 128,-1,20
 456 216 456 216 456 160 c 259,21,22
 456 88 456 88 402.5 41.5 c 128,-1,23
 349 -5 349 -5 265 -5 c 259,24,25
 139 -5 139 -5 86.5 38 c 128,-1,26
 34 81 34 81 32 185 c 1,27,-1
 139 185 l 1,28,29
 139 128 139 128 168 104.5 c 128,-1,30
 197 81 197 81 268 81 c 259,31,32
 311 81 311 81 330 98 c 128,-1,33
 349 115 349 115 349 148 c 259,34,35
 349 171 349 171 323.5 188.5 c 128,-1,36
 298 206 298 206 234 227 c 256,0,1
EndSplineSet
EndChar

StartChar: t
Encoding: 116 116 85
Width: 372
Flags: W
HStem: -5 86<227.967 324.836> 435 86<23 105 212 322> 680 20G<105 212>
VStem: 105 107<95.9626 435 521 700>
LayerCount: 3
Back
SplineSet
326 1 m 1
 300 -1 281 -6 254 -6 c 0
 118 -6 105 54 105 158 c 2
 105 435 l 1
 23 435 l 1
 23 521 l 1
 109 521 l 1
 109 700 l 1
 212 700 l 1
 212 523 l 1
 322 523 l 1
 322 435 l 1
 212 435 l 1
 212 189 l 2
 212 127 213 80 286 80 c 0
 298 80 302 81 326 83 c 1
 326 1 l 1
EndSplineSet
Fore
SplineSet
326 2 m 1
 300 -2 279 -5 254 -5 c 3
 138 -5 105 30 105 159 c 2
 105 435 l 1
 23 435 l 1
 23 521 l 1
 105 521 l 1
 105 700 l 1
 212 700 l 1
 212 521 l 1
 322 521 l 1
 322 435 l 1
 212 435 l 1
 212 190 l 2
 212 102 229 81 286 81 c 3
 296 81 302 81 326 84 c 1
 326 2 l 1
EndSplineSet
Layer: 2
SplineSet
326 2 m 1,0,1
 280 -5 280 -5 254 -5 c 259,2,3
 167 -5 167 -5 136 29 c 128,-1,4
 105 63 105 63 105 159 c 2,5,-1
 105 435 l 1,6,-1
 23 435 l 1,7,-1
 23 521 l 1,8,-1
 105 521 l 1,9,-1
 105 700 l 1,10,-1
 212 700 l 1,11,-1
 212 521 l 1,12,-1
 322 521 l 1,13,-1
 322 435 l 1,14,-1
 212 435 l 1,15,-1
 212 190 l 2,16,17
 212 125 212 125 227.5 103 c 128,-1,18
 243 81 243 81 286 81 c 259,19,20
 302 81 302 81 326 84 c 1,21,-1
 326 2 l 1,0,1
EndSplineSet
EndChar

StartChar: u
Encoding: 117 117 86
Width: 530
Flags: W
HStem: -5 86<199.604 300.78> 501 20G<72 179 351 458>
VStem: 72 107<99.2031 521> 351 107<0 69 134.072 521>
LayerCount: 3
Back
SplineSet
362 0 m 1x68
 362 69 l 1x68
 340 69 l 1
 299 6 259 -6 199 -6 c 0
 75 -6 72 98 72 190 c 2
 72 521 l 1
 179 521 l 1
 179 190 l 2
 179 135 189 94 253 94 c 0
 317 94 351 164 351 204 c 2
 351 521 l 1
 458 521 l 1x70
 458 0 l 1
 362 0 l 1x68
EndSplineSet
Fore
SplineSet
351 0 m 1
 351 69 l 1
 316 15 281 -5 210 -5 c 3
 108 -5 72 47 72 190 c 2
 72 521 l 1
 179 521 l 1
 179 190 l 2
 179 118 200 81 240 81 c 3
 300 81 351 139 351 204 c 2
 351 521 l 1
 458 521 l 1
 458 0 l 1
 351 0 l 1
EndSplineSet
Layer: 2
SplineSet
351 0 m 1,0,-1
 351 69 l 1,1,2
 324 28 324 28 293.5 11.5 c 128,-1,3
 263 -5 263 -5 210 -5 c 259,4,5
 134 -5 134 -5 103 39 c 128,-1,6
 72 83 72 83 72 190 c 2,7,-1
 72 521 l 1,8,-1
 179 521 l 1,9,-1
 179 190 l 2,10,11
 179 133 179 133 195 107 c 128,-1,12
 211 81 211 81 240 81 c 259,13,14
 285 81 285 81 318 118 c 128,-1,15
 351 155 351 155 351 204 c 2,16,-1
 351 521 l 1,17,-1
 458 521 l 1,18,-1
 458 0 l 1,19,-1
 351 0 l 1,0,-1
EndSplineSet
EndChar

StartChar: v
Encoding: 118 118 87
Width: 469
Flags: W
HStem: 0 21G<178.973 302.065> 501 20G<28 148.983 337.587 454>
VStem: 28 115<406 521> 343 111<410 521>
DStem2: 143 521 28 521 0.288528 -0.957471<0 366.368> 248 170 296 0 0.290211 0.956963<0 363.464>
LayerCount: 3
Fore
SplineSet
296 0 m 1
 185 0 l 1
 28 521 l 1
 143 521 l 1
 248 170 l 1
 343 521 l 1
 454 521 l 1
 296 0 l 1
EndSplineSet
Validated: 1
Layer: 2
SplineSet
296 0 m 1,0,-1
 185 0 l 1,1,-1
 28 521 l 1,2,-1
 143 521 l 1,3,-1
 248 170 l 1,4,-1
 343 521 l 1,5,-1
 454 521 l 1,6,-1
 296 0 l 1,0,-1
EndSplineSet
EndChar

StartChar: w
Encoding: 119 119 88
Width: 726
Flags: W
HStem: 0 21G<161.587 280.652 453.348 564.374> 501 20G<26 145.68 308.406 427.874 596.209 699>
VStem: 26 115<406 521> 601 98<423 521>
DStem2: 141 521 26 521 0.261236 -0.965275<0 368.478> 231 164 276 0 0.226571 0.973995<0 234.446> 423 521 371 374 0.226571 -0.973995<131.396 367.428> 515 162 559 0 0.259508 0.965741<0 369.019>
LayerCount: 3
Fore
SplineSet
559 0 m 1
 458 0 l 1
 371 374 l 1
 363 374 l 1
 276 0 l 1
 167 0 l 1
 26 521 l 1
 141 521 l 1
 225 162 l 1
 231 164 l 1
 313 521 l 1
 423 521 l 1
 510 164 l 1
 515 162 l 1
 601 521 l 1
 699 521 l 1
 559 0 l 1
EndSplineSet
Validated: 1
Layer: 2
SplineSet
559 0 m 1,0,-1
 458 0 l 1,1,-1
 371 374 l 1,2,-1
 363 374 l 1,3,-1
 276 0 l 1,4,-1
 167 0 l 1,5,-1
 26 521 l 1,6,-1
 141 521 l 1,7,-1
 225 162 l 1,8,-1
 231 164 l 1,9,-1
 313 521 l 1,10,-1
 423 521 l 1,11,-1
 510 164 l 1,12,-1
 515 162 l 1,13,-1
 601 521 l 1,14,-1
 699 521 l 1,15,-1
 559 0 l 1,0,-1
EndSplineSet
EndChar

StartChar: x
Encoding: 120 120 89
Width: 530
Flags: W
HStem: 0 21G<49 173.412 341.941 477> 501 20G<65 200.064 336.511 461>
DStem2: 49 0 162 0 0.497752 0.86732<56.2459 251.972 438.091 600.701> 189 521 65 521 0.483788 -0.875185<0 161.137 341.055 535.313>
LayerCount: 3
Back
SplineSet
353 0 m 1
 65 521 l 1
 189 521 l 1
 477 0 l 1
 353 0 l 1
162 0 m 1
 49 0 l 1
 348 521 l 1
 461 521 l 1
 162 0 l 1
353 0 m 1
 259 184 l 1
 162 0 l 1
 49 0 l 1
 204 270 l 1
 64 521 l 1
 189 521 l 1
 267 360 l 1
 346 521 l 1
 454 521 l 1
 320 281 l 1
 477 0 l 1
 353 0 l 1
EndSplineSet
Fore
SplineSet
162 0 m 1
 49 0 l 1
 204 270 l 1
 65 521 l 1
 189 521 l 1
 267 380 l 1
 348 521 l 1
 461 521 l 1
 322 280 l 1
 477 0 l 1
 353 0 l 1
 259 170 l 1
 162 0 l 1
EndSplineSet
Validated: 1
Layer: 2
SplineSet
162 0 m 1,0,-1
 49 0 l 1,1,-1
 204 270 l 1,2,-1
 65 521 l 1,3,-1
 189 521 l 1,4,-1
 267 380 l 1,5,-1
 348 521 l 1,6,-1
 461 521 l 1,7,-1
 322 280 l 1,8,-1
 477 0 l 1,9,-1
 353 0 l 1,10,-1
 259 170 l 1,11,-1
 162 0 l 1,0,-1
EndSplineSet
EndChar

StartChar: y
Encoding: 121 121 90
Width: 470
Flags: W
HStem: -215 21G<43.1961 109> 501 20G<38 159.077 348.218 449>
VStem: 38 115<406 521> 354 95<426 521>
DStem2: 153 521 38 521 0.295245 -0.955421<0 354.298> 256 182 279 -66 0.278177 0.96053<0 352.881>
LayerCount: 3
Back
SplineSet
279 -52 m 2
 254 -135 201 -185 109 -192 c 1
 43 -196 l 1
 44 -94 l 1
 57 -95 68 -96 79 -96 c 0
 140 -96 179 -75 199 14 c 1
 38 521 l 1
 153 521 l 1
 253 150 l 1
 354 521 l 1
 449 521 l 1
 279 -52 l 2
EndSplineSet
Fore
SplineSet
279 -66 m 2
 254 -154 197 -206 109 -211 c 2
 43 -215 l 1
 44 -113 l 1
 57 -114 70 -115 79 -115 c 3
 146 -115 181 -82 199 0 c 1
 38 521 l 1
 153 521 l 1
 256 182 l 1
 354 521 l 1
 449 521 l 1
 279 -66 l 2
EndSplineSet
Layer: 2
SplineSet
279 -66 m 2,0,1
 260 -132 260 -132 218 -169.5 c 128,-1,2
 176 -207 176 -207 109 -211 c 2,3,-1
 43 -215 l 1,4,-1
 44 -113 l 1,5,6
 70 -115 70 -115 79 -115 c 259,7,8
 129 -115 129 -115 157.5 -88 c 128,-1,9
 186 -61 186 -61 199 0 c 1,10,-1
 38 521 l 1,11,-1
 153 521 l 1,12,-1
 256 182 l 1,13,-1
 354 521 l 1,14,-1
 449 521 l 1,15,-1
 279 -66 l 2,0,1
EndSplineSet
EndChar

StartChar: z
Encoding: 122 122 91
Width: 412
Flags: W
HStem: 0 86<130 379> 435 86<41 261>
DStem2: 23 78 130 86 0.5547 0.83205<66.0093 429.061>
LayerCount: 3
Back
SplineSet
23 0 m 1
 23 103 l 1
 261 436 l 1
 41 436 l 1
 41 521 l 1
 368 521 l 1
 368 443 l 1
 129 87 l 1
 379 87 l 1
 379 0 l 1
 23 0 l 1
EndSplineSet
Fore
SplineSet
23 0 m 1
 23 78 l 1
 261 435 l 1
 41 435 l 1
 41 521 l 1
 368 521 l 1
 368 443 l 1
 130 86 l 1
 379 86 l 1
 379 0 l 1
 23 0 l 1
EndSplineSet
Validated: 1
Layer: 2
SplineSet
23 0 m 1,0,-1
 23 78 l 1,1,-1
 261 435 l 1,2,-1
 41 435 l 1,3,-1
 41 521 l 1,4,-1
 368 521 l 1,5,-1
 368 443 l 1,6,-1
 130 86 l 1,7,-1
 379 86 l 1,8,-1
 379 0 l 1,9,-1
 23 0 l 1,0,-1
EndSplineSet
EndChar

StartChar: braceleft
Encoding: 123 123 92
Width: 402
Flags: W
HStem: -182 86<266.018 335> 222 86<67 127.021> 616 86<264.85 335>
VStem: 147 107<-82.9367 200.986 327.216 603.882>
LayerCount: 3
Back
SplineSet
241 -182 m 2
 213 -182 147 -146 147 -67 c 2
 147 161 l 2
 147 224 100 238 67 239 c 1
 67 291 l 1
 100 293 147 305 147 359 c 2
 147 587 l 2
 147 665 213 702 241 702 c 2
 305 702 l 1
 305 645 l 1
 288 645 l 2
 225 645 224 601 224 573 c 2
 224 362 l 2
 224 302 176 277 130 273 c 1
 130 254 l 1
 176 251 224 236 224 159 c 2
 224 -54 l 2
 224 -81 225 -126 288 -126 c 2
 305 -126 l 1
 305 -182 l 1
 241 -182 l 2
EndSplineSet
Fore
SplineSet
241 -182 m 2
 195 -182 147 -125 147 -76 c 2
 147 144 l 2
 147 193 117 222 67 222 c 1
 67 308 l 1
 117 308 147 334 147 376 c 2
 147 591 l 2
 147 646 195 702 241 702 c 2
 335 702 l 1
 335 616 l 1
 318 616 l 2
 271 616 254 596 254 544 c 2
 254 379 l 2
 254 325 214 278 160 273 c 1
 160 254 l 1
 218 250 254 208 254 142 c 2
 254 -24 l 2
 254 -73 272 -96 318 -96 c 2
 335 -96 l 1
 335 -182 l 1
 241 -182 l 2
EndSplineSet
Layer: 2
SplineSet
241 -182 m 2,0,1
 207 -182 207 -182 177 -147.5 c 128,-1,2
 147 -113 147 -113 147 -76 c 2,3,-1
 147 144 l 2,4,5
 147 181 147 181 126 201.5 c 128,-1,6
 105 222 105 222 67 222 c 1,7,-1
 67 308 l 1,8,9
 104 308 104 308 125.5 326 c 128,-1,10
 147 344 147 344 147 376 c 2,11,-1
 147 591 l 2,12,13
 147 632 147 632 176.5 667 c 128,-1,14
 206 702 206 702 241 702 c 2,15,-1
 335 702 l 1,16,-1
 335 616 l 1,17,-1
 318 616 l 2,18,19
 283 616 283 616 268.5 599.5 c 128,-1,20
 254 583 254 583 254 544 c 2,21,-1
 254 379 l 2,22,23
 254 338 254 338 227 307.5 c 128,-1,24
 200 277 200 277 160 273 c 1,25,-1
 160 254 l 1,26,27
 204 251 204 251 229 221 c 128,-1,28
 254 191 254 191 254 142 c 2,29,-1
 254 -24 l 2,30,31
 254 -61 254 -61 269 -78.5 c 128,-1,32
 284 -96 284 -96 318 -96 c 2,33,-1
 335 -96 l 1,34,-1
 335 -182 l 1,35,-1
 241 -182 l 2,0,1
EndSplineSet
EndChar

StartChar: bar
Encoding: 124 124 93
Width: 294
Flags: W
HStem: 694 20G<104 190>
VStem: 104 86<-196 714>
LayerCount: 3
Back
SplineSet
107 0 m 1
 107 700 l 1
 187 700 l 1
 187 0 l 1
 107 0 l 1
EndSplineSet
Fore
SplineSet
104 -196 m 1
 104 714 l 1
 190 714 l 1
 190 -196 l 1
 104 -196 l 1
EndSplineSet
Validated: 1
Layer: 2
SplineSet
104 -196 m 1,0,-1
 104 714 l 1,1,-1
 190 714 l 1,2,-1
 190 -196 l 1,3,-1
 104 -196 l 1,0,-1
EndSplineSet
EndChar

StartChar: braceright
Encoding: 125 125 94
Width: 402
Flags: W
HStem: -185 86<67 136.842> 219 86<274.979 335> 613 86<67 136.994>
VStem: 148 107<-88.2926 198.375 323.312 602.524>
LayerCount: 3
Back
SplineSet
225 158 m 2
 225 -71 l 2
 225 -149 159 -185 132 -185 c 2
 67 -185 l 1
 67 -129 l 1
 86 -129 l 2
 147 -129 149 -83 149 -57 c 2
 149 156 l 2
 149 233 192 247 239 250 c 1
 239 271 l 1
 192 276 149 299 149 359 c 2
 149 570 l 2
 149 596 147 642 86 642 c 2
 67 642 l 1
 67 699 l 1
 132 699 l 2
 159 699 225 662 225 584 c 2
 225 356 l 2
 225 302 273 290 305 288 c 1
 305 236 l 1
 273 235 225 221 225 158 c 2
EndSplineSet
Fore
SplineSet
255 141 m 2
 255 -79 l 2
 255 -130 206 -185 162 -185 c 2
 67 -185 l 1
 67 -99 l 1
 86 -99 l 2
 132 -99 148 -76 148 -27 c 2
 148 156 l 2
 148 219 177 246 242 250 c 1
 242 271 l 1
 188 277 148 305 148 359 c 2
 148 541 l 2
 148 592 130 613 86 613 c 2
 67 613 l 1
 67 699 l 1
 162 699 l 2
 210 699 255 639 255 588 c 2
 255 373 l 2
 255 331 285 305 335 305 c 1
 335 219 l 1
 285 219 255 190 255 141 c 2
EndSplineSet
Layer: 2
SplineSet
255 141 m 2,0,-1
 255 -79 l 2,1,2
 255 -117 255 -117 225 -151 c 128,-1,3
 195 -185 195 -185 162 -185 c 2,4,-1
 67 -185 l 1,5,-1
 67 -99 l 1,6,-1
 86 -99 l 2,7,8
 120 -99 120 -99 134 -82 c 128,-1,9
 148 -65 148 -65 148 -27 c 2,10,-1
 148 156 l 2,11,12
 148 203 148 203 170.5 225 c 128,-1,13
 193 247 193 247 242 250 c 1,14,-1
 242 271 l 1,15,16
 199 276 199 276 173.5 298 c 128,-1,17
 148 320 148 320 148 359 c 2,18,-1
 148 541 l 2,19,20
 148 579 148 579 133.5 596 c 128,-1,21
 119 613 119 613 86 613 c 2,22,-1
 67 613 l 1,23,-1
 67 699 l 1,24,-1
 162 699 l 2,25,26
 197 699 197 699 226 663 c 128,-1,27
 255 627 255 627 255 588 c 2,28,-1
 255 373 l 2,29,30
 255 341 255 341 276.5 323 c 128,-1,31
 298 305 298 305 335 305 c 1,32,-1
 335 219 l 1,33,34
 297 219 297 219 276 198.5 c 128,-1,35
 255 178 255 178 255 141 c 2,0,-1
EndSplineSet
EndChar

StartChar: asciitilde
Encoding: 126 126 95
Width: 588
Flags: W
HStem: 220 86<360.824 445.262> 339 86<145.113 231.286>
VStem: 28 107<253 332.812> 455 107<310.932 391>
LayerCount: 3
Back
SplineSet
541 391 m 1
 536 313 517 220 423 220 c 0
 336 220 240 330 173 330 c 0
 138 330 135 294 135 253 c 1
 46 253 l 1
 55 392 113 425 158 425 c 0
 254 425 360 305 418 305 c 0
 449 305 453 342 455 391 c 1
 541 391 l 1
EndSplineSet
Fore
SplineSet
562 391 m 1
 554 274 516 220 433 220 c 3
 396 220 354 237 280 287 c 0
 224 325 195 339 173 339 c 3
 148 339 135 311 135 253 c 1
 28 253 l 1
 35 369 76 425 149 425 c 3
 191 425 241 404 322 352 c 0
 376 317 398 306 418 306 c 3
 444 306 452 327 455 391 c 1
 562 391 l 1
EndSplineSet
Layer: 2
SplineSet
562 391 m 1,0,1
 556 302 556 302 525.5 261 c 128,-1,2
 495 220 495 220 433 220 c 259,3,4
 379 220 379 220 280 287 c 0,5,6
 203 339 203 339 173 339 c 259,7,8
 135 339 135 339 135 253 c 1,9,-1
 28 253 l 1,10,11
 38 425 38 425 149 425 c 259,12,13
 208 425 208 425 322 352 c 0,14,15
 393 306 393 306 418 306 c 259,16,17
 437 306 437 306 445 324 c 128,-1,18
 453 342 453 342 455 391 c 1,19,-1
 562 391 l 1,0,1
EndSplineSet
EndChar

StartChar: uni0E10.descless
Encoding: 63232 63232 96
Width: 613
Flags: W
HStem: -5 78<313.379 400.295> 163 68<151.594 189.063> 306 68<151.168 220.531> 494 78<363.999 560.538> 526 78<208.323 408.741>
VStem: 77 70<235.472 302.132> 190 118<76.8438 163> 224 84<234.382 301.281> 405 118<79.2857 346.731>
LayerCount: 3
Back
SplineSet
484 572 m 0xfb
 543 572 555 598 555 598 c 1
 590 532 l 1
 587 530 558 497 489 497 c 0xfb
 403 497 362 534 287 534 c 0
 214 534 201 502 195 495 c 1
 199 495 270 495 363 466 c 0
 458 435 503 402 524 353 c 0
 534 332 536 317 536 302 c 0
 536 292 535 283 535 273 c 2
 526 133 l 2
 519 17 428 -3 360 -3 c 0
 286.5 -3 217.059 19.4059 208 110 c 2
 202 170 l 1
 195 169 187 168 180 168 c 0
 128 168 77 203 77 266 c 0
 77 325 118 373 185 373 c 0
 285 373 306 303 310 247 c 2
 317 115 l 2
 319 89 325 72 363 72 c 0
 397 72 411 78 412 104 c 2
 422 268 l 2
 423 274 423 280 423 286 c 0
 423 309 417 329 399 351 c 0
 371 382 300 409 218 423 c 0
 132 438 67 445 66 445 c 1
 66 476 110 604 278 604 c 0xf7
 368 604 422 572 484 572 c 0xfb
181 305 m 0
 157 305 145 287 145 269 c 0
 145 251 157 233 181 233 c 0
 206 233 218 251 218 269 c 0
 218 287 206 305 181 305 c 0
EndSplineSet
Fore
SplineSet
195 491 m 1xee80
 282 491 403 458 452 425 c 0
 493 398 523 346 523 302 c 2
 523 139 l 2
 523 34 482 -5 357 -5 c 3
 247 -5 190 43 190 141 c 2
 190 163 l 1
 122 163 77 204 77 267 c 3
 77 327 123 374 190 374 c 3xee80
 258 374 308 326 308 267 c 2xed80
 308 144 l 2
 308 81 316 73 363 73 c 3
 395 73 405 89 405 126 c 2
 405 286 l 2
 405 311 396 335 381 351 c 0
 341 396 236 426 66 441 c 1
 87 545 164 604 278 604 c 3xee80
 313 604 348 598 391 588 c 0
 435 577 463 572 484 572 c 3
 521 572 543 581 555 598 c 1
 590 532 l 1
 565 507 532 494 489 494 c 3xf680
 460 494 422 500 384 510 c 0
 344 521 313 526 287 526 c 3
 240 526 215 516 195 491 c 1xee80
224 268 m 3xe580
 224 291 207 306 185 306 c 3
 164 306 147 291 147 268 c 3
 147 246 164 231 185 231 c 3
 207 231 224 246 224 268 c 3xe580
EndSplineSet
Layer: 2
SplineSet
195 491 m 1,0,1
 259 491 259 491 336.5 470.5 c 128,-1,2
 414 450 414 450 452 425 c 256,3,4
 483 405 483 405 503 370 c 128,-1,5
 523 335 523 335 523 302 c 2,6,-1
 523 139 l 2,7,8
 523 60 523 60 486.5 27.5 c 128,-1,9
 450 -5 450 -5 357 -5 c 259,10,11
 268 -5 268 -5 229 34 c 128,-1,12
 190 73 190 73 190 141 c 2,13,-1
 190 163 l 1,14,15
 139 163 139 163 108 191.5 c 128,-1,16
 77 220 77 220 77 267 c 259,17,18
 77 313 77 313 108.5 343.5 c 128,-1,19
 140 374 140 374 190 374 c 259,20,21
 240 374 240 374 274 343 c 128,-1,22
 308 312 308 312 308 267 c 2,23,-1
 308 144 l 2,24,25
 308 97 308 97 317.5 85 c 128,-1,26
 327 73 327 73 363 73 c 259,27,28
 386 73 386 73 395.5 85.5 c 128,-1,29
 405 98 405 98 405 126 c 2,30,-1
 405 286 l 2,31,32
 405 325 405 325 381 351 c 256,33,34
 353 382 353 382 278 405.5 c 128,-1,35
 203 429 203 429 66 441 c 1,36,37
 82 519 82 519 137 561.5 c 128,-1,38
 192 604 192 604 278 604 c 259,39,40
 322 604 322 604 391 588 c 0,41,42
 455 572 455 572 484 572 c 259,43,44
 537 572 537 572 555 598 c 1,45,-1
 590 532 l 1,46,47
 552 494 552 494 489 494 c 259,48,49
 445 494 445 494 384 510 c 0,50,51
 326 526 326 526 287 526 c 259,52,53
 223 526 223 526 195 491 c 1,0,1
224 268 m 259,54,55
 224 285 224 285 213 295.5 c 128,-1,56
 202 306 202 306 185 306 c 259,57,58
 169 306 169 306 158 295.5 c 128,-1,59
 147 285 147 285 147 268 c 259,60,61
 147 252 147 252 158 241.5 c 128,-1,62
 169 231 169 231 185 231 c 259,63,64
 202 231 202 231 213 241.5 c 128,-1,65
 224 252 224 252 224 268 c 259,54,55
EndSplineSet
EndChar

StartChar: ellipsis
Encoding: 8230 8230 101
Width: 637
VWidth: 2048
Flags: W
HStem: 0 133<62.0396 170.554 272.04 380.554 484.04 592.554>
VStem: 49 135<13.5513 119.019> 259 135<13.5513 119.019> 471 135<13.5513 119.019>
LayerCount: 3
Back
SplineSet
184 66 m 4
 184 33 161 0 116 0 c 4
 72 0 49 21 49 66 c 4
 49 110 72 133 116 133 c 4
 161 133 184 110 184 66 c 4
326 133 m 4
 371 133 394 110 394 66 c 4
 394 21 371 0 326 0 c 4
 282 0 261 21 261 66 c 4
 261 110 282 133 326 133 c 4
605 66 m 4
 605 24 572 0 538 0 c 4
 494 0 472 21 472 66 c 4
 472 110 494 133 538 133 c 4
 582 133 605 110 605 66 c 4
EndSplineSet
Fore
SplineSet
606 66 m 3
 606 22 582 0 538 0 c 3
 494 0 471 22 471 66 c 3
 471 110 494 133 538 133 c 3
 582 133 606 110 606 66 c 3
394 66 m 3
 394 22 370 0 326 0 c 3
 282 0 259 22 259 66 c 3
 259 110 282 133 326 133 c 3
 370 133 394 110 394 66 c 3
184 66 m 3
 184 22 160 0 116 0 c 3
 72 0 49 22 49 66 c 3
 49 110 72 133 116 133 c 3
 160 133 184 110 184 66 c 3
EndSplineSet
Layer: 2
SplineSet
606 66 m 259,0,1
 606 0 606 0 538 0 c 259,2,3
 471 0 471 0 471 66 c 259,4,5
 471 133 471 133 538 133 c 259,6,7
 606 133 606 133 606 66 c 259,0,1
394 66 m 259,8,9
 394 0 394 0 326 0 c 259,10,11
 259 0 259 0 259 66 c 259,12,13
 259 133 259 133 326 133 c 259,14,15
 394 133 394 133 394 66 c 259,8,9
184 66 m 259,16,17
 184 0 184 0 116 0 c 259,18,19
 49 0 49 0 49 66 c 259,20,21
 49 133 49 133 116 133 c 259,22,23
 184 133 184 133 184 66 c 259,16,17
EndSplineSet
EndChar

StartChar: uni0E49.low_left
Encoding: 63238 63238 103
Width: 0
Flags: W
HStem: 791 59<-552.951 -522> 946 58<-553.465 -473.124>
VStem: -624 63<858.104 938.92> -465 74<857.73 937.739>
LayerCount: 3
Back
SplineSet
-510 716 m 0
 -510 716 l 0
 -490 742 -486 766 -486 766 c 1
 -512 766 -550 782 -566 814 c 0
 -589 868 -559 944 -486 947 c 0
 -428 949 -385 917 -377 868 c 0
 -369 809 -400 753 -418 740 c 1
 -388 745 -360 753 -328 768 c 0
 -291 786 -273 802 -250 823 c 0
 -202 868 -175 923 -175 923 c 1
 -175 785 l 1
 -175 785 -230 728 -322 699 c 0
 -403 673 -509 667 -559 673 c 1
 -559 673 -530 690 -510 716 c 0
-478 815 m 0
 -425 815 -428 898 -481 898 c 0
 -535 898 -532 815 -478 815 c 0
EndSplineSet
Fore
Refer: 108 63243 N 1 0 0 1 -166 0 2
Layer: 2
Refer: 108 63243 N 1 0 0 1 -166 0 2
EndChar

StartChar: uni0E4A.low_left
Encoding: 63239 63239 104
Width: 0
Flags: W
HStem: 677 40<-573.197 -506.238> 797 41<-571.603 -506.345> 901 74<-561.941 -467.365 -423.429 -349.136>
VStem: -649 76<726.5 890.551> -501 45<721.343 792.457> -336 81<773.277 888.784> -175 93<866.625 923.462>
LayerCount: 3
Back
SplineSet
-535 834 m 0xe0
 -535 834 l 0
 -543 819 -540 802 -540 799 c 1
 -538 799 -507 814 -475 799 c 0
 -435 779 -434 714 -463 688 c 0
 -504 650 -570 676 -592 722 c 0
 -621 785 -601 906 -527 921 c 0
 -469 932 -437 887 -435 887 c 0xe0
 -434 887 -400 923 -357 923 c 0
 -317 923 -277 895 -273 837 c 0
 -267 789 -290 750 -290 750 c 1
 -285 751 -253 769 -230 809 c 0
 -208 849 -204 898 -204 917 c 1
 -124 875 l 1
 -124 875 -146 769 -236 719 c 0
 -294 685 -380 674 -405 674 c 0
 -400 674 -354 704 -343 768 c 0
 -336 812 -343 858 -382 858 c 0xd0
 -405 858 -438 832 -438 832 c 2
 -440 832 -468 860 -501 860 c 0
 -521 860 -529 848 -535 834 c 0xe0
-515 705 m 0
 -471 705 -471 773 -515 773 c 0
 -559 773 -559 705 -515 705 c 0
EndSplineSet
Fore
Refer: 109 63244 N 1 0 0 1 -166 0 2
Layer: 2
Refer: 109 63244 N 1 0 0 1 -166 0 2
EndChar

StartChar: uni0E4B.low_left
Encoding: 63240 63240 105
Width: 0
Flags: W
HStem: 808 98<-613 -474 -356 -216>
VStem: -474 118<682 808 906 1033>
LayerCount: 3
Back
SplineSet
-468 981 m 1
 -356 981 l 1
 -356 871 l 1
 -236 871 l 1
 -236 788 l 1
 -356 788 l 1
 -356 679 l 1
 -468 679 l 1
 -468 788 l 1
 -586 788 l 1
 -586 871 l 1
 -468 871 l 1
 -468 981 l 1
EndSplineSet
Fore
Refer: 110 63245 N 1 0 0 1 -270 0 2
Validated: 1
Layer: 2
Refer: 110 63245 N 1 0 0 1 -270 0 2
EndChar

StartChar: uni0E4C.low_left
Encoding: 63241 63241 106
Width: 0
Flags: W
HStem: 668 48<-394.349 -312.275>
VStem: -472 70<723.382 806.074> -305 50<724.077 806.103> -210 95<988.516 1056>
LayerCount: 3
Back
SplineSet
-342 874 m 0
 -342 874 l 0
 -395 869 -400 843 -402 843 c 0
 -399 843 -303 843 -305 746 c 0
 -305 667 -423 642 -472 700 c 0
 -517 753 -503 846 -445 887 c 0
 -386 927 -336 914 -288 949 c 0
 -264 967 -264 1013 -264 1018 c 1
 -179 1018 l 1
 -179 1013 -187 953 -212 926 c 0
 -238 898 -268 880 -342 874 c 0
-392 713 m 0
 -334 713 -334 800 -392 800 c 0
 -451 800 -451 713 -392 713 c 0
EndSplineSet
Fore
Refer: 111 63246 N 1 0 0 1 -166 0 2
Layer: 2
Refer: 111 63246 N 1 0 0 1 -166 0 2
EndChar

StartChar: uni0E48.low
Encoding: 63242 63242 107
Width: 0
Flags: W
HStem: 684 254<-202 -84>
VStem: -202 118<684 938>
AnchorPoint: "AboveMark" -143 988 basemark 0
AnchorPoint: "AboveBase" -87 613 mark 0
LayerCount: 3
Fore
SplineSet
-202 684 m 1
 -202 938 l 1
 -84 938 l 1
 -84 684 l 1
 -202 684 l 1
EndSplineSet
Validated: 1
Layer: 2
SplineSet
-202 684 m 1,0,-1
 -202 938 l 1,1,-1
 -84 938 l 1,2,-1
 -84 684 l 1,3,-1
 -202 684 l 1,0,-1
EndSplineSet
Substitution2: "Thai Phinthu Mai Ek Reordering" uni0E3A
EndChar

StartChar: uni0E49.low
Encoding: 63243 63243 108
Width: 0
Flags: MW
HStem: 791 59<-386.951 -356> 946 58<-387.465 -307.124>
VStem: -458 63<858.104 938.92> -299 74<857.73 937.739>
AnchorPoint: "AboveMark" -223 1054 basemark 0
AnchorPoint: "AboveBase" -87 613 mark 0
LayerCount: 3
Fore
SplineSet
11 814 m 1
 -86 723 -212 678 -384 678 c 3
 -406 678 -425 679 -440 681 c 1
 -397 702 -363 748 -356 791 c 1
 -414 791 -458 837 -458 895 c 3
 -458 959 -412 1004 -348 1004 c 3
 -271 1004 -225 957 -225 885 c 3
 -225 839 -247 782 -273 760 c 1
 -150 777 -48 861 11 976 c 1
 11 814 l 1
-299 898 m 3
 -299 926 -319 946 -347 946 c 3
 -375 946 -395 926 -395 898 c 3
 -395 870 -375 850 -347 850 c 3
 -319 850 -299 870 -299 898 c 3
EndSplineSet
Layer: 2
SplineSet
11 814 m 1,0,1
 -134 678 -134 678 -384 678 c 259,2,3
 -418 678 -418 678 -440 681 c 1,4,5
 -408 697 -408 697 -384.5 727.5 c 128,-1,6
 -361 758 -361 758 -356 791 c 1,7,8
 -399 791 -399 791 -428.5 821 c 128,-1,9
 -458 851 -458 851 -458 895 c 259,10,11
 -458 943 -458 943 -427 973.5 c 128,-1,12
 -396 1004 -396 1004 -348 1004 c 259,13,14
 -291 1004 -291 1004 -258 971.5 c 128,-1,15
 -225 939 -225 939 -225 885 c 259,16,17
 -225 851 -225 851 -239 814 c 128,-1,18
 -253 777 -253 777 -273 760 c 1,19,20
 -183 772 -183 772 -108.5 830 c 128,-1,21
 -34 888 -34 888 11 976 c 1,22,-1
 11 814 l 1,0,1
-299 898 m 259,23,24
 -299 919 -299 919 -312.5 932.5 c 128,-1,25
 -326 946 -326 946 -347 946 c 259,26,27
 -368 946 -368 946 -381.5 932.5 c 128,-1,28
 -395 919 -395 919 -395 898 c 259,29,30
 -395 877 -395 877 -381.5 863.5 c 128,-1,31
 -368 850 -368 850 -347 850 c 259,32,33
 -326 850 -326 850 -312.5 863.5 c 128,-1,34
 -299 877 -299 877 -299 898 c 259,23,24
EndSplineSet
Substitution2: "Thai Phinthu Mai Tho Reordering" uni0E3A
EndChar

StartChar: uni0E4A.low
Encoding: 63244 63244 109
Width: 0
Flags: W
HStem: 677 40<-407.197 -340.238> 797 41<-405.603 -340.345> 901 74<-395.941 -301.365 -257.429 -183.136>
VStem: -483 76<726.5 890.551> -335 45<721.343 792.457> -170 81<773.277 888.784> -9 93<866.625 923.462>
AnchorPoint: "AboveMark" -286 1023 basemark 0
AnchorPoint: "AboveBase" -87 613 mark 0
LayerCount: 3
Fore
SplineSet
-356 901 m 3
 -385 901 -407 876 -407 845 c 3
 -407 839 -406 833 -405 829 c 1
 -394 835 -380 838 -366 838 c 3
 -322 838 -290 804 -290 758 c 3
 -290 711 -326 677 -374 677 c 3
 -441 677 -483 733 -483 814 c 3
 -483 910 -435 975 -364 975 c 3
 -331 975 -296 957 -282 933 c 1
 -254 961 -223 975 -189 975 c 3
 -130 975 -89 925 -89 858 c 3
 -89 828 -99 791 -112 771 c 1
 -50 802 -9 883 -9 966 c 1
 84 920 l 1
 43 768 -59 694 -245 682 c 1
 -196 716 -170 767 -170 827 c 3
 -170 874 -187 898 -221 898 c 3
 -238 898 -260 888 -285 868 c 1
 -315 890 -336 901 -356 901 c 3
-374 717 m 3
 -351 717 -335 734 -335 757 c 3
 -335 780 -351 797 -374 797 c 3
 -397 797 -413 780 -413 757 c 3
 -413 734 -397 717 -374 717 c 3
EndSplineSet
Layer: 2
SplineSet
-356 901 m 259,0,1
 -378 901 -378 901 -392.5 884.5 c 128,-1,2
 -407 868 -407 868 -407 845 c 0,3,4
 -407 837 -407 837 -405 829 c 1,5,6
 -389 838 -389 838 -366 838 c 259,7,8
 -333 838 -333 838 -311.5 815.5 c 128,-1,9
 -290 793 -290 793 -290 758 c 259,10,11
 -290 723 -290 723 -314 700 c 128,-1,12
 -338 677 -338 677 -374 677 c 259,13,14
 -424 677 -424 677 -453.5 715 c 128,-1,15
 -483 753 -483 753 -483 814 c 259,16,17
 -483 886 -483 886 -450 930.5 c 128,-1,18
 -417 975 -417 975 -364 975 c 259,19,20
 -339 975 -339 975 -316 963 c 128,-1,21
 -293 951 -293 951 -282 933 c 1,22,23
 -240 975 -240 975 -189 975 c 259,24,25
 -145 975 -145 975 -117 942 c 128,-1,26
 -89 909 -89 909 -89 858 c 259,27,28
 -89 806 -89 806 -112 771 c 1,29,30
 -66 794 -66 794 -37.5 848.5 c 128,-1,31
 -9 903 -9 903 -9 966 c 1,32,-1
 84 920 l 1,33,34
 53 806 53 806 -26.5 748.5 c 128,-1,35
 -106 691 -106 691 -245 682 c 1,36,37
 -170 734 -170 734 -170 827 c 259,38,39
 -170 898 -170 898 -221 898 c 259,40,41
 -248 898 -248 898 -285 868 c 1,42,43
 -330 901 -330 901 -356 901 c 259,0,1
-374 717 m 259,44,45
 -357 717 -357 717 -346 728.5 c 128,-1,46
 -335 740 -335 740 -335 757 c 259,47,48
 -335 774 -335 774 -346 785.5 c 128,-1,49
 -357 797 -357 797 -374 797 c 259,50,51
 -391 797 -391 797 -402 785.5 c 128,-1,52
 -413 774 -413 774 -413 757 c 259,53,54
 -413 740 -413 740 -402 728.5 c 128,-1,55
 -391 717 -391 717 -374 717 c 259,44,45
EndSplineSet
Substitution2: "Thai Phinthu Mai Tri Reordering" uni0E3A
EndChar

StartChar: uni0E4B.low
Encoding: 63245 63245 110
Width: 0
Flags: W
HStem: 808 98<-343 -204 -86 54>
VStem: -204 118<682 808 906 1033>
AnchorPoint: "AboveMark" -145 1083 basemark 0
AnchorPoint: "AboveBase" 17 613 mark 0
LayerCount: 3
Fore
SplineSet
-204 1033 m 1
 -86 1033 l 1
 -86 906 l 1
 54 906 l 1
 54 808 l 1
 -86 808 l 1
 -86 682 l 1
 -204 682 l 1
 -204 808 l 1
 -343 808 l 1
 -343 906 l 1
 -204 906 l 1
 -204 1033 l 1
EndSplineSet
Validated: 1
Layer: 2
SplineSet
-204 1033 m 1,0,-1
 -86 1033 l 1,1,-1
 -86 906 l 1,2,-1
 54 906 l 1,3,-1
 54 808 l 1,4,-1
 -86 808 l 1,5,-1
 -86 682 l 1,6,-1
 -204 682 l 1,7,-1
 -204 808 l 1,8,-1
 -343 808 l 1,9,-1
 -343 906 l 1,10,-1
 -204 906 l 1,11,-1
 -204 1033 l 1,0,-1
EndSplineSet
Substitution2: "Thai Phinthu Mai Chattawa Reordering" uni0E3A
EndChar

StartChar: uni0E4C.low
Encoding: 63246 63246 111
Width: 0
Flags: W
HStem: 668 48<-228.349 -146.275>
VStem: -306 70<723.382 806.074> -139 50<724.077 806.103> -44 95<988.516 1056>
AnchorPoint: "AboveMark" -187 988 basemark 0
AnchorPoint: "AboveBase" -87 613 mark 0
LayerCount: 3
Fore
SplineSet
-193 668 m 3
 -259 668 -306 721 -306 790 c 3
 -306 874 -252 927 -149 948 c 0
 -71 964 -44 993 -44 1056 c 1
 51 1056 l 1
 42 953 -10 903 -130 895 c 0
 -165 893 -188 880 -196 861 c 1
 -127 857 -89 822 -89 759 c 3
 -89 707 -132 668 -193 668 c 3
-187 716 m 3
 -159 716 -139 736 -139 765 c 3
 -139 794 -159 814 -187 814 c 3
 -216 814 -236 794 -236 765 c 3
 -236 736 -216 716 -187 716 c 3
EndSplineSet
Layer: 2
SplineSet
-193 668 m 259,0,1
 -242 668 -242 668 -274 703 c 128,-1,2
 -306 738 -306 738 -306 790 c 259,3,4
 -306 849 -306 849 -268 890.5 c 128,-1,5
 -230 932 -230 932 -149 948 c 0,6,7
 -91 960 -91 960 -67.5 984.5 c 128,-1,8
 -44 1009 -44 1009 -44 1056 c 1,9,-1
 51 1056 l 1,10,11
 44 978 44 978 1.5 939.5 c 128,-1,12
 -41 901 -41 901 -130 895 c 0,13,14
 -183 892 -183 892 -196 861 c 1,15,16
 -142 858 -142 858 -115.5 832 c 128,-1,17
 -89 806 -89 806 -89 759 c 259,18,19
 -89 720 -89 720 -118.5 694 c 128,-1,20
 -148 668 -148 668 -193 668 c 259,0,1
-187 716 m 259,21,22
 -166 716 -166 716 -152.5 729.5 c 128,-1,23
 -139 743 -139 743 -139 765 c 259,24,25
 -139 787 -139 787 -152.5 800.5 c 128,-1,26
 -166 814 -166 814 -187 814 c 259,27,28
 -209 814 -209 814 -222.5 800.5 c 128,-1,29
 -236 787 -236 787 -236 765 c 259,30,31
 -236 743 -236 743 -222.5 729.5 c 128,-1,32
 -209 716 -209 716 -187 716 c 259,21,22
EndSplineSet
Substitution2: "Thai Phinthu Thanthakhat Reordering" uni0E3A
EndChar

StartChar: uni0E0D.descless
Encoding: 63247 63247 112
Width: 882
Flags: W
HStem: -5 68<202.991 263.433> 0 78<407 446 564 676.899> 142 68<227.045 262.031> 524 78<234.839 406.531> 575 20G<679 797>
VStem: 109 118<210 351.375> 109 90<64.9349 140.022> 267 70<65.7886 139.445> 446 118<78 480.554> 679 118<82.2486 595>
LayerCount: 3
Fore
SplineSet
639 78 m 2x75c0
 664 78 679 91 679 112 c 2
 679 595 l 1
 797 595 l 1
 797 130 l 2
 797 58 756 0 699 0 c 2
 407 0 l 1
 407 78 l 1
 446 78 l 1x6dc0
 446 402 l 2
 446 484 407 524 327 524 c 3
 283 524 244 513 209 486 c 1
 242 468 280 438 313 405 c 1
 254 375 227 334 227 279 c 2
 227 210 l 1
 294 210 337 171 337 105 c 3
 337 42 290 -5 227 -5 c 3xb5c0
 154 -5 109 43 109 127 c 2xb3c0
 109 279 l 2
 109 337 132 376 183 400 c 1
 161 424 83 473 49 484 c 1
 111 558 213 602 330 602 c 3
 478 602 564 534 564 414 c 2
 564 78 l 1
 639 78 l 2x75c0
232 142 m 3
 210 142 199 122 199 102 c 3
 199 82 210 63 232 63 c 3xa3c0
 256 63 267 83 267 102 c 3
 267 122 256 142 232 142 c 3
EndSplineSet
Layer: 2
SplineSet
639 78 m 2,0,1
 679 78 679 78 679 112 c 2,2,-1
 679 595 l 1,3,-1
 797 595 l 1,4,-1
 797 130 l 2,5,6
 797 75 797 75 769 37.5 c 128,-1,7
 741 0 741 0 699 0 c 2,8,-1
 407 0 l 1,9,-1
 407 78 l 1,10,-1
 446 78 l 1,11,-1
 446 402 l 2,12,13
 446 463 446 463 416.5 493.5 c 128,-1,14
 387 524 387 524 327 524 c 259,15,16
 258 524 258 524 209 486 c 1,17,18
 260 458 260 458 313 405 c 1,19,20
 227 361 227 361 227 279 c 2,21,-1
 227 210 l 1,22,23
 278 210 278 210 307.5 182 c 128,-1,24
 337 154 337 154 337 105 c 259,25,26
 337 58 337 58 305.5 26.5 c 128,-1,27
 274 -5 274 -5 227 -5 c 259,28,29
 172 -5 172 -5 140.5 29.5 c 128,-1,30
 109 64 109 64 109 127 c 2,31,-1
 109 279 l 2,32,33
 109 365 109 365 183 400 c 1,34,35
 166 418 166 418 120 447 c 128,-1,36
 74 476 74 476 49 484 c 1,37,38
 96 540 96 540 169.5 571 c 128,-1,39
 243 602 243 602 330 602 c 259,40,41
 441 602 441 602 502.5 553 c 128,-1,42
 564 504 564 504 564 414 c 2,43,-1
 564 78 l 1,44,-1
 639 78 l 2,0,1
232 142 m 259,45,46
 216 142 216 142 207.5 130 c 128,-1,47
 199 118 199 118 199 102 c 259,48,49
 199 86 199 86 207.5 74.5 c 128,-1,50
 216 63 216 63 232 63 c 259,51,52
 249 63 249 63 258 74.5 c 128,-1,53
 267 86 267 86 267 102 c 259,54,55
 267 118 267 118 258 130 c 128,-1,56
 249 142 249 142 232 142 c 259,45,46
EndSplineSet
EndChar

StartChar: quoteleft
Encoding: 8216 8216 113
Width: 295
Flags: W
HStem: 450 145<125.236 192.586> 684 39<164.278 196>
VStem: 58 66<593 635.527>
LayerCount: 3
Fore
SplineSet
134 450 m 3
 86 450 58 486 58 545 c 3
 58 635 118 716 196 723 c 1
 196 684 l 1
 162 677 124 630 124 593 c 1
 130 595 137 595 143 595 c 3
 185 595 213 565 213 524 c 3
 213 480 183 450 134 450 c 3
EndSplineSet
Layer: 2
SplineSet
134 450 m 259,0,1
 98 450 98 450 78 475.5 c 128,-1,2
 58 501 58 501 58 545 c 259,3,4
 58 613 58 613 98 665.5 c 128,-1,5
 138 718 138 718 196 723 c 1,6,-1
 196 684 l 1,7,8
 170 679 170 679 147 650 c 128,-1,9
 124 621 124 621 124 593 c 1,10,11
 130 595 130 595 143 595 c 259,12,13
 174 595 174 595 193.5 575 c 128,-1,14
 213 555 213 555 213 524 c 259,15,16
 213 491 213 491 191.5 470.5 c 128,-1,17
 170 450 170 450 134 450 c 259,0,1
EndSplineSet
EndChar

StartChar: quoteright
Encoding: 8217 8217 114
Width: 280
Flags: W
HStem: 460 40<84 124> 588 145<88.3891 156.127>
VStem: 158 68<552.168 590>
LayerCount: 3
Fore
SplineSet
147 733 m 3
 197 733 226 702 226 644 c 3
 226 553 171 478 84 460 c 1
 84 500 l 1
 122 508 158 556 158 590 c 1
 151 588 145 588 139 588 c 3
 97 588 69 618 69 659 c 3
 69 705 98 733 147 733 c 3
EndSplineSet
Layer: 2
SplineSet
147 733 m 259,0,1
 185 733 185 733 205.5 710 c 128,-1,2
 226 687 226 687 226 644 c 259,3,4
 226 575 226 575 187.5 524 c 128,-1,5
 149 473 149 473 84 460 c 1,6,-1
 84 500 l 1,7,8
 112 506 112 506 135 535 c 128,-1,9
 158 564 158 564 158 590 c 1,10,11
 151 588 151 588 139 588 c 259,12,13
 108 588 108 588 88.5 608 c 128,-1,14
 69 628 69 628 69 659 c 259,15,16
 69 694 69 694 89.5 713.5 c 128,-1,17
 110 733 110 733 147 733 c 259,0,1
EndSplineSet
EndChar

StartChar: quotedblleft
Encoding: 8220 8220 115
Width: 487
Flags: W
HStem: 450 145<125.236 192.586 340.236 407.586> 684 39<164.278 196 379.278 411>
VStem: 58 66<593 635.527> 273 66<593 635.527>
LayerCount: 3
Back
SplineSet
139 595 m 1
 180 595 216 565 216 521 c 0
 216 486 190 448 139 448 c 0
 79 448 60 497 60 543 c 0
 60 587 83 734 208 740 c 1
 208 687 l 1
 198 687 159 685 147 655 c 0
 139 634 137 620 137 610 c 0
 137 601 139 596 139 595 c 1
354 595 m 1
 395 595 429 566 429 520 c 0
 429 485 405 448 354 448 c 0
 292 448 274 498 274 544 c 0
 274 586 296 734 422 740 c 1
 422 687 l 1
 412 687 374 685 362 655 c 0
 354 636 352 622 352 612 c 0
 352 602 354 597 354 595 c 1
EndSplineSet
Fore
Refer: 113 8216 N 1 0 0 1 215 0 2
Refer: 113 8216 N 1 0 0 1 0 0 2
Layer: 2
Refer: 113 8216 N 1 0 0 1 215 0 2
Refer: 113 8216 N 1 0 0 1 0 0 2
EndChar

StartChar: quotedblright
Encoding: 8221 8221 116
Width: 493
Flags: W
HStem: 460 40<84 124 298 338> 588 145<88.3891 156.127 302.389 370.127>
VStem: 158 68<552.168 590> 372 68<552.168 590>
LayerCount: 3
Back
SplineSet
287 669 m 0
 287 704 312 742 363 742 c 0
 424 742 443 692 443 646 c 0
 443 609 422 456 294 449 c 1
 294 503 l 1
 305 503 343 504 356 535 c 0
 363 554 365 568 365 578 c 0
 365 588 363 593 363 595 c 1
 322 595 287 625 287 669 c 0
74 672 m 0
 74 706 99 742 149 742 c 0
 209 742 228 694 228 649 c 0
 228 637 227 626 225 616 c 0
 210 520 167 454 80 449 c 1
 80 503 l 1
 90 503 129 504 141 535 c 0
 149 554 151 568 151 578 c 0
 151 588 149 593 149 595 c 1
 105 595 74 626 74 672 c 0
EndSplineSet
Fore
Refer: 114 8217 N 1 0 0 1 214 0 2
Refer: 114 8217 N 1 0 0 1 0 0 2
Layer: 2
Refer: 114 8217 N 1 0 0 1 214 0 2
Refer: 114 8217 N 1 0 0 1 0 0 2
EndChar

StartChar: bullet
Encoding: 8226 8226 117
Width: 531
Flags: W
HStem: 100 337<195.059 367.638>
VStem: 113 337<182.059 354.638>
LayerCount: 3
Fore
SplineSet
281 437 m 3
 380 437 450 367 450 268 c 3
 450 170 380 100 281 100 c 3
 183 100 113 170 113 268 c 3
 113 367 183 437 281 437 c 3
EndSplineSet
Layer: 2
SplineSet
281 437 m 259,0,1
 355 437 355 437 402.5 389.5 c 128,-1,2
 450 342 450 342 450 268 c 259,3,4
 450 194 450 194 402.5 147 c 128,-1,5
 355 100 355 100 281 100 c 259,6,7
 208 100 208 100 160.5 147 c 128,-1,8
 113 194 113 194 113 268 c 259,9,10
 113 342 113 342 160 389.5 c 128,-1,11
 207 437 207 437 281 437 c 259,0,1
EndSplineSet
EndChar

StartChar: endash
Encoding: 8211 8211 118
Width: 665
Flags: W
HStem: 245 100<48 609>
LayerCount: 3
Back
SplineSet
609 248 m 1
 48 248 l 1
 48 345 l 1
 609 345 l 1
 609 248 l 1
EndSplineSet
Fore
SplineSet
609 245 m 1
 48 245 l 1
 48 345 l 1
 609 345 l 1
 609 245 l 1
EndSplineSet
Validated: 1
Layer: 2
SplineSet
609 245 m 1,0,-1
 48 245 l 1,1,-1
 48 345 l 1,2,-1
 609 345 l 1,3,-1
 609 245 l 1,0,-1
EndSplineSet
EndChar

StartChar: emdash
Encoding: 8212 8212 119
Width: 1056
Flags: W
HStem: 245 100<49 1007>
LayerCount: 3
Back
SplineSet
1007 248 m 1
 49 248 l 1
 49 345 l 1
 1007 345 l 1
 1007 248 l 1
EndSplineSet
Fore
SplineSet
1007 245 m 1
 49 245 l 1
 49 345 l 1
 1007 345 l 1
 1007 245 l 1
EndSplineSet
Validated: 1
Layer: 2
SplineSet
1007 245 m 1,0,-1
 49 245 l 1,1,-1
 49 345 l 1,2,-1
 1007 345 l 1,3,-1
 1007 245 l 1,0,-1
EndSplineSet
EndChar

StartChar: uni0E31.left
Encoding: 63248 63248 120
Width: 0
Flags: W
HStem: 682 77<-430.159 -286.769> 873 57<-554.033 -475.321>
VStem: -622 61<788.717 866.082> -469 65<787.134 866.4>
LayerCount: 3
Back
SplineSet
9 788 m 1
 9 788 l 0
 8 788 -51 725 -169 699 c 0
 -274 674 -388 687 -434 704 c 0
 -544 748 -535 872 -471 910 c 0
 -408 950 -314 918 -302 845 c 0
 -293 789 -326 757 -326 757 c 1
 -322 757 -245 753 -169 783 c 0
 -37 834 9 914 9 914 c 1
 9 788 l 1
-363 828 m 0
 -365 889 -457 886 -455 825 c 0
 -454 765 -362 766 -363 828 c 0
EndSplineSet
Fore
Refer: 177 3633 N 1 0 0 1 -166 0 2
Layer: 2
Refer: 177 3633 N 1 0 0 1 -166 0 2
EndChar

StartChar: uni0E47.left
Encoding: 63250 63250 122
Width: 0
Flags: W
HStem: 674 63<-372.032 -316.707> 759 94<-526.453 -455.348> 808 60<-371.338 -316.716> 926 80<-508.467 -305.584> 942 70<-572.169 -366.485>
VStem: -690 92<791.823 915.25> -314 52<739.023 806.421> -290 99<1020.32 1093>
LayerCount: 3
Back
SplineSet
-201 1061 m 1
 -201 1061 l 1
 -201 1061 -195 932 -297 917 c 0
 -376 904 -422 929 -497 926 c 0
 -543 923 -564 881 -564 840 c 0
 -564 802 -533 789 -533 789 c 1
 -533 792 -530 837 -494 846 c 0
 -455 857 -411 805 -411 805 c 1
 -411 805 -399 861 -337 861 c 0
 -290 861 -259 819 -265 760 c 0
 -268 717 -299 691 -337 690 c 0
 -406 687 -434 766 -471 765 c 0
 -517 763 -503 690 -503 688 c 1
 -561 690 -613 716 -632 769 c 0
 -661 849 -638 953 -553 981 c 0
 -484 1002 -388 972 -322 990 c 0
 -288 998 -293 1033 -290 1061 c 1
 -201 1061 l 1
-336 806 m 0
 -369 806 -374 746 -336 746 c 0
 -299 746 -303 806 -336 806 c 0
EndSplineSet
Fore
Refer: 197 3655 N 1 0 0 1 -166 0 2
Layer: 2
Refer: 197 3655 N 1 0 0 1 -166 0 2
EndChar

StartChar: uni0E01
Encoding: 3585 3585 129
Width: 674
Flags: W
HStem: 0 21G<116 234 474 592> 524 78<247.603 429.757>
VStem: 116 118<0 346.625> 474 118<0 481.284>
LayerCount: 3
Back
SplineSet
190 397 m 1
 149 441 64 476 57 478 c 1
 75 506 176 598 336 598 c 0
 518 598 592 506 592 411 c 2
 592 0 l 1
 474 0 l 1
 474 409 l 2
 474 486 426 524 339 524 c 0
 259 524 217 483 217 483 c 1
 220 481 239 471 271 448 c 0
 298 426 321 402 321 402 c 1
 318 402 288 389 260 356 c 4
 236 326 234 291 234 276 c 2
 234 0 l 1
 116 0 l 1
 116 276 l 2
 116 287 120 330 139 357 c 4
 162 386 190 397 190 397 c 1
EndSplineSet
Fore
SplineSet
190 397 m 1
 163 426 96 467 57 478 c 1
 108 549 227 602 336 602 c 3
 491 602 592 528 592 411 c 2
 592 0 l 1
 474 0 l 1
 474 409 l 2
 474 486 426 524 339 524 c 3
 291 524 250 509 217 483 c 1
 250 465 288 435 321 402 c 1
 265 374 234 331 234 276 c 2
 234 0 l 1
 116 0 l 1
 116 276 l 2
 116 333 137 367 190 397 c 1
EndSplineSet
Layer: 2
SplineSet
190 397 m 1,0,1
 170 419 170 419 128 444.5 c 128,-1,2
 86 470 86 470 57 478 c 1,3,4
 95 531 95 531 174.5 566.5 c 128,-1,5
 254 602 254 602 336 602 c 259,6,7
 453 602 453 602 522.5 550.5 c 128,-1,8
 592 499 592 499 592 411 c 2,9,-1
 592 0 l 1,10,-1
 474 0 l 1,11,-1
 474 409 l 2,12,13
 474 467 474 467 440 495.5 c 128,-1,14
 406 524 406 524 339 524 c 259,15,16
 269 524 269 524 217 483 c 1,17,18
 268 455 268 455 321 402 c 1,19,20
 234 358 234 358 234 276 c 2,21,-1
 234 0 l 1,22,-1
 116 0 l 1,23,-1
 116 276 l 2,24,25
 116 319 116 319 133 346.5 c 128,-1,26
 150 374 150 374 190 397 c 1,0,1
EndSplineSet
EndChar

StartChar: uni0E02
Encoding: 3586 3586 130
Width: 659
Flags: W
HStem: 0 78<120 190 308 452.956> 335 68<105.498 169.422> 524 78<196.678 265.4> 575 20G<462 580>
VStem: 29 73<406.177 476.638> 173 70<405.599 478.317> 190 118<78 287.79> 292 95<365.269 499.025> 462 118<86.6491 595>
LayerCount: 3
Back
SplineSet
410 78 m 2xf5
 441 78 462 94 462 135 c 2
 462 595 l 1
 580 595 l 1
 580 133 l 2
 580 73 553 0 449 0 c 2
 120 0 l 1
 120 78 l 1
 190 78 l 1
 190 224 l 2xf5
 190 305 292 343 292 434 c 0
 292 463 277 531 213 531 c 0
 206 531 200 530 196 530 c 1
 225 516 243 478 243 444 c 0
 243 396 210 342 141 342 c 0
 78 342 29 384 29 453 c 0
 29 511 65 598 207 598 c 4
 345 598 387 507 387 447 c 0xfb
 387 347 308 301 308 230 c 2
 308 78 l 1
 410 78 l 2xf5
105 451 m 0
 105 431 117 412 142 412 c 0
 165 412 176 431 176 451 c 0xf9
 176 470 165 490 141 490 c 0
 117 490 105 470 105 451 c 0
EndSplineSet
Fore
SplineSet
410 78 m 2xea80
 444 78 462 96 462 135 c 2
 462 595 l 1
 580 595 l 1
 580 133 l 2
 580 50 534 0 449 0 c 2
 120 0 l 1
 120 78 l 1
 190 78 l 1
 190 224 l 2xda80
 190 255 204 282 238 322 c 0
 278 368 292 399 292 434 c 3
 292 488 260 524 213 524 c 3
 208 524 202 524 196 523 c 1
 223 510 243 473 243 437 c 3
 243 378 198 335 141 335 c 3
 74 335 29 381 29 446 c 3
 29 538 100 602 207 602 c 3
 314 602 387 538 387 447 c 3xed80
 387 408 376 375 343 319 c 0
 315 271 308 253 308 230 c 2
 308 78 l 1
 410 78 l 2xea80
102 442 m 3
 102 420 116 403 139 403 c 3
 158 403 173 419 173 442 c 3xcc80
 173 465 158 481 138 481 c 3
 117 481 102 465 102 442 c 3
EndSplineSet
Layer: 2
SplineSet
410 78 m 2,0,1
 462 78 462 78 462 135 c 2,2,-1
 462 595 l 1,3,-1
 580 595 l 1,4,-1
 580 133 l 2,5,6
 580 70 580 70 546 35 c 128,-1,7
 512 0 512 0 449 0 c 2,8,-1
 120 0 l 1,9,-1
 120 78 l 1,10,-1
 190 78 l 1,11,-1
 190 224 l 2,12,13
 190 266 190 266 238 322 c 0,14,15
 292 384 292 384 292 434 c 259,16,17
 292 474 292 474 270 499 c 128,-1,18
 248 524 248 524 213 524 c 259,19,20
 202 524 202 524 196 523 c 1,21,22
 216 513 216 513 229.5 488.5 c 128,-1,23
 243 464 243 464 243 437 c 259,24,25
 243 393 243 393 213.5 364 c 128,-1,26
 184 335 184 335 141 335 c 259,27,28
 91 335 91 335 60 366 c 128,-1,29
 29 397 29 397 29 446 c 259,30,31
 29 515 29 515 78 558.5 c 128,-1,32
 127 602 127 602 207 602 c 259,33,34
 287 602 287 602 337 558.5 c 128,-1,35
 387 515 387 515 387 447 c 259,36,37
 387 394 387 394 343 319 c 0,38,39
 308 259 308 259 308 230 c 2,40,-1
 308 78 l 1,41,-1
 410 78 l 2,0,1
102 442 m 259,42,43
 102 425 102 425 112 414 c 128,-1,44
 122 403 122 403 139 403 c 259,45,46
 153 403 153 403 163 414 c 128,-1,47
 173 425 173 425 173 442 c 259,48,49
 173 459 173 459 163 470 c 128,-1,50
 153 481 153 481 138 481 c 259,51,52
 122 481 122 481 112 470 c 128,-1,53
 102 459 102 459 102 442 c 259,42,43
EndSplineSet
EndChar

StartChar: uni0E03
Encoding: 3587 3587 131
Width: 669
Flags: W
HStem: 0 78<132 204 322 458.387> 275 68<79.7265 137.169> 421 68<98.4893 137.265> 524 78<101.819 189.067 255.928 333.5> 575 20G<463 581>
VStem: 6 70<346.497 417.26> 141 70<345.255 418.745> 204 118<78 291.642> 309 98<398.269 519.805> 463 118<85.7634 595>
LayerCount: 3
Back
SplineSet
409 78 m 2xcba0
 443.5 78 463 92 463 119 c 2
 463 595 l 1
 581 595 l 1
 581 120 l 2
 581 29 516 7.34351e-06 432 0 c 2
 132 0 l 1
 132 78 l 1
 204 78 l 1
 204 221 l 2xcba0
 204 298 309 373 309 448 c 0
 309 478 292 500 279 500 c 0xcb60
 253 500 222 458 221 458 c 1xd360
 219.5 461.5 185 520 137 520 c 0
 103 520 98 485 98 481 c 1
 98 481 103 483 113 483 c 0
 163 483 200 441 200 388 c 0
 200 334 163 289 107 289 c 0
 48 289 7 335 7 412 c 0
 7 485 45 596 136 596 c 0xe760
 186 596 224 543 225 543 c 1xd360
 230 541 264 596 307 596 c 0
 367 596 407 519 407 459 c 0xcb60
 407 336 322 315 322 215 c 2
 322 78 l 1
 409 78 l 2xcba0
141 389 m 0
 141 411 129 429 107 429 c 0xe320
 86 429 76 411 76 392 c 0
 76 372 87 352 109 351 c 0
 129 351 139 369 141 389 c 0
EndSplineSet
Fore
SplineSet
409 78 m 2xf540
 443 78 463 92 463 119 c 2
 463 595 l 1
 581 595 l 1
 581 120 l 2
 581 41 531 0 432 0 c 2
 132 0 l 1
 132 78 l 1
 204 78 l 1
 204 227 l 2xed40
 204 253 225 297 257 346 c 0
 288 394 309 438 309 463 c 3
 309 491 293 524 279 524 c 3
 264 524 245 505 221 464 c 1
 204 497 166 524 137 524 c 3
 116 524 98 507 98 487 c 1
 102 488 107 489 113 489 c 3
 172 489 211 443 211 380 c 3
 211 320 168 275 107 275 c 3
 45 275 6 325 6 404 c 3
 6 520 60 602 136 602 c 3
 167 602 198 582 225 549 c 1
 257 587 282 602 307 602 c 3
 360 602 407 536 407 465 c 3xf6c0
 407 415 394 379 361 329 c 0
 331 282 322 257 322 221 c 2
 322 78 l 1
 409 78 l 2xf540
141 381 m 3xe640
 141 403 129 421 107 421 c 3
 86 421 76 403 76 384 c 3
 76 364 88 343 109 343 c 3
 129 343 141 363 141 381 c 3xe640
EndSplineSet
Layer: 2
SplineSet
409 78 m 2,0,1
 463 78 463 78 463 119 c 2,2,-1
 463 595 l 1,3,-1
 581 595 l 1,4,-1
 581 120 l 2,5,6
 581 0 581 0 432 0 c 2,7,-1
 132 0 l 1,8,-1
 132 78 l 1,9,-1
 204 78 l 1,10,-1
 204 227 l 2,11,12
 204 265 204 265 257 346 c 0,13,14
 309 427 309 427 309 463 c 259,15,16
 309 484 309 484 299 504 c 128,-1,17
 289 524 289 524 279 524 c 259,18,19
 256 524 256 524 221 464 c 1,20,21
 208 489 208 489 183.5 506.5 c 128,-1,22
 159 524 159 524 137 524 c 259,23,24
 121 524 121 524 109.5 513 c 128,-1,25
 98 502 98 502 98 487 c 1,26,27
 106 489 106 489 113 489 c 259,28,29
 157 489 157 489 184 458.5 c 128,-1,30
 211 428 211 428 211 380 c 259,31,32
 211 335 211 335 181.5 305 c 128,-1,33
 152 275 152 275 107 275 c 259,34,35
 61 275 61 275 33.5 310 c 128,-1,36
 6 345 6 345 6 404 c 259,37,38
 6 491 6 491 42.5 546.5 c 128,-1,39
 79 602 79 602 136 602 c 259,40,41
 182 602 182 602 225 549 c 1,42,43
 270 602 270 602 307 602 c 259,44,45
 347 602 347 602 377 560.5 c 128,-1,46
 407 519 407 519 407 465 c 259,47,48
 407 399 407 399 361 329 c 0,49,50
 322 268 322 268 322 221 c 2,51,-1
 322 78 l 1,52,-1
 409 78 l 2,0,1
141 381 m 259,53,54
 141 398 141 398 132 409.5 c 128,-1,55
 123 421 123 421 107 421 c 259,56,57
 92 421 92 421 84 410 c 128,-1,58
 76 399 76 399 76 384 c 259,59,60
 76 368 76 368 85 355.5 c 128,-1,61
 94 343 94 343 109 343 c 259,62,63
 123 343 123 343 132 354.5 c 128,-1,64
 141 366 141 366 141 381 c 259,53,54
EndSplineSet
EndChar

StartChar: uni0E04
Encoding: 3588 3588 132
Width: 702
Flags: W
HStem: 0 21G<147 267 502 620> 205 68<317.094 385.983> 348 68<318.224 385.973> 524 78<252.735 448.915>
VStem: 65 118<243.611 455.236> 147 120<0 130.525> 389 70<276.734 344.777> 502 118<0 474.594>
LayerCount: 3
Back
SplineSet
70 358 m 0xfb
 70 550 226 598 355 598 c 0
 524 598 620 514 620 380 c 2
 620 0 l 1
 502 0 l 1
 502 374 l 2
 502 444 488 510 349 510 c 0
 200 510 178 425 178 368 c 0xfb
 178 293 210 173 213 169 c 1
 213 173 224 302 248 348 c 0
 268 386 293 412 354 414 c 0
 420 414 457 361 457 307 c 0
 457 245 414 207 356 207 c 0
 323 207 300 221 300 221 c 1
 300 221 267 96 267 0 c 1
 147 0 l 1
 147 21 l 2xf7
 147 143 70 229 70 358 c 0xfb
354 348 m 0
 328 348 316 329 316 310 c 0
 316 292 328 273 354 273 c 0
 378 273 391 292 391 310 c 0
 391 329 378 348 354 348 c 0
EndSplineSet
Fore
SplineSet
65 358 m 3xfb
 65 511 171 602 353 602 c 3
 522 602 620 518 620 384 c 2
 620 0 l 1
 502 0 l 1
 502 378 l 2
 502 482 463 524 351 524 c 3
 243 524 183 469 183 368 c 3xfb
 183 317 197 221 213 169 c 1
 227 351 265 416 354 416 c 3
 414 416 459 367 459 307 c 3
 459 247 417 205 356 205 c 3
 336 205 317 211 300 221 c 1
 280 144 267 64 267 0 c 1
 147 0 l 1
 147 21 l 2xf7
 147 61 133 117 106 187 c 0
 80 255 65 316 65 358 c 3xfb
352 348 m 3
 329 348 314 332 314 310 c 3
 314 288 330 273 352 273 c 3
 374 273 389 288 389 310 c 3
 389 332 374 348 352 348 c 3
EndSplineSet
Layer: 2
SplineSet
65 358 m 259,0,1
 65 473 65 473 141 537.5 c 128,-1,2
 217 602 217 602 353 602 c 259,3,4
 479 602 479 602 549.5 543.5 c 128,-1,5
 620 485 620 485 620 384 c 2,6,-1
 620 0 l 1,7,-1
 502 0 l 1,8,-1
 502 378 l 2,9,10
 502 457 502 457 468 490.5 c 128,-1,11
 434 524 434 524 351 524 c 259,12,13
 270 524 270 524 226.5 484 c 128,-1,14
 183 444 183 444 183 368 c 259,15,16
 183 329 183 329 192 268 c 128,-1,17
 201 207 201 207 213 169 c 1,18,19
 223 305 223 305 255 360.5 c 128,-1,20
 287 416 287 416 354 416 c 259,21,22
 399 416 399 416 429 384 c 128,-1,23
 459 352 459 352 459 307 c 259,24,25
 459 262 459 262 430.5 233.5 c 128,-1,26
 402 205 402 205 356 205 c 259,27,28
 327 205 327 205 300 221 c 1,29,30
 267 94 267 94 267 0 c 1,31,-1
 147 0 l 1,32,-1
 147 21 l 2,33,34
 147 81 147 81 106 187 c 0,35,36
 65 294 65 294 65 358 c 259,0,1
352 348 m 259,37,38
 335 348 335 348 324.5 337.5 c 128,-1,39
 314 327 314 327 314 310 c 259,40,41
 314 294 314 294 324.5 283.5 c 128,-1,42
 335 273 335 273 352 273 c 259,43,44
 368 273 368 273 378.5 283.5 c 128,-1,45
 389 294 389 294 389 310 c 259,46,47
 389 327 389 327 378.5 337.5 c 128,-1,48
 368 348 368 348 352 348 c 259,37,38
EndSplineSet
EndChar

StartChar: uni0E05
Encoding: 3589 3589 133
Width: 698
Flags: W
HStem: 0 21G<136 257.5 494 612> 182 68<309.302 376.09> 325 68<310.658 376.991> 582 20G<187 277.982 402.614 493.5>
VStem: 55 118<242.658 459.97> 380 70<253.125 321.628> 494 118<0 484.719>
LayerCount: 3
Back
SplineSet
136 25 m 2xf7
 136 161 60 223 60 358 c 0
 60 539 200 598 245 598 c 1
 339 541 l 1
 437 598 l 1
 488 598 612 561 612 406 c 2
 612 0 l 1
 494 0 l 1
 494 401 l 2
 494 474 468 499 430 499 c 1
 339 452 l 1
 243 498 l 1
 213 498 168 449 168 361 c 0xfb
 168 286 199 173 202 169 c 1
 202 173 216 284 235 320 c 0
 253 355 278 392 347 392 c 0
 385 392 447 371 447 288 c 0
 447 205 377 184 342 184 c 0
 313 184 290 195 290 195 c 1
 284 172 277 153 273 127 c 0
 265 78 258 48 254 0 c 1
 136 0 l 1
 136 25 l 2xf7
346 325 m 0
 322 325 309 306 309 288 c 0
 309 269 322 250 346 250 c 0
 370 250 383 269 383 288 c 0
 383 306 370 325 346 325 c 0
EndSplineSet
Fore
SplineSet
136 25 m 2
 136 68 122 125 95 193 c 0
 68 259 55 312 55 360 c 3
 55 488 129 581 245 602 c 1
 339 545 l 1
 437 602 l 1
 550 590 612 520 612 410 c 2
 612 0 l 1
 494 0 l 1
 494 405 l 2
 494 472 473 503 430 503 c 1
 339 456 l 1
 243 502 l 1
 203 498 173 437 173 363 c 3
 173 311 190 196 202 169 c 1
 218 331 258 393 347 393 c 3
 409 393 450 351 450 288 c 3
 450 227 405 182 342 182 c 3
 322 182 307 186 290 195 c 1
 274 138 261 64 254 0 c 1
 136 0 l 1
 136 25 l 2
343 325 m 3
 321 325 306 309 306 288 c 3
 306 266 322 250 343 250 c 3
 364 250 380 266 380 288 c 3
 380 309 365 325 343 325 c 3
EndSplineSet
Layer: 2
SplineSet
136 25 m 2,0,1
 136 90 136 90 95 193 c 0,2,3
 55 291 55 291 55 360 c 259,4,5
 55 456 55 456 106.5 521 c 128,-1,6
 158 586 158 586 245 602 c 1,7,-1
 339 545 l 1,8,-1
 437 602 l 1,9,10
 521 593 521 593 566.5 543 c 128,-1,11
 612 493 612 493 612 410 c 2,12,-1
 612 0 l 1,13,-1
 494 0 l 1,14,-1
 494 405 l 2,15,16
 494 503 494 503 430 503 c 1,17,-1
 339 456 l 1,18,-1
 243 502 l 1,19,20
 213 499 213 499 193 459 c 128,-1,21
 173 419 173 419 173 363 c 259,22,23
 173 324 173 324 183 256.5 c 128,-1,24
 193 189 193 189 202 169 c 1,25,26
 214 291 214 291 247 342 c 128,-1,27
 280 393 280 393 347 393 c 0,28,29
 393 393 393 393 421.5 364 c 128,-1,30
 450 335 450 335 450 288 c 259,31,32
 450 242 450 242 419.5 212 c 128,-1,33
 389 182 389 182 342 182 c 259,34,35
 315 182 315 182 290 195 c 1,36,37
 266 109 266 109 254 0 c 1,38,-1
 136 0 l 1,39,-1
 136 25 l 2,0,1
343 325 m 259,40,41
 327 325 327 325 316.5 314.5 c 128,-1,42
 306 304 306 304 306 288 c 259,43,44
 306 272 306 272 316.5 261 c 128,-1,45
 327 250 327 250 343 250 c 259,46,47
 359 250 359 250 369.5 261 c 128,-1,48
 380 272 380 272 380 288 c 259,49,50
 380 304 380 304 369.5 314.5 c 128,-1,51
 359 325 359 325 343 325 c 259,40,41
EndSplineSet
EndChar

StartChar: uni0E06
Encoding: 3590 3590 134
Width: 767
Flags: W
HStem: -5 135<533.784 616> -5 78<228.357 275.407> 203 78<233.929 275.766> 274 68<89.3017 146.699> 421 68<109.374 146.523> 524 78<113.13 198.111 269.874 342> 575 20G<561 679>
VStem: 16 70<345.133 417.074> 138 82<80.194 195.019> 150 70<344.193 418.943> 276 118<73.7637 155 281 420.268> 313 104<405.332 523.098> 561 118<130.001 595>
LayerCount: 3
Back
SplineSet
17 411 m 0xf358
 17 504 66 596 147 596 c 0xf358
 197 596 235 543 236 543 c 1xe958
 241 541 273 596 317 596 c 0
 380 596 417 512 417 470 c 0xe558
 417 436 394 394 394 348 c 2
 394 258 l 1
 397 256 428 244 466 213 c 0
 503 182 512 172 544 143 c 0
 561 127 563 127 563 139 c 2
 563 595 l 1
 679 595 l 1
 679 89 l 2
 679 16 623 -3 589 -3 c 0
 541 -3 513 34 468 83 c 0
 417 138 397 150 394 155 c 1
 394 98 l 2
 394 11 325 -5 271 -5 c 0
 206 -5 138 40 138 133 c 0
 138 250 233 281 276 281 c 1
 276 351 l 2xe5a8
 276 392 313 414 313 461 c 0
 313 482 303 500 290 500 c 0xe518
 264 500 231 458 230 458 c 1xe918
 226 464 196 520 148 520 c 0
 117 520 109 491 109 481 c 1
 109 481 114 483 123 483 c 0
 163 483 211 450 211 387 c 0
 211 333 173 289 117 289 c 0
 77 289 17 313 17 411 c 0xf358
220 130 m 0xe1a8
 220 105 229 76 268 76 c 0
 275 76 276 81 276 98 c 2
 276 198 l 1
 275 198 270 200 262 200 c 0
 228 200 220 154 220 130 c 0xe1a8
150 388 m 0xf148
 150 409 139 428 118 428 c 0
 97 428 86 409 86 390 c 0
 86 370 97 350 118 349 c 0
 139 349 150 368 150 388 c 0xf148
EndSplineSet
Fore
SplineSet
16 404 m 3x1d58
 16 521 72 602 147 602 c 3
 175 602 203 586 236 549 c 1
 278 591 295 602 317 602 c 3
 367 602 417 539 417 476 c 3x1d58
 417 464 413 447 405 416 c 0
 397 387 394 365 394 348 c 2
 394 258 l 1
 438 238 469 213 532 153 c 0
 547 139 557 130 559 130 c 3
 560 130 561 132 561 139 c 2
 561 595 l 1
 679 595 l 1
 679 89 l 2
 679 33 643 -5 589 -5 c 3x8b28
 555 -5 531 12 468 83 c 0
 445 108 415 138 394 155 c 1
 394 98 l 2
 394 29 353 -5 271 -5 c 3
 192 -5 138 54 138 133 c 3
 138 218 197 281 276 281 c 1
 276 351 l 2x69a8
 276 365 282 386 294 411 c 0
 305 436 313 460 313 476 c 3
 313 500 302 524 290 524 c 3
 274 524 254 504 230 464 c 1
 203 505 176 524 148 524 c 3
 126 524 112 511 109 487 c 1
 113 488 117 489 123 489 c 3
 180 489 220 443 220 380 c 3
 220 318 178 274 117 274 c 3
 54 274 16 323 16 404 c 3x1d58
220 130 m 3xa9a8
 220 92 236 73 268 73 c 3x49a8
 273 73 276 80 276 95 c 2
 276 201 l 1
 271 202 266 203 262 203 c 3
 237 203 220 173 220 130 c 3xa9a8
150 382 m 3x1948
 150 404 137 421 118 421 c 3
 99 421 86 404 86 382 c 3
 86 359 99 342 118 342 c 3
 137 342 150 359 150 382 c 3x1948
EndSplineSet
Layer: 2
SplineSet
16 404 m 259,0,1
 16 491 16 491 53 546.5 c 128,-1,2
 90 602 90 602 147 602 c 259,3,4
 189 602 189 602 236 549 c 1,5,6
 267 580 267 580 283.5 591 c 128,-1,7
 300 602 300 602 317 602 c 259,8,9
 354 602 354 602 385.5 562.5 c 128,-1,10
 417 523 417 523 417 476 c 259,11,12
 417 462 417 462 405 416 c 0,13,14
 394 376 394 376 394 348 c 2,15,-1
 394 258 l 1,16,17
 447 234 447 234 532 153 c 0,18,19
 557 130 557 130 559 130 c 259,20,21
 561 130 561 130 561 139 c 2,22,-1
 561 595 l 1,23,-1
 679 595 l 1,24,-1
 679 89 l 2,25,26
 679 47 679 47 654 21 c 128,-1,27
 629 -5 629 -5 589 -5 c 259,28,29
 563 -5 563 -5 539 12.5 c 128,-1,30
 515 30 515 30 468 83 c 0,31,32
 424 130 424 130 394 155 c 1,33,-1
 394 98 l 2,34,35
 394 -5 394 -5 271 -5 c 259,36,37
 212 -5 212 -5 175 34 c 128,-1,38
 138 73 138 73 138 133 c 259,39,40
 138 197 138 197 177.5 239 c 128,-1,41
 217 281 217 281 276 281 c 1,42,-1
 276 351 l 2,43,44
 276 374 276 374 294 411 c 0,45,46
 313 454 313 454 313 476 c 259,47,48
 313 494 313 494 306 509 c 128,-1,49
 299 524 299 524 290 524 c 259,50,51
 266 524 266 524 230 464 c 1,52,53
 190 524 190 524 148 524 c 259,54,55
 114 524 114 524 109 487 c 1,56,57
 117 489 117 489 123 489 c 259,58,59
 166 489 166 489 193 458 c 128,-1,60
 220 427 220 427 220 380 c 259,61,62
 220 333 220 333 191.5 303.5 c 128,-1,63
 163 274 163 274 117 274 c 259,64,65
 70 274 70 274 43 308.5 c 128,-1,66
 16 343 16 343 16 404 c 259,0,1
220 130 m 259,67,68
 220 73 220 73 268 73 c 259,69,70
 276 73 276 73 276 95 c 2,71,-1
 276 201 l 1,72,73
 266 203 266 203 262 203 c 0,74,75
 243 203 243 203 231.5 182.5 c 128,-1,76
 220 162 220 162 220 130 c 259,67,68
150 382 m 259,77,78
 150 399 150 399 141 410 c 128,-1,79
 132 421 132 421 118 421 c 259,80,81
 104 421 104 421 95 410 c 128,-1,82
 86 399 86 399 86 382 c 259,83,84
 86 365 86 365 95 353.5 c 128,-1,85
 104 342 104 342 118 342 c 259,86,87
 132 342 132 342 141 353.5 c 128,-1,88
 150 365 150 365 150 382 c 259,77,78
EndSplineSet
EndChar

StartChar: uni0E07
Encoding: 3591 3591 135
Width: 510
Flags: W
HStem: -5 78<223.612 293.717> 240 104<18 68.3873> 388 68<250.772 299.904> 534 68<249.879 321.276>
VStem: 176 70<460.038 529.054> 300 118<77.3979 389> 325 93<459.597 528.764>
LayerCount: 3
Back
SplineSet
176 487 m 0xf8
 176 564 237 598 287 598 c 0
 406 598 418 504 418 460 c 2xf4
 418 152 l 2
 418 28 330 -3 263 -3 c 0
 212 -3 155 16 127 74 c 0
 104 123 103 167 75 212 c 0
 55 242 40 236 18 242 c 1
 18 345 l 1
 19 345 27 346 39 346 c 0
 63 346 104 341 132 307 c 0
 188 237 184 86 256 86 c 0
 295 86 300 113 300 146 c 2
 300 379 l 1
 300 379 296 378 289 378 c 0
 224 378 176 422 176 487 c 0xf8
325 488 m 0
 325 511 309 527 286 527 c 0
 263 527 246 511 246 488 c 0
 246 465 263 449 286 449 c 0
 309 449 325 465 325 488 c 0
EndSplineSet
Fore
SplineSet
176 494 m 3xfc
 176 559 222 602 287 602 c 3
 374 602 418 556 418 467 c 2xfa
 418 150 l 2
 418 52 360 -5 263 -5 c 3
 173 -5 132 34 104 138 c 0
 83 214 64 238 18 240 c 1
 18 343 l 1
 25 344 33 344 39 344 c 3
 115 344 143 313 185 184 c 0
 212 99 230 73 256 73 c 3
 288 73 300 90 300 133 c 2
 300 389 l 1
 296 388 292 388 289 388 c 3
 224 388 176 429 176 494 c 3xfc
325 495 m 3
 325 518 309 534 286 534 c 3
 263 534 246 518 246 495 c 3
 246 472 263 456 286 456 c 3
 309 456 325 472 325 495 c 3
EndSplineSet
Layer: 2
SplineSet
176 494 m 259,0,1
 176 542 176 542 207 572 c 128,-1,2
 238 602 238 602 287 602 c 259,3,4
 418 602 418 602 418 467 c 2,5,-1
 418 150 l 2,6,7
 418 77 418 77 377 36 c 128,-1,8
 336 -5 336 -5 263 -5 c 259,9,10
 196 -5 196 -5 160.5 27 c 128,-1,11
 125 59 125 59 104 138 c 256,12,13
 88 195 88 195 70 217 c 128,-1,14
 52 239 52 239 18 240 c 1,15,-1
 18 343 l 1,16,17
 25 344 25 344 39 344 c 259,18,19
 96 344 96 344 124.5 312.5 c 128,-1,20
 153 281 153 281 185 184 c 256,21,22
 205 121 205 121 220.5 97 c 128,-1,23
 236 73 236 73 256 73 c 259,24,25
 280 73 280 73 290 87 c 128,-1,26
 300 101 300 101 300 133 c 2,27,-1
 300 389 l 1,28,29
 296 388 296 388 289 388 c 259,30,31
 239 388 239 388 207.5 417 c 128,-1,32
 176 446 176 446 176 494 c 259,0,1
325 495 m 259,33,34
 325 512 325 512 314 523 c 128,-1,35
 303 534 303 534 286 534 c 259,36,37
 269 534 269 534 257.5 523 c 128,-1,38
 246 512 246 512 246 495 c 259,39,40
 246 478 246 478 257.5 467 c 128,-1,41
 269 456 269 456 286 456 c 259,42,43
 303 456 303 456 314 467 c 128,-1,44
 325 478 325 478 325 495 c 259,33,34
EndSplineSet
EndChar

StartChar: uni0E08
Encoding: 3592 3592 136
Width: 606
Flags: W
HStem: -5 78<319.467 398.305> 192 68<151.594 189.063> 335 68<151.477 220.441> 524 78<163.946 357.594>
VStem: 77 70<264.117 331.622> 190 118<84.0124 192> 224 84<263.382 330.668> 405 118<77.3604 476.357>
LayerCount: 3
Back
SplineSet
15 486 m 1
 22 518 96 598 267 598 c 0
 424 598 523 531 523 404 c 2
 523 170 l 2
 523 46 458 -3 357 -3 c 0
 274 -3 221 38 210 94 c 0
 202 130 201 166 201 185 c 2
 201 198 l 1
 199 198 195 197 190 197 c 0
 102 197 80 257 80 298 c 0
 80 362 127 404 190 404 c 0
 227 404 263 388 282 357 c 0
 311 311 302 228 308 175 c 0
 313 122 308 86 363 86 c 0
 395 86 405 102 405 139 c 2
 405 379 l 2
 405 476 356 510 261 510 c 0
 164 510 114 458 83 434 c 1
 15 486 l 1
221 299 m 0
 221 319 207 337 182 337 c 0
 157 337 144 318 144 299 c 0
 144 281 156 262 182 262 c 0
 208 262 221 281 221 299 c 0
EndSplineSet
Fore
SplineSet
15 490 m 1xfd
 44 557 142 602 267 602 c 3
 430 602 523 531 523 408 c 2
 523 168 l 2
 523 54 469 -5 357 -5 c 3
 253 -5 190 59 190 170 c 2
 190 192 l 1
 122 192 77 232 77 296 c 3
 77 358 125 403 190 403 c 3xfd
 257 403 308 356 308 296 c 2xfb
 308 173 l 2
 308 93 321 73 363 73 c 3
 394 73 405 89 405 126 c 2
 405 393 l 2
 405 486 359 524 261 524 c 3
 195 524 155 506 83 448 c 1
 15 490 l 1xfd
224 297 m 3xfb
 224 320 208 335 185 335 c 3
 163 335 147 319 147 297 c 3
 147 275 163 260 185 260 c 3
 207 260 224 275 224 297 c 3xfb
EndSplineSet
Layer: 2
SplineSet
15 490 m 1,0,1
 37 541 37 541 105.5 571.5 c 128,-1,2
 174 602 174 602 267 602 c 259,3,4
 389 602 389 602 456 551 c 128,-1,5
 523 500 523 500 523 408 c 2,6,-1
 523 168 l 2,7,8
 523 79 523 79 480.5 37 c 128,-1,9
 438 -5 438 -5 357 -5 c 259,10,11
 279 -5 279 -5 234.5 41 c 128,-1,12
 190 87 190 87 190 170 c 2,13,-1
 190 192 l 1,14,15
 139 192 139 192 108 220 c 128,-1,16
 77 248 77 248 77 296 c 259,17,18
 77 342 77 342 109 372.5 c 128,-1,19
 141 403 141 403 190 403 c 259,20,21
 240 403 240 403 274 372 c 128,-1,22
 308 341 308 341 308 296 c 2,23,-1
 308 173 l 2,24,25
 308 114 308 114 319.5 93.5 c 128,-1,26
 331 73 331 73 363 73 c 259,27,28
 386 73 386 73 395.5 85.5 c 128,-1,29
 405 98 405 98 405 126 c 2,30,-1
 405 393 l 2,31,32
 405 462 405 462 370 493 c 128,-1,33
 335 524 335 524 261 524 c 259,34,35
 212 524 212 524 175 508 c 128,-1,36
 138 492 138 492 83 448 c 1,37,-1
 15 490 l 1,0,1
224 297 m 259,38,39
 224 314 224 314 213 324.5 c 128,-1,40
 202 335 202 335 185 335 c 259,41,42
 168 335 168 335 157.5 324.5 c 128,-1,43
 147 314 147 314 147 297 c 259,44,45
 147 281 147 281 157.5 270.5 c 128,-1,46
 168 260 168 260 185 260 c 259,47,48
 202 260 202 260 213 270.5 c 128,-1,49
 224 281 224 281 224 297 c 259,38,39
EndSplineSet
EndChar

StartChar: uni0E09
Encoding: 3593 3593 137
Width: 711
Flags: W
HStem: -5 116<227 313.393> -5 78<564.364 610.342> 177 68<128.269 157.851> 217 78<563 601.419> 317 68<127.141 184.647> 524 78<175.961 392.069>
VStem: 54 70<247.243 315.143> 158 118<111.002 177> 188 88<246.437 314.164> 445 118<73.6768 160 291.325 475.333> 618 75<76.5498 200.92>
AnchorPoint: "AboveBase" 560 613 basechar 0
LayerCount: 3
Back
SplineSet
693 145 m 0x9f60
 693 81 668 -3 569 -3 c 0x5f60
 530 -3 445 16 445 94 c 2
 445 162 l 1
 443 159 414 129 372 61 c 0
 340 12 310 -3 258 -3 c 0
 170 -3 159 50 159 74 c 2
 159 179 l 1xaf60
 96 179 58 225 58 281 c 0
 58 334 92 386 166 386 c 0
 233 386 276 336 276 276 c 2xaee0
 276 124 l 2
 276 116 276 113 285 113 c 0
 303 113 322 149 362 198 c 0
 409 258 440 271 445 274 c 1
 445 389 l 2
 445 483 375 506 290 506 c 0
 136 506 106 431 104 426 c 1
 25 475 l 1
 25 488 94 604 295 604 c 0
 453 604 563 542 563 417 c 2
 563 297 l 1
 628 288 693 261 693 145 c 0x9f60
563 219 m 1
 563 114 l 2
 563 90 566 86 584 86 c 0
 615 86 618 129 618 149 c 0
 618 202 579 219 563 219 c 1
185 289 m 0x2ee0
 185 313 167 319 154 319 c 0
 133 319 122 301 122 283 c 0
 122 265 133 247 155 247 c 0
 172 247 185 269 185 289 c 0x2ee0
EndSplineSet
Fore
SplineSet
693 143 m 3x9f60
 693 50 647 -5 569 -5 c 3x5f60
 497 -5 445 34 445 92 c 2
 445 160 l 1
 420 131 400 103 385 79 c 0
 344 13 317 -5 258 -5 c 3
 196 -5 158 23 158 72 c 2
 158 177 l 1xaf60
 97 177 54 221 54 279 c 3
 54 342 101 385 165 385 c 3
 232 385 276 334 276 274 c 2xaee0
 276 122 l 2
 276 114 278 111 285 111 c 3
 294 111 308 123 333 158 c 0
 374 214 407 249 445 272 c 1
 445 407 l 2
 445 486 395 524 290 524 c 3
 196 524 126 490 104 434 c 1
 25 473 l 1
 58 549 164 602 295 602 c 3
 467 602 563 531 563 415 c 2
 563 295 l 1
 655 282 693 235 693 143 c 3x9f60
563 217 m 1
 563 101 l 2
 563 77 566 73 584 73 c 3
 606 73 618 96 618 142 c 3
 618 185 597 212 563 217 c 1
188 281 m 3x2ee0
 188 303 176 317 156 317 c 3
 136 317 124 303 124 281 c 3
 124 259 136 245 156 245 c 3
 176 245 188 259 188 281 c 3x2ee0
EndSplineSet
Layer: 2
SplineSet
693 143 m 259,0,1
 693 73 693 73 660 34 c 128,-1,2
 627 -5 627 -5 569 -5 c 259,3,4
 515 -5 515 -5 480 22 c 128,-1,5
 445 49 445 49 445 92 c 2,6,-1
 445 160 l 1,7,8
 411 120 411 120 385 79 c 0,9,10
 354 29 354 29 328 12 c 128,-1,11
 302 -5 302 -5 258 -5 c 259,12,13
 211 -5 211 -5 184.5 15 c 128,-1,14
 158 35 158 35 158 72 c 2,15,-1
 158 177 l 1,16,17
 113 177 113 177 83.5 206 c 128,-1,18
 54 235 54 235 54 279 c 259,19,20
 54 326 54 326 85.5 355.5 c 128,-1,21
 117 385 117 385 165 385 c 259,22,23
 214 385 214 385 245 352.5 c 128,-1,24
 276 320 276 320 276 274 c 2,25,-1
 276 122 l 2,26,27
 276 111 276 111 285 111 c 259,28,29
 299 111 299 111 333 158 c 0,30,31
 394 241 394 241 445 272 c 1,32,-1
 445 407 l 2,33,34
 445 466 445 466 405.5 495 c 128,-1,35
 366 524 366 524 290 524 c 259,36,37
 220 524 220 524 170.5 500 c 128,-1,38
 121 476 121 476 104 434 c 1,39,-1
 25 473 l 1,40,41
 50 531 50 531 124 566.5 c 128,-1,42
 198 602 198 602 295 602 c 259,43,44
 423 602 423 602 493 552.5 c 128,-1,45
 563 503 563 503 563 415 c 2,46,-1
 563 295 l 1,47,48
 632 285 632 285 662.5 248.5 c 128,-1,49
 693 212 693 212 693 143 c 259,0,1
563 217 m 1,50,-1
 563 101 l 2,51,52
 563 83 563 83 566.5 78 c 128,-1,53
 570 73 570 73 584 73 c 259,54,55
 618 73 618 73 618 142 c 259,56,57
 618 174 618 174 603.5 193.5 c 128,-1,58
 589 213 589 213 563 217 c 1,50,-1
188 281 m 259,59,60
 188 317 188 317 156 317 c 259,61,62
 124 317 124 317 124 281 c 259,63,64
 124 245 124 245 156 245 c 259,65,66
 188 245 188 245 188 281 c 259,59,60
EndSplineSet
EndChar

StartChar: uni0E0A
Encoding: 3594 3594 138
Width: 656
Flags: W
HStem: 0 78<104 175 293 437.911> 341 68<91.0129 155.354> 524 78<185.242 250.279>
VStem: 17 70<411.984 483.091> 159 70<412.236 483.967> 175 118<78 286.615> 448 118<86.2621 394.172>
LayerCount: 3
Back
SplineSet
190 598 m 0xfa
 328 598 363 510 366 487 c 1
 373 491 535 577 582 670 c 1
 609 561 l 1
 609 552 513 479 458 468 c 1
 463 466 503 451 529 418 c 0
 561 380 566 346 566 300 c 2
 566 133 l 2
 566 76 540 0 434 0 c 2
 104 0 l 1
 104 78 l 1
 175 78 l 1
 175 225 l 2xf6
 175 303 276 346 276 436 c 0
 276 470 261 527 194 527 c 2
 181 527 l 1
 189 523 225 510 225 450 c 0
 225 396 188 345 122 345 c 0
 67 345 20 387 20 457 c 0
 20 508 51 598 190 598 c 0xfa
395 78 m 2
 423 78 448 89 448 135 c 2
 448 325 l 2
 448 351 445 372 428 391 c 0
 402 422 395 422 371 423 c 1
 369 425 l 1
 358 336 293 300 293 233 c 2
 293 78 l 1
 395 78 l 2
87 451 m 0
 87 431 99 412 124 412 c 0
 147 412 159 432 159 451 c 0xfa
 159 470 147 490 123 490 c 0
 100 490 87 470 87 451 c 0
EndSplineSet
Fore
SplineSet
190 602 m 3xfa
 283 602 346 561 366 487 c 1
 478 551 554 614 582 670 c 1
 609 561 l 1
 589 533 501 477 458 468 c 1
 530 440 566 384 566 300 c 2
 566 133 l 2
 566 49 518 0 434 0 c 2
 104 0 l 1
 104 78 l 1
 175 78 l 1
 175 225 l 2xf6
 175 254 188 279 223 323 c 0
 263 373 276 401 276 436 c 3
 276 489 248 524 194 524 c 2
 181 524 l 1
 216 507 229 485 229 447 c 3
 229 388 184 341 122 341 c 3
 60 341 17 391 17 454 c 3
 17 542 88 602 190 602 c 3xfa
395 78 m 2
 430 78 448 98 448 135 c 2
 448 325 l 2
 448 382 418 421 369 423 c 1
 366 396 354 368 328 323 c 0
 304 282 293 255 293 233 c 2
 293 78 l 1
 395 78 l 2
87 448 m 3
 87 426 101 409 123 409 c 3
 145 409 159 426 159 448 c 3xfa
 159 470 145 487 123 487 c 3
 101 487 87 470 87 448 c 3
EndSplineSet
Layer: 2
SplineSet
190 602 m 259,0,1
 260 602 260 602 305.5 572 c 128,-1,2
 351 542 351 542 366 487 c 1,3,4
 540 587 540 587 582 670 c 1,5,-1
 609 561 l 1,6,7
 594 539 594 539 542 507 c 128,-1,8
 490 475 490 475 458 468 c 1,9,10
 566 426 566 426 566 300 c 2,11,-1
 566 133 l 2,12,13
 566 70 566 70 531.5 35 c 128,-1,14
 497 0 497 0 434 0 c 2,15,-1
 104 0 l 1,16,-1
 104 78 l 1,17,-1
 175 78 l 1,18,-1
 175 225 l 2,19,20
 175 263 175 263 223 323 c 0,21,22
 276 389 276 389 276 436 c 259,23,24
 276 477 276 477 255 500.5 c 128,-1,25
 234 524 234 524 194 524 c 2,26,-1
 181 524 l 1,27,28
 229 501 229 501 229 447 c 259,29,30
 229 402 229 402 198.5 371.5 c 128,-1,31
 168 341 168 341 122 341 c 259,32,33
 76 341 76 341 46.5 373.5 c 128,-1,34
 17 406 17 406 17 454 c 259,35,36
 17 520 17 520 65 561 c 128,-1,37
 113 602 113 602 190 602 c 259,0,1
395 78 m 2,38,39
 448 78 448 78 448 135 c 2,40,-1
 448 325 l 2,41,42
 448 368 448 368 426.5 395 c 128,-1,43
 405 422 405 422 369 423 c 1,44,45
 365 387 365 387 328 323 c 0,46,47
 293 263 293 263 293 233 c 2,48,-1
 293 78 l 1,49,-1
 395 78 l 2,38,39
87 448 m 259,50,51
 87 431 87 431 97 420 c 128,-1,52
 107 409 107 409 123 409 c 259,53,54
 139 409 139 409 149 420 c 128,-1,55
 159 431 159 431 159 448 c 259,56,57
 159 465 159 465 149 476 c 128,-1,58
 139 487 139 487 123 487 c 259,59,60
 107 487 107 487 97 476 c 128,-1,61
 87 465 87 465 87 448 c 259,50,51
EndSplineSet
EndChar

StartChar: uni0E0B
Encoding: 3595 3595 139
Width: 694
Flags: W
HStem: 0 78<147 219 337 480.866> 295 64<94.4528 154.739> 432 57<115.24 154.759> 524 78<118.932 205.438 272.625 345>
VStem: 21 71<360.756 428.491> 158 58<361.456 429.842> 219 118<78 341.672> 491 118<87.036 390.35>
LayerCount: 3
Back
SplineSet
21 419 m 0xe7c0
 21 521 79 599 153 599 c 0xe7c0
 203 599 241 546 242 546 c 1xd3c0
 247 544 279 599 322 599 c 0
 379 599 402 535 408 484 c 1
 557 559 604 634 627 668 c 1
 651 558 l 1
 651 556 625 526 573 495 c 0
 544 477 506 466 501 464 c 1
 506 464 546 449 572 417 c 0
 604 379 609 345 609 297 c 2
 609 133 l 2
 609 78 583 0 477 0 c 2
 147 0 l 1
 147 78 l 1
 219 78 l 1
 219 276 l 2
 219 364 316 388 316 464 c 0
 316 480 309 503 295 503 c 0xcbc0
 268 503 238 461 236 461 c 1xd3c0
 232 469 202.5 522 154 522 c 0
 121 522 115 496 115 484 c 1
 115 484 120 486 129 486 c 0
 167 486 216 456 216 391 c 0
 216 336 180 292 125 292 c 0
 84 292 21 318 21 419 c 0xe7c0
439 78 m 2
 487 78 491 110 491 135 c 2
 491 323 l 2
 491 348 487 372 472 388 c 0
 447 417 430 423 401 423 c 1
 401 428 l 1
 376 369 337 350 337 291 c 2
 337 78 l 1
 439 78 l 2
158 392 m 0
 158 412 147 429 124 429 c 0
 103 429 92 411 92 394 c 0
 92 375 102.98 356 124 356 c 0
 146 356 158 371.9 158 392 c 0
EndSplineSet
Fore
SplineSet
21 422 m 3
 21 524 79 602 153 602 c 3
 182 602 209 587 242 549 c 1
 271 584 298 602 322 602 c 3
 368 602 395 565 408 484 c 1
 513 537 571 586 627 668 c 1
 651 558 l 1
 631 530 544 473 501 464 c 1
 572 436 609 380 609 297 c 2
 609 133 l 2
 609 51 560 0 477 0 c 2
 147 0 l 1
 147 78 l 1
 219 78 l 1
 219 276 l 2
 219 311 233 338 270 377 c 0
 304 413 316 436 316 464 c 3
 316 490 306 524 295 524 c 3
 279 524 253 499 236 464 c 1
 219 499 184 524 154 524 c 3
 130 524 117 512 115 487 c 1
 118 488 123 489 129 489 c 3
 180 489 216 448 216 394 c 3
 216 339 180 295 125 295 c 3
 62 295 21 344 21 422 c 3
439 78 m 2
 474 78 491 98 491 135 c 2
 491 323 l 2
 491 385 457 423 401 423 c 1
 393 409 383 392 374 379 c 0
 345 336 337 316 337 291 c 2
 337 78 l 1
 439 78 l 2
158 396 m 3
 158 417 145 432 125 432 c 3
 105 432 92 417 92 396 c 3
 92 374 105 359 125 359 c 3
 145 359 158 374 158 396 c 3
EndSplineSet
Layer: 2
SplineSet
21 422 m 259,0,1
 21 498 21 498 59 550 c 128,-1,2
 97 602 97 602 153 602 c 259,3,4
 196 602 196 602 242 549 c 1,5,6
 286 602 286 602 322 602 c 259,7,8
 389 602 389 602 408 484 c 1,9,10
 487 524 487 524 536 565 c 128,-1,11
 585 606 585 606 627 668 c 1,12,-1
 651 558 l 1,13,14
 635 536 635 536 583.5 503.5 c 128,-1,15
 532 471 532 471 501 464 c 1,16,17
 609 421 609 421 609 297 c 2,18,-1
 609 133 l 2,19,20
 609 71 609 71 574 35.5 c 128,-1,21
 539 0 539 0 477 0 c 2,22,-1
 147 0 l 1,23,-1
 147 78 l 1,24,-1
 219 78 l 1,25,-1
 219 276 l 2,26,27
 219 323 219 323 270 377 c 0,28,29
 316 426 316 426 316 464 c 259,30,31
 316 484 316 484 309.5 504 c 128,-1,32
 303 524 303 524 295 524 c 259,33,34
 283 524 283 524 266 507 c 128,-1,35
 249 490 249 490 236 464 c 1,36,37
 223 490 223 490 200 507 c 128,-1,38
 177 524 177 524 154 524 c 259,39,40
 118 524 118 524 115 487 c 1,41,42
 121 489 121 489 129 489 c 259,43,44
 167 489 167 489 191.5 462 c 128,-1,45
 216 435 216 435 216 394 c 259,46,47
 216 352 216 352 190.5 323.5 c 128,-1,48
 165 295 165 295 125 295 c 259,49,50
 78 295 78 295 49.5 329.5 c 128,-1,51
 21 364 21 364 21 422 c 259,0,1
439 78 m 2,52,53
 491 78 491 78 491 135 c 2,54,-1
 491 323 l 2,55,56
 491 370 491 370 467 396.5 c 128,-1,57
 443 423 443 423 401 423 c 1,58,59
 385 394 385 394 374 379 c 0,60,61
 337 324 337 324 337 291 c 2,62,-1
 337 78 l 1,63,-1
 439 78 l 2,52,53
158 396 m 259,64,65
 158 412 158 412 149 422 c 128,-1,66
 140 432 140 432 125 432 c 259,67,68
 110 432 110 432 101 422 c 128,-1,69
 92 412 92 412 92 396 c 259,70,71
 92 379 92 379 101 369 c 128,-1,72
 110 359 110 359 125 359 c 259,73,74
 140 359 140 359 149 369 c 128,-1,75
 158 379 158 379 158 396 c 259,64,65
EndSplineSet
EndChar

StartChar: uni0E0C
Encoding: 3596 3596 140
Width: 882
Flags: W
HStem: -5 68<196.856 257.493 434.286 494.391> 142 68<224.976 256.088> 524 78<231.681 409.593> 575 20G<676 794>
VStem: 106 118<210 350.363> 106 86<67.9075 139.692> 261 70<65.7886 139.445> 357 70<67.9874 160.986> 443 118<238.489 489.6> 502 70<67.5976 161.837> 676 118<157 595>
LayerCount: 3
Back
SplineSet
237 57 m 0x7720
 261 57 272 77 272 96 c 0
 272 116 261 136 237 136 c 0
 215 136 203 116 203 96 c 0
 203 77 215 57 237 57 c 0x7720
357 116 m 0
 357 227 443 236 443 236 c 1
 443 409 l 2
 443 486 411 518 322 518 c 0
 248 518 207 483 207 483 c 1
 210 481 229 471 261 448 c 0
 289 426 312 402 312 402 c 1
 309 402 279 389 250 356 c 0
 227 326 224 291 224 276 c 2
 224 202 l 1
 244 202 331 199 331 99 c 0
 331 22 269 -2 224 -2 c 0x7ba0
 152 -2 106 46 106 130 c 2x7720
 106 276 l 2
 106 287 109 330 129 357 c 0
 152 386 179 397 179 397 c 1
 137 442 53 477 46 478 c 1
 70 512 159 599 328 599 c 0
 503 599 561 505 561 411 c 2
 561 244 l 1
 578 244 650 216 676 159 c 1
 676 595 l 1
 794 595 l 1
 794 72 l 2
 794 8 744 -3 720 -3 c 0
 658 -3 672 52 619 126 c 0
 593 166 564 173 561 175 c 1x7ba0
 563 173 572 149 572 116 c 0
 572 67 550 -5 464 -5 c 0xb360
 409 -5 357 43 357 116 c 0
464 69 m 0xb360
 490 69 502 94 502 119 c 0
 502 143 490 166 466 166 c 0
 441 166 427 140 427 115 c 0
 427 91 439 69 464 69 c 0xb360
EndSplineSet
Fore
SplineSet
226 63 m 3xc720
 250 63 261 83 261 102 c 3
 261 122 250 142 226 142 c 3
 204 142 192 122 192 102 c 3
 192 83 204 63 226 63 c 3xc720
357 116 m 3
 357 181 386 224 443 236 c 1
 443 412 l 2
 443 493 408 524 322 524 c 3
 278 524 242 513 207 486 c 1
 248 464 281 436 312 405 c 1
 253 375 224 334 224 279 c 2
 224 210 l 1
 291 210 331 171 331 105 c 3
 331 42 287 -5 224 -5 c 3xeba0
 152 -5 106 43 106 127 c 2xe720
 106 279 l 2
 106 337 128 376 179 400 c 1
 153 428 75 475 46 481 c 1
 98 555 211 602 328 602 c 3xeb20
 476 602 561 534 561 414 c 2
 561 244 l 1
 605 237 657 198 676 157 c 1
 676 595 l 1
 794 595 l 1
 794 70 l 2
 794 22 766 -5 720 -5 c 3
 688 -5 676 7 658 51 c 0
 630 120 601 157 561 175 c 1xdba0
 567 164 572 137 572 116 c 3xd360
 572 40 531 -5 464 -5 c 3
 404 -5 357 48 357 116 c 3
464 63 m 3
 488 63 502 88 502 116 c 3xc360
 502 144 488 166 464 166 c 3
 443 166 427 143 427 116 c 3
 427 86 443 63 464 63 c 3
EndSplineSet
Layer: 2
SplineSet
226 63 m 259,0,1
 243 63 243 63 252 74.5 c 128,-1,2
 261 86 261 86 261 102 c 259,3,4
 261 118 261 118 252 130 c 128,-1,5
 243 142 243 142 226 142 c 259,6,7
 210 142 210 142 201 130 c 128,-1,8
 192 118 192 118 192 102 c 259,9,10
 192 87 192 87 201 75 c 128,-1,11
 210 63 210 63 226 63 c 259,0,1
357 116 m 259,12,13
 357 218 357 218 443 236 c 1,14,-1
 443 412 l 2,15,16
 443 472 443 472 415 498 c 128,-1,17
 387 524 387 524 322 524 c 259,18,19
 256 524 256 524 207 486 c 1,20,21
 259 458 259 458 312 405 c 1,22,23
 224 360 224 360 224 279 c 2,24,-1
 224 210 l 1,25,26
 274 210 274 210 302.5 182 c 128,-1,27
 331 154 331 154 331 105 c 259,28,29
 331 57 331 57 301 26 c 128,-1,30
 271 -5 271 -5 224 -5 c 259,31,32
 169 -5 169 -5 137.5 30 c 128,-1,33
 106 65 106 65 106 127 c 2,34,-1
 106 279 l 2,35,36
 106 366 106 366 179 400 c 1,37,38
 160 421 160 421 114 448.5 c 128,-1,39
 68 476 68 476 46 481 c 1,40,41
 85 536 85 536 162.5 569 c 128,-1,42
 240 602 240 602 328 602 c 259,43,44
 439 602 439 602 500 553 c 128,-1,45
 561 504 561 504 561 414 c 2,46,-1
 561 244 l 1,47,48
 594 239 594 239 628 213.5 c 128,-1,49
 662 188 662 188 676 157 c 1,50,-1
 676 595 l 1,51,-1
 794 595 l 1,52,-1
 794 70 l 2,53,54
 794 34 794 34 774.5 14.5 c 128,-1,55
 755 -5 755 -5 720 -5 c 259,56,57
 696 -5 696 -5 684 6.5 c 128,-1,58
 672 18 672 18 658 51 c 0,59,60
 618 149 618 149 561 175 c 1,61,62
 572 155 572 155 572 116 c 259,63,64
 572 59 572 59 543 27 c 128,-1,65
 514 -5 514 -5 464 -5 c 259,66,67
 419 -5 419 -5 388 30 c 128,-1,68
 357 65 357 65 357 116 c 259,12,13
464 63 m 259,69,70
 481 63 481 63 491.5 78.5 c 128,-1,71
 502 94 502 94 502 116 c 259,72,73
 502 138 502 138 492 152 c 128,-1,74
 482 166 482 166 464 166 c 259,75,76
 448 166 448 166 437.5 151 c 128,-1,77
 427 136 427 136 427 116 c 259,78,79
 427 93 427 93 437.5 78 c 128,-1,80
 448 63 448 63 464 63 c 259,69,70
EndSplineSet
EndChar

StartChar: uni0E0D
Encoding: 3597 3597 141
Width: 882
Flags: W
HStem: -288 62<518.77 628.317> -124 57<436.34 502.509> -5 68<202.991 263.433> 0 78<407 446 564 676.899> 142 68<227.045 262.031> 524 78<234.839 406.531> 575 20G<679 797>
VStem: 109 118<210 351.375> 109 90<64.9349 140.022> 267 70<65.7886 139.445> 372 62<-191.31 -126.896> 446 118<78 480.554> 505 53<-192.15 -126.411> 679 118<82.2486 595> 682 107<-168.897 -73>
LayerCount: 3
Back
SplineSet
639 78 m 2xdee0
 671 78 679 98 679 112 c 2
 679 595 l 1
 797 595 l 1
 797 130 l 2
 797 58 756 0 699 0 c 2
 407 0 l 1
 407 78 l 1
 446 78 l 1xdee8
 446 399 l 2
 446 475 414 518 327 518 c 0
 252 518 209 483 209 483 c 1
 212 481 230 471 263 448 c 0
 290 426 313 402 313 402 c 1
 310 402 281 389 252 356 c 0
 229 326 227 291 227 276 c 2
 227 202 l 1
 246.14 202 332 198 332 99 c 0
 332 22 270 -2 227 -2 c 0xeee8
 154 -2 109 46 109 130 c 2xedc0
 109 276 l 2
 109 287 112 330 132 357 c 0
 155 386 183 397 183 397 c 1
 141 441 54 480 49 481 c 1
 69 509 162 599 330 599 c 0
 506 599 564 505 564 411 c 2
 564 78 l 1
 639 78 l 2xdee0
243 136 m 0
 221 136 210 116 210 96 c 0
 210 76 221 57 243 57 c 0xedc0
 267 57 278 77 278 96 c 0
 278 116 267 136 243 136 c 0
558 -157 m 0xccd4
 558 -209 525 -224 518 -224 c 1
 519 -224 530 -226 548 -226 c 0
 580 -226 636.034 -222.024 670 -161 c 0
 686.779 -130.855 684 -99.5449 684 -74 c 1
 789 -72 l 1
 789 -72 792 -156 740 -215 c 0
 713 -246 663 -288 548 -288 c 0
 442 -288 372 -238 372 -163 c 0
 372 -125 391 -67 471 -67 c 0
 527 -67 558 -111 558 -157 c 0xccd4
434 -159 m 0
 434 -178 446 -195 469 -195 c 0
 492 -195 505 -176 505 -158 c 0
 505 -141 494 -124 471 -124 c 0
 446 -124 434 -141 434 -159 c 0
EndSplineSet
Fore
SplineSet
639 78 m 2xdd70
 664 78 679 91 679 112 c 2
 679 595 l 1
 797 595 l 1
 797 130 l 2
 797 58 756 0 699 0 c 2
 407 0 l 1
 407 78 l 1
 446 78 l 1xdb74
 446 402 l 2
 446 484 407 524 327 524 c 3
 283 524 244 513 209 486 c 1
 242 468 280 438 313 405 c 1
 254 375 227 334 227 279 c 2
 227 210 l 1
 294 210 337 171 337 105 c 3
 337 42 290 -5 227 -5 c 3xed74
 154 -5 109 43 109 127 c 2xece0
 109 279 l 2
 109 337 132 376 183 400 c 1
 161 424 83 473 49 484 c 1
 111 558 213 602 330 602 c 3
 478 602 564 534 564 414 c 2
 564 78 l 1
 639 78 l 2xdd70
232 142 m 3
 210 142 199 122 199 102 c 3
 199 82 210 63 232 63 c 3xe8e0
 256 63 267 83 267 102 c 3
 267 122 256 142 232 142 c 3
789 -73 m 1xc86a
 789 -209 700 -288 548 -288 c 3
 442 -288 372 -238 372 -163 c 3
 372 -103 409 -67 471 -67 c 3
 522 -67 558 -104 558 -157 c 3
 558 -190 540 -222 518 -224 c 1
 526 -225 535 -226 548 -226 c 3
 638 -226 682 -174 682 -73 c 1
 789 -73 l 1xc86a
434 -159 m 3
 434 -178 446 -195 469 -195 c 3
 492 -195 505 -176 505 -158 c 3
 505 -141 494 -124 471 -124 c 3
 446 -124 434 -141 434 -159 c 3
EndSplineSet
Layer: 2
SplineSet
639 78 m 2,0,1
 679 78 679 78 679 112 c 2,2,-1
 679 595 l 1,3,-1
 797 595 l 1,4,-1
 797 130 l 2,5,6
 797 75 797 75 769 37.5 c 128,-1,7
 741 0 741 0 699 0 c 2,8,-1
 407 0 l 1,9,-1
 407 78 l 1,10,-1
 446 78 l 1,11,-1
 446 402 l 2,12,13
 446 463 446 463 416.5 493.5 c 128,-1,14
 387 524 387 524 327 524 c 259,15,16
 258 524 258 524 209 486 c 1,17,18
 260 458 260 458 313 405 c 1,19,20
 227 361 227 361 227 279 c 2,21,-1
 227 210 l 1,22,23
 278 210 278 210 307.5 182 c 128,-1,24
 337 154 337 154 337 105 c 259,25,26
 337 58 337 58 305.5 26.5 c 128,-1,27
 274 -5 274 -5 227 -5 c 259,28,29
 172 -5 172 -5 140.5 29.5 c 128,-1,30
 109 64 109 64 109 127 c 2,31,-1
 109 279 l 2,32,33
 109 365 109 365 183 400 c 1,34,35
 166 418 166 418 120 447 c 128,-1,36
 74 476 74 476 49 484 c 1,37,38
 96 540 96 540 169.5 571 c 128,-1,39
 243 602 243 602 330 602 c 259,40,41
 441 602 441 602 502.5 553 c 128,-1,42
 564 504 564 504 564 414 c 2,43,-1
 564 78 l 1,44,-1
 639 78 l 2,0,1
232 142 m 259,45,46
 216 142 216 142 207.5 130 c 128,-1,47
 199 118 199 118 199 102 c 259,48,49
 199 86 199 86 207.5 74.5 c 128,-1,50
 216 63 216 63 232 63 c 259,51,52
 249 63 249 63 258 74.5 c 128,-1,53
 267 86 267 86 267 102 c 259,54,55
 267 118 267 118 258 130 c 128,-1,56
 249 142 249 142 232 142 c 259,45,46
789 -73 m 1,57,58
 789 -175 789 -175 725.5 -231.5 c 128,-1,59
 662 -288 662 -288 548 -288 c 259,60,61
 469 -288 469 -288 420.5 -253.5 c 128,-1,62
 372 -219 372 -219 372 -163 c 259,63,64
 372 -118 372 -118 398.5 -92.5 c 128,-1,65
 425 -67 425 -67 471 -67 c 259,66,67
 509 -67 509 -67 533.5 -92 c 128,-1,68
 558 -117 558 -117 558 -157 c 259,69,70
 558 -182 558 -182 546 -202.5 c 128,-1,71
 534 -223 534 -223 518 -224 c 1,72,73
 534 -226 534 -226 548 -226 c 259,74,75
 614 -226 614 -226 648 -188.5 c 128,-1,76
 682 -151 682 -151 682 -73 c 1,77,-1
 789 -73 l 1,57,58
434 -159 m 259,78,79
 434 -174 434 -174 443.5 -184.5 c 128,-1,80
 453 -195 453 -195 469 -195 c 259,81,82
 485 -195 485 -195 495 -184 c 128,-1,83
 505 -173 505 -173 505 -158 c 259,84,85
 505 -144 505 -144 496 -134 c 128,-1,86
 487 -124 487 -124 471 -124 c 259,87,88
 453 -124 453 -124 443.5 -134 c 128,-1,89
 434 -144 434 -144 434 -159 c 259,78,79
EndSplineSet
Substitution2: "'ccmp' Pali-Sanskrit Descender Removal" uni0E0D.descless
Substitution2: "Thai Descender Removal Single Substitution" uni0E0D.descless
EndChar

StartChar: uni0E0E
Encoding: 3598 3598 142
Width: 680
Flags: W
HStem: -306 68<131.064 218.385> -147 68<140.429 240.292> -5 68<113.389 172.114> 524 78<264.781 441.141>
VStem: 41 70<65.2893 134.204> 56 70<-230.074 -162.103> 135 118<205 348.75> 175 78<67.0596 135.471> 270 86<-70 -35> 475 118<-167.725 487.429>
AnchorPoint: "BelowBase" 593 -309 basechar 0
LayerCount: 3
Back
SplineSet
356 -35 m 1xfac0
 351 -97 337 -124 337 -124 c 1
 380 -148 422 -190 422 -190 c 1
 464 -167 474 -136 475 -133 c 1
 475 409 l 2
 475 487 444 520 356 520 c 0
 276 520 235 483 235 483 c 1
 238 481 258 471 288 448 c 0
 316 426 339 402 339 402 c 1
 336 402 307 389 277 356 c 0
 254 326 253 291 253 276 c 2xfb40
 253 112 l 2xf8c0
 253 48 219 -3 149 -3 c 0
 87 -3 43 37 43 95 c 0
 43 154 78 198 135 198 c 1
 135 276 l 2xfd40
 135 370 210 397 210 397 c 1
 162 445 82 477 75 478 c 1
 95 506 187 601 356 601 c 0
 536 601 593 506 593 411 c 2
 593 -133 l 1
 562 -235 422 -316 422 -316 c 1
 378 -261 318 -210 314 -210 c 1
 314 -220 276 -313 174 -313 c 0
 94 -313 52 -251 52 -194 c 0
 52 -154 78 -77 181 -77 c 0
 223 -77 259 -90 259 -90 c 1
 270 -35 l 1
 356 -35 l 1xfac0
192 -147 m 0
 146 -147 131 -183 131 -199 c 0
 131 -221 149 -238 176 -238 c 0
 232 -238 242 -162 241 -159 c 1
 239 -157 217 -147 192 -147 c 0
143 135 m 0
 121 135 110 116 110 97 c 0
 110 79 121 61 143 61 c 0
 164 61 174 80 174 98 c 0xfcc0
 174 116 164 135 143 135 c 0
EndSplineSet
Fore
SplineSet
356 -35 m 1xf6c0
 353 -72 347 -101 337 -124 c 1
 363 -139 397 -166 422 -190 c 1
 453 -173 468 -155 475 -133 c 1
 475 409 l 2
 475 491 441 524 356 524 c 3
 308 524 268 509 235 483 c 1
 268 465 306 435 339 402 c 1
 282 373 253 331 253 276 c 2xf6c0
 253 110 l 2
 253 38 212 -5 149 -5 c 3
 87 -5 41 39 41 97 c 3xf9c0
 41 160 81 205 135 205 c 1
 135 276 l 2
 135 335 157 371 210 397 c 1
 182 425 110 469 75 478 c 1
 143 560 245 602 356 602 c 3
 509 602 593 532 593 411 c 2
 593 -133 l 1
 574 -194 513 -260 422 -316 c 1
 391 -277 337 -224 314 -210 c 1
 294 -268 240 -306 174 -306 c 3
 103 -306 56 -261 56 -194 c 3
 56 -124 106 -79 181 -79 c 3
 209 -79 236 -83 259 -90 c 1
 270 -35 l 1
 356 -35 l 1xf6c0
192 -147 m 3
 156 -147 126 -172 126 -199 c 3
 126 -221 149 -238 176 -238 c 3
 210 -238 234 -209 241 -159 c 1
 235 -153 208 -147 192 -147 c 3
143 137 m 3
 124 137 111 122 111 100 c 3
 111 78 124 63 143 63 c 3
 162 63 175 78 175 100 c 3xf9c0
 175 122 162 137 143 137 c 3
EndSplineSet
Layer: 2
SplineSet
356 -35 m 1,0,1
 351 -91 351 -91 337 -124 c 1,2,3
 378 -147 378 -147 422 -190 c 1,4,5
 464 -167 464 -167 475 -133 c 1,6,-1
 475 409 l 2,7,8
 475 471 475 471 447.5 497.5 c 128,-1,9
 420 524 420 524 356 524 c 259,10,11
 287 524 287 524 235 483 c 1,12,13
 286 455 286 455 339 402 c 1,14,15
 253 358 253 358 253 276 c 2,16,-1
 253 110 l 2,17,18
 253 56 253 56 225 25.5 c 128,-1,19
 197 -5 197 -5 149 -5 c 259,20,21
 103 -5 103 -5 72 24 c 128,-1,22
 41 53 41 53 41 97 c 259,23,24
 41 144 41 144 67.5 174.5 c 128,-1,25
 94 205 94 205 135 205 c 1,26,-1
 135 276 l 2,27,28
 135 320 135 320 152.5 349 c 128,-1,29
 170 378 170 378 210 397 c 1,30,31
 189 418 189 418 145 444.5 c 128,-1,32
 101 471 101 471 75 478 c 1,33,34
 125 538 125 538 196.5 570 c 128,-1,35
 268 602 268 602 356 602 c 259,36,37
 470 602 470 602 531.5 552 c 128,-1,38
 593 502 593 502 593 411 c 2,39,-1
 593 -133 l 1,40,41
 563 -229 563 -229 422 -316 c 1,42,43
 399 -287 399 -287 365 -254 c 128,-1,44
 331 -221 331 -221 314 -210 c 1,45,46
 299 -254 299 -254 261 -280 c 128,-1,47
 223 -306 223 -306 174 -306 c 259,48,49
 121 -306 121 -306 88.5 -275 c 128,-1,50
 56 -244 56 -244 56 -194 c 259,51,52
 56 -142 56 -142 90.5 -110.5 c 128,-1,53
 125 -79 125 -79 181 -79 c 259,54,55
 223 -79 223 -79 259 -90 c 1,56,-1
 270 -35 l 1,57,-1
 356 -35 l 1,0,1
192 -147 m 259,58,59
 165 -147 165 -147 145.5 -163 c 128,-1,60
 126 -179 126 -179 126 -199 c 259,61,62
 126 -215 126 -215 141 -226.5 c 128,-1,63
 156 -238 156 -238 176 -238 c 259,64,65
 202 -238 202 -238 219 -217 c 128,-1,66
 236 -196 236 -196 241 -159 c 1,67,68
 229 -147 229 -147 192 -147 c 259,58,59
143 137 m 259,69,70
 129 137 129 137 120 126.5 c 128,-1,71
 111 116 111 116 111 100 c 259,72,73
 111 84 111 84 120 73.5 c 128,-1,74
 129 63 129 63 143 63 c 259,75,76
 157 63 157 63 166 73.5 c 128,-1,77
 175 84 175 84 175 100 c 259,78,79
 175 116 175 116 166 126.5 c 128,-1,80
 157 137 157 137 143 137 c 259,69,70
EndSplineSet
EndChar

StartChar: uni0E0F
Encoding: 3599 3599 143
Width: 689
Flags: W
HStem: -301 68<103.946 158.448> -142 68<106.722 166.383> -5 68<122.293 181.895> 524 78<271.816 447.99>
VStem: 31 70<-232.267 -145.918> 49 70<65.1586 134.915> 143 118<205 348.75> 181 82<-85.3804 -35 64.3343 136.132> 483 118<-168.518 488.702>
AnchorPoint: "BelowBase" 602 -309 basechar 0
LayerCount: 3
Back
SplineSet
218 397 m 1xfb40
 172 443 90 476 83 478 c 1
 103 506 204 599 363 599 c 0
 544 599 601 507 601 412 c 2
 601 -133 l 1
 574 -245 457 -311 452 -311 c 1
 368 -193 l 1
 297 -307 l 1
 231 -219 l 1
 231 -222 207 -305 133 -305 c 0
 75 -305 33 -252 33 -187 c 0
 33 -147 51 -74 125 -74 c 0
 155 -74 180 -86 181 -86 c 1
 181 -35 l 1
 262 -35 l 1
 262 -36 263 -46 263 -59 c 0xfcc0
 263 -66 258 -124 258 -124 c 1
 291 -175 l 1
 363 -66 l 1
 449 -178 l 1
 461 -173 479 -152 483 -133 c 1
 483 409 l 2
 483 491 450 521 360 521 c 0
 283 521 242 483 242 483 c 1
 245 481 265 471 296 448 c 0
 323 426 346 402 346 402 c 1
 343 402 314 389 285 356 c 0
 262 326 261 291 261 276 c 2
 261 112 l 2
 261 48 225 -3 156 -3 c 0
 93 -3 52 37 52 97 c 0
 52 199 143 198 143 198 c 1
 143 276 l 2
 143 370 218 397 218 397 c 1xfb40
129 -233 m 0
 162 -233 167 -195 167 -162 c 1
 165 -159 154 -142 137 -142 c 0
 124 -142 98 -153 98 -189 c 0
 98 -211 109 -233 129 -233 c 0
152 132 m 0
 130 132 118 114 118 95 c 0xfa40
 118 76 130 58 152 58 c 0
 174 58 184 76 184 95 c 0
 184 114 174 132 152 132 c 0
EndSplineSet
Fore
SplineSet
218 397 m 1xf680
 190 425 119 468 83 478 c 1
 146 555 255 602 363 602 c 3
 513 602 601 534 601 412 c 2
 601 -133 l 1
 585 -201 522 -277 452 -311 c 1
 368 -193 l 1
 297 -307 l 1
 231 -219 l 1
 220 -264 178 -301 133 -301 c 3
 75 -301 31 -252 31 -187 c 3
 31 -121 69 -74 125 -74 c 3
 145 -74 162 -78 181 -86 c 1
 181 -35 l 1
 262 -35 l 1
 263 -43 263 -53 263 -59 c 3xf980
 263 -65 261 -90 258 -124 c 1
 291 -175 l 1
 363 -66 l 1
 449 -178 l 1
 463 -172 479 -151 483 -133 c 1
 483 409 l 2
 483 491 450 524 360 524 c 3
 312 524 275 509 242 483 c 1
 275 465 313 435 346 402 c 1
 288 373 261 331 261 276 c 2
 261 110 l 2
 261 38 219 -5 156 -5 c 3
 94 -5 49 43 49 102 c 3
 49 165 89 205 143 205 c 1
 143 276 l 2
 143 335 165 371 218 397 c 1xf680
129 -233 m 3
 154 -233 167 -209 167 -162 c 1
 158 -148 148 -142 137 -142 c 3
 115 -142 101 -162 101 -189 c 3
 101 -218 110 -233 129 -233 c 3
152 137 m 3
 133 137 119 122 119 100 c 3xf480
 119 78 133 63 152 63 c 3
 171 63 185 78 185 100 c 3
 185 122 171 137 152 137 c 3
EndSplineSet
Layer: 2
SplineSet
218 397 m 1,0,1
 197 418 197 418 153.5 444.5 c 128,-1,2
 110 471 110 471 83 478 c 1,3,4
 130 535 130 535 205.5 568.5 c 128,-1,5
 281 602 281 602 363 602 c 259,6,7
 476 602 476 602 538.5 552.5 c 128,-1,8
 601 503 601 503 601 412 c 2,9,-1
 601 -133 l 1,10,11
 589 -184 589 -184 546.5 -235 c 128,-1,12
 504 -286 504 -286 452 -311 c 1,13,-1
 368 -193 l 1,14,-1
 297 -307 l 1,15,-1
 231 -219 l 1,16,17
 223 -253 223 -253 194.5 -277 c 128,-1,18
 166 -301 166 -301 133 -301 c 259,19,20
 89 -301 89 -301 60 -268.5 c 128,-1,21
 31 -236 31 -236 31 -187 c 259,22,23
 31 -137 31 -137 57 -105.5 c 128,-1,24
 83 -74 83 -74 125 -74 c 259,25,26
 152 -74 152 -74 181 -86 c 1,27,-1
 181 -35 l 1,28,-1
 262 -35 l 1,29,30
 263 -43 263 -43 263 -59 c 259,31,32
 263 -67 263 -67 258 -124 c 1,33,-1
 291 -175 l 1,34,-1
 363 -66 l 1,35,-1
 449 -178 l 1,36,37
 460 -173 460 -173 470 -159.5 c 128,-1,38
 480 -146 480 -146 483 -133 c 2,39,-1
 483 409 l 2,40,41
 483 471 483 471 455 497.5 c 128,-1,42
 427 524 427 524 360 524 c 259,43,44
 294 524 294 524 242 483 c 1,45,46
 293 455 293 455 346 402 c 1,47,48
 261 360 261 360 261 276 c 2,49,-1
 261 110 l 2,50,51
 261 57 261 57 232.5 26 c 128,-1,52
 204 -5 204 -5 156 -5 c 259,53,54
 110 -5 110 -5 79.5 26 c 128,-1,55
 49 57 49 57 49 102 c 259,56,57
 49 149 49 149 75.5 177 c 128,-1,58
 102 205 102 205 143 205 c 1,59,-1
 143 276 l 2,60,61
 143 320 143 320 160.5 349 c 128,-1,62
 178 378 178 378 218 397 c 1,0,1
129 -233 m 259,63,64
 167 -233 167 -233 167 -162 c 1,65,66
 154 -142 154 -142 137 -142 c 259,67,68
 121 -142 121 -142 111 -155 c 128,-1,69
 101 -168 101 -168 101 -189 c 259,70,71
 101 -233 101 -233 129 -233 c 259,63,64
152 137 m 259,72,73
 138 137 138 137 128.5 126.5 c 128,-1,74
 119 116 119 116 119 100 c 259,75,76
 119 84 119 84 128.5 73.5 c 128,-1,77
 138 63 138 63 152 63 c 259,78,79
 166 63 166 63 175.5 73.5 c 128,-1,80
 185 84 185 84 185 100 c 259,81,82
 185 116 185 116 175.5 126.5 c 128,-1,83
 166 137 166 137 152 137 c 259,72,73
EndSplineSet
EndChar

